<svg width="646" height="420" viewBox="0 0 646 420" fill="none" xmlns="http://www.w3.org/2000/svg">
<path d="M581.48 146.05H217.5L255.47 108.09L255.59 107.96C267.2 95.9 273.61 79.93 273.43 63.14C273.25 46.48 266.69 30.59 254.76 18.66C242.84 6.74003 227.02 0.18 210.28 0H210.18H209.69C193.05 0 177.3 6.44003 165.19 18.09L165.06 18.21L18.67 164.56C6.67001 176.56 0 192.63 0 209.63C0 226.63 6.67001 242.7 18.67 254.7L164.94 400.93C176.94 412.93 193.02 419.59 210.01 419.59C227 419.59 243.08 412.92 255.08 400.93C267.08 388.93 273.75 372.86 273.75 355.86C273.75 338.86 267.08 322.79 255.08 310.79L217.82 273.54H581.48C616.69 273.54 645.23 245 645.23 209.79C645.23 174.58 616.69 146.04 581.48 146.04V146.05Z" fill="#328069"/>
</svg>
