<svg width="646" height="420" viewBox="0 0 646 420" fill="none" xmlns="http://www.w3.org/2000/svg">
<path d="M63.75 273.54H427.73L389.76 311.5L389.64 311.63C378.03 323.69 371.62 339.66 371.8 356.45C371.98 373.11 378.54 389 390.47 400.93C402.39 412.85 418.21 419.41 434.95 419.59H435.05H435.54C452.18 419.59 467.93 413.15 480.04 401.5L480.17 401.38L626.56 255.03C638.56 243.03 645.23 226.96 645.23 209.96C645.23 192.96 638.56 176.89 626.56 164.89L480.29 18.66C468.29 6.66 452.21 0 435.22 0C418.23 0 402.15 6.67 390.15 18.66C378.15 30.66 371.48 46.73 371.48 63.73C371.48 80.73 378.15 96.8 390.15 108.8L427.41 146.05H63.75C28.54 146.05 0 174.59 0 209.8C0 245.01 28.54 273.55 63.75 273.55V273.54Z" fill="#328069"/>
</svg>
