<svg width="274" height="420" viewBox="0 0 274 420" fill="none" xmlns="http://www.w3.org/2000/svg">
<path d="M18.67 108.79L119.86 209.95L18.28 311.5L18.16 311.63C6.55003 323.69 0.139946 339.66 0.319946 356.45C0.499946 373.11 7.05999 389 18.99 400.93C30.91 412.85 46.73 419.41 63.47 419.59H63.5699H64.0599C80.6999 419.59 96.4499 413.15 108.56 401.5L108.69 401.38L255.08 255.03C267.08 243.03 273.75 226.96 273.75 209.96C273.75 192.96 267.08 176.89 255.08 164.89L108.81 18.66C96.8099 6.66003 80.73 0 63.74 0C46.75 0 30.67 6.67003 18.67 18.66C6.67004 30.66 0 46.73 0 63.73C0 80.73 6.67004 96.8 18.67 108.8V108.79Z" fill="#003B5C"/>
</svg>
