<svg width="420" height="646" viewBox="0 0 420 646" fill="none" xmlns="http://www.w3.org/2000/svg">
<path d="M146.05 63.75V427.73L108.09 389.76L107.96 389.64C95.9 378.03 79.93 371.62 63.14 371.8C46.48 371.98 30.59 378.54 18.66 390.47C6.74 402.39 0.18 418.21 0 434.95V435.05V435.54C0 452.18 6.44 467.93 18.09 480.04L18.21 480.17L164.56 626.56C176.56 638.56 192.63 645.23 209.63 645.23C226.63 645.23 242.7 638.56 254.7 626.56L400.93 480.29C412.93 468.29 419.59 452.21 419.59 435.22C419.59 418.23 412.92 402.15 400.93 390.15C388.93 378.15 372.86 371.48 355.86 371.48C338.86 371.48 322.79 378.15 310.79 390.15L273.54 427.41V63.75C273.54 28.54 245 0 209.79 0C174.58 0 146.04 28.54 146.04 63.75H146.05Z" fill="#328069"/>
</svg>
