<svg width="420" height="646" viewBox="0 0 420 646" fill="none" xmlns="http://www.w3.org/2000/svg">
<path d="M273.54 581.48V217.5L311.5 255.47L311.63 255.59C323.69 267.2 339.66 273.61 356.45 273.43C373.11 273.25 389 266.69 400.93 254.76C412.85 242.84 419.41 227.02 419.59 210.28V210.18V209.69C419.59 193.05 413.15 177.3 401.5 165.19L401.38 165.06L255.02 18.67C243.03 6.67 226.95 0 209.96 0C192.97 0 176.89 6.67 164.89 18.67L18.66 164.94C6.67 176.94 0 193.02 0 210.01C0 227 6.67 243.08 18.66 255.08C30.66 267.08 46.73 273.75 63.73 273.75C80.73 273.75 96.8 267.08 108.8 255.08L146.05 217.82V581.48C146.05 616.69 174.59 645.23 209.8 645.23C245.01 645.23 273.55 616.69 273.55 581.48H273.54Z" fill="#328069"/>
</svg>
