<svg width="1050" height="1050" viewBox="0 0 1050 1050" fill="none" xmlns="http://www.w3.org/2000/svg">
<path d="M388.46 456.89H149.641V490.958H388.663V456.89H388.46ZM320.139 354.485H149.439V388.553H320.139V354.485ZM149.439 183.743H490.84V149.675H149.439V183.743ZM559.16 183.743H661.54V149.675H559.16V183.743ZM149.439 286.148H661.54V252.08H149.439V286.148ZM388.46 388.553H661.54V354.485H388.46V388.553ZM525.101 576.329H764.123V542.262H525.101V576.329ZM832.241 576.329H934.62V542.262H832.241V576.329ZM525.101 678.734H934.62V644.667H525.101V678.734ZM525.101 781.139H934.62V747.072H525.101V781.139ZM1002.94 781.139C1002.94 828.185 964.827 866.511 917.591 866.511H866.3C856.771 866.511 849.27 874.217 849.27 883.545V978.852L741.822 871.378C738.578 868.133 734.321 866.308 729.658 866.308H541.928C494.894 866.308 456.578 828.185 456.578 780.937V541.856C456.578 494.811 494.894 456.485 541.928 456.485H917.388C964.422 456.485 1002.74 494.811 1002.74 541.856V780.937L1002.94 781.139ZM763.92 388.553V422.62H542.131C476.243 422.62 422.722 476.155 422.722 542.059V559.093H354.401C349.941 559.093 345.481 560.918 342.44 564.162L234.992 671.637V576.329C234.992 567.001 227.288 559.296 217.962 559.296H132.612C85.5781 559.296 47.2617 520.97 47.2617 473.924V132.439C47.2617 85.3933 85.5781 47.0674 132.612 47.0674H678.772C725.806 47.0674 764.123 85.3933 764.123 132.439V388.553H763.92ZM1037 781.139V542.059C1037 476.155 983.479 422.62 917.591 422.62H798.182V132.439C798.182 66.5345 744.66 13 678.772 13H132.409C66.5213 13 13 66.5345 13 132.439V473.924C13 539.828 66.5213 593.363 132.409 593.363H200.73V712.802C200.73 722.13 208.434 729.836 217.759 729.836C222.22 729.836 226.68 728.01 229.923 724.766L361.497 593.16H422.722V780.937C422.722 846.841 476.243 900.375 542.131 900.375H722.765L854.338 1031.98C861.029 1038.67 871.773 1038.67 878.464 1031.98C881.707 1028.74 883.532 1024.48 883.532 1020.02V900.578H917.591C983.479 900.578 1037 847.044 1037 781.139Z" fill="#EA4E43"/>
</svg>
