<?xml version="1.0" encoding="UTF-8"?>
<svg id="Layer_1" data-name="Layer 1" xmlns="http://www.w3.org/2000/svg" viewBox="0 0 311.38 136.03">
  <defs>
    <style>
      .cls-1 {
        fill: #d9d9d9;
      }

      .cls-2, .cls-3 {
        fill: #78c2e1;
      }

      .cls-4 {
        stroke: #a7a7a7;
      }

      .cls-4, .cls-5, .cls-6 {
        fill: none;
      }

      .cls-4, .cls-5, .cls-6, .cls-3 {
        stroke-linecap: round;
        stroke-miterlimit: 10;
      }

      .cls-7 {
        fill: #47829d;
      }

      .cls-5, .cls-3 {
        stroke: #47829d;
        stroke-width: 3px;
      }

      .cls-6 {
        stroke: #fff;
      }
    </style>
  </defs>
  <rect class="cls-1" x="4.31" y="78.68" width="15.78" height="55.65" rx="2.22" ry="2.22"/>
  <path class="cls-1" d="M28.14,66.2h33.55c1.04,0,1.92.74,2.11,1.76l11.59,63.84c.24,1.31-.77,2.52-2.11,2.52H16.23c-1.34,0-2.35-1.22-2.11-2.53l11.91-63.84c.19-1.01,1.07-1.75,2.11-1.75Z"/>
  <path class="cls-1" d="M73.4,80.22h25.91c1.04,0,1.92.74,2.11,1.76l9.05,49.83c.24,1.31-.77,2.52-2.11,2.52h-44.26c-1.34,0-2.35-1.22-2.11-2.53l9.3-49.83c.19-1.01,1.07-1.75,2.11-1.75Z"/>
  <path class="cls-1" d="M4.31,61.88c-10.43,8.24,7.89,18.34,10.48,5.66,10.81,2.75,12.46-10.3,4.22-11.53,7.11-7.62-6.08-11.84-6.81-4.32-9.98-7.41-15.64,6.28-7.89,10.19Z"/>
  <path class="cls-1" d="M135.24,43.35c-7.7,6.09,5.83,13.55,7.74,4.18,7.98,2.03,9.2-7.61,3.12-8.52,5.25-5.63-4.49-8.75-5.03-3.19-7.37-5.48-11.55,4.64-5.83,7.53Z"/>
  <path class="cls-1" d="M36.91,49.56c-10.42,4.78-14.71-15.7.86-12.75-1.1-14.71,14.1-11.16,15.33-6.01,2.94-3.43,10.79-1.84,11.16,3.07,19.99-8.58,22.81,23.79,2.45,19.87-.74,5.64-11.16,6.91-13.24.98-8.09,10.18-18.88-.86-16.55-5.15Z"/>
  <path class="cls-1" d="M96.54,63.16c-7.91,3.63-11.16-11.91.65-9.68-.84-11.16,10.7-8.47,11.63-4.56,2.23-2.61,8.19-1.4,8.47,2.33,15.17-6.51,17.31,18.05,1.86,15.07-.56,4.28-8.47,5.24-10.05.74-6.14,7.72-14.33-.65-12.56-3.91Z"/>
  <line class="cls-4" x1="28.22" y1="76.57" x2="53.84" y2="76.57"/>
  <line class="cls-4" x1="28.22" y1="83.86" x2="53.84" y2="83.86"/>
  <line class="cls-4" x1="74.27" y1="93.12" x2="87.08" y2="93.12"/>
  <line class="cls-4" x1="74.27" y1="88.71" x2="87.08" y2="88.71"/>
  <g>
    <ellipse class="cls-2" cx="279.59" cy="83.67" rx="30.25" ry="40.47"/>
    <path class="cls-7" d="M246.21,9.4l2.47-.56c.9-.21,1.8.36,2.02,1.26l27.52,116.16c.2.84-.27,1.7-1.09,1.99l-4.34,1.49c-.94.32-1.96-.24-2.19-1.21l-15.06-64.07c-.07-.3-.23-.57-.48-.77-3.4-2.82-30.03-16.28-53.45,1.76-.33.18.33-.18,0,0-14.91,10.12-33.36,4.7-42.26.99-.1-.04-.18-.08-.27-.14-10.24-6.5-20.28-26.69-24.03-37.6-.72-2.1.71-4.25,2.81-4.5.41-.05.82.09,1.13.37,22.29,21.8,36.1,27.91,50.82,1.08.03-.07-.03.07,0,0,17.86-40.38,51.1-19.36,55.26-16.44.33.23.75.31,1.15.22Z"/>
    <path class="cls-2" d="M262.46,61.43c-27.12-4.65-21.73,17.86-13.26,19.29-13.33,3.4-5.44,20.15.69,18.78-7.97,6.64-.2,14.8,3.96,13.61-3.64,8.69,6.2,10.16,6.2,10.16l9.51.83-1.93-8.21,7.63-2.25,5.63-14.67-11.2-37.55s-5.63-.84-7.24,0Z"/>
    <path class="cls-5" d="M254.19,78.61s17.6-10.87,27.32-3.27c5.51,4.85,1.19,10.44,1.19,10.44"/>
    <path class="cls-5" d="M256.18,92.49s16.95-11.14,27.08-4.7c5.77,4.16-.15,11.48-.15,11.48"/>
    <path class="cls-5" d="M257.65,106.61c7.59-7.64,15.44-9.5,22.13-7.56,4.72,1.96,5.93,4.42,5.56,7.35-.12.97-.54,1.87-1.2,2.6-1.94,2.15-5.28,4.38-10.35,5.08"/>
    <path class="cls-5" d="M276.41,65.63c6.34-.32,6.56,7.82,5.12,9.69"/>
    <path class="cls-3" d="M267.78,52.45c-.74.58-1.99,1.89-3.11,3.63-.53.83-.88,1.76-1.08,2.72-3.28,15.52-3.27,12.95-3,21.1,0,.17.02.35.05.52,2.07,12.2,13.37,6.48,13.86,1.73.95-9.18,1.45-24.14,7-26.39"/>
    <path class="cls-3" d="M248.51,64.6c-2.75,1.81-3.04,4.35-3.04,7.09"/>
    <path class="cls-3" d="M289.31,56.78c5.94,4.84,6.05,7.82,5.51,14.27"/>
    <g>
      <path class="cls-6" d="M213.09,29.11l10.36-2.76c.24-.06.33-.37.15-.55l-1.74-1.81c-.13-.14-.17-.34-.1-.52.5-1.27,2.71-6.14,7.45-5.71.03,0,.05-.02.04-.05-.96-2.29-8.17-7.75-14.21.39-.11.15-.33.19-.48.08l-2.21-1.58c-.15-.1-.35,0-.33.19l.87,12.18c0,.1.1.16.19.14Z"/>
      <path class="cls-6" d="M227.15,25.5c.55-5.65-1.27-6.47-1.96-6.68,1.32-1.06,3.46-1.29,4.16-.87.44,1.07,1.03,4.91-2.04,7.64-.07.06-.17,0-.17-.09Z"/>
    </g>
    <g>
      <path class="cls-6" d="M227.55,27.91l-2.2,10.49c-.05.25.18.46.42.39l2.4-.74c.19-.06.38,0,.51.14.91,1.02,4.26,5.19,1.74,9.22-.02.02,0,.06.03.06,2.48.17,10.59-3.81,6.05-12.86-.08-.17-.03-.38.14-.47l2.4-1.26c.16-.08.15-.31-.02-.38l-11.27-4.7c-.09-.04-.19.02-.21.11Z"/>
      <path class="cls-6" d="M224.44,42.09c4.79,3.03,6.35,1.78,6.84,1.26.35,1.65-.41,3.67-1.1,4.11-1.16-.09-4.85-1.29-5.9-5.26-.02-.09.08-.15.16-.11Z"/>
    </g>
    <g>
      <path class="cls-6" d="M221.59,41.24l-7.54-7.62c-.18-.18-.48-.1-.55.14l-.71,2.41c-.05.19-.21.32-.4.35-1.35.2-6.68.7-8.65-3.63-.01-.03-.05-.04-.06-.01-1.51,1.97-2.66,10.94,7.4,12.14.19.02.33.19.31.38l-.27,2.7c-.02.18.18.3.33.2l10.14-6.81c.08-.05.09-.17.02-.24Z"/>
      <path class="cls-6" d="M211.47,30.83c-5.17,2.33-4.98,4.32-4.82,5.02-1.57-.62-2.84-2.36-2.82-3.18.71-.91,3.74-3.33,7.64-2.02.08.03.08.15,0,.19Z"/>
    </g>
  </g>
</svg>