<?xml version="1.0" encoding="UTF-8"?>
<svg id="Layer_1" data-name="Layer 1" xmlns="http://www.w3.org/2000/svg" viewBox="0 0 322.62 94.76">
  <defs>
    <style>
      .cls-1 {
        fill: #db658c;
      }

      .cls-2 {
        stroke-width: 3px;
      }

      .cls-2, .cls-3 {
        fill: none;
        stroke: #a24b68;
        stroke-linecap: round;
        stroke-miterlimit: 10;
      }

      .cls-3 {
        stroke-width: 4px;
      }
    </style>
  </defs>
  <g>
    <path class="cls-1" d="M30.55,41.03c13.71-11.18,40.7-29.21,57.35-33.85,9.21-2.3,10.11,5.38,10.11,5.38,0,0,6.41-4.7,9.48-5.38,6.83-1.91,8.98,3.05,8.78,4.32,8.56.65,8.85,8.32,5.97,11.83,6.51,1.73,1.67,9.73,1.67,9.73,0,0-19.43,20.4-29.2,30.92-22.5,52.14-82.8,21.04-76.62-4.64-4.07-4.89-11.24-14.19-15.63-20.1-5.03-13.63,9.75-15.81,13.92-12.54,6.66,3.28,11.45,10.16,14.18,14.32Z"/>
    <path class="cls-3" d="M66.85,30.35c11.67,1.15,19.57,3.21,29.12,10.87"/>
    <path class="cls-3" d="M93.66,15.44c-12.14,5.38-19.22,15.92-19.22,15.92"/>
    <path class="cls-3" d="M111.68,14.3c-17.66,6.41-27.95,18.95-27.95,18.95"/>
    <path class="cls-3" d="M117.06,23.23c-14.52,4.06-23.92,14.26-23.92,14.26"/>
    <path class="cls-3" d="M44.9,42.52c8.16,12.76-.82,25.52-.82,25.52"/>
    <path class="cls-3" d="M55.3,76.57c3.75-1.49,7.57-.02,7.57-.02"/>
  </g>
  <g>
    <path class="cls-1" d="M292.24,41.24c-13.71-11.18-40.7-29.21-57.35-33.85-9.21-2.3-10.11,5.38-10.11,5.38,0,0-6.41-4.7-9.48-5.38-6.83-1.91-8.98,3.05-8.78,4.32-8.56.65-8.85,8.32-5.97,11.83-6.51,1.73-1.67,9.73-1.67,9.73,0,0,19.43,20.4,29.2,30.92,22.5,52.14,82.8,21.04,76.62-4.64,4.07-4.89,11.24-14.19,15.63-20.1,5.03-13.63-9.75-15.81-13.92-12.54-6.66,3.28-11.45,10.16-14.18,14.32Z"/>
    <path class="cls-3" d="M255.94,30.55c-11.67,1.15-19.57,3.21-29.12,10.87"/>
    <path class="cls-3" d="M229.12,15.64c12.14,5.38,19.22,15.92,19.22,15.92"/>
    <path class="cls-3" d="M211.11,14.51c17.66,6.41,27.95,18.95,27.95,18.95"/>
    <path class="cls-3" d="M205.72,23.43c14.52,4.06,23.92,14.26,23.92,14.26"/>
    <path class="cls-3" d="M277.89,42.72c-8.16,12.76.82,25.52.82,25.52"/>
    <path class="cls-3" d="M267.49,76.78c-3.75-1.49-7.57-.02-7.57-.02"/>
  </g>
  <path class="cls-2" d="M152.69,12.38c.99-.59,4.72-3.02,9.32-8.72.05-.06.15-.04.15.04.37,4.65,3.33,11.31,3.94,12.65.06.13,0,.29-.12.36-1.11.58-5.94,3.3-8.65,8.61-.05.11-.21.09-.24-.03-1.99-7.88-3.95-11.56-4.5-12.51-.08-.14-.03-.32.1-.4Z"/>
  <path class="cls-2" d="M140.95,25.81c.27-.39,1.23-1.95,1.94-4.88,0-.03.05-.04.06-.01.95,1.67,3.22,3.63,3.69,4.02.05.04.05.11.02.15-.31.41-1.63,2.27-1.71,4.72,0,.05-.06.07-.09.03-2.12-2.58-3.5-3.61-3.87-3.87-.05-.04-.07-.11-.03-.17Z"/>
  <line class="cls-2" x1="171.73" y1="40.96" x2="173.75" y2="35.92"/>
  <line class="cls-2" x1="174.17" y1="45.07" x2="179.42" y2="46.43"/>
  <line class="cls-2" x1="162.78" y1="42.1" x2="168.04" y2="43.46"/>
  <line class="cls-2" x1="168.04" y1="51.99" x2="170.06" y2="46.95"/>
</svg>