<svg width="361" height="361" viewBox="0 0 361 361" fill="none" xmlns="http://www.w3.org/2000/svg">
<path d="M361 180.5C361 280.187 280.187 361 180.5 361C80.8126 361 0 280.187 0 180.5C0 80.8126 80.8126 0 180.5 0C280.187 0 361 80.8126 361 180.5Z" fill="#FF671F"/>
<path d="M303.332 232.931C297.683 231.039 293.62 227.899 291.049 223.623C288.557 219.299 287.975 214.075 289.431 207.983C291.025 201.313 294.541 196.527 299.868 193.529C305.194 190.531 311.505 189.937 318.688 191.654C325.55 193.293 330.783 196.646 334.291 201.823C337.864 207.015 338.805 213.003 337.181 219.801C335.894 225.188 333.266 229.373 329.299 232.357C325.347 235.277 320.945 236.394 316.107 235.645L318.452 225.833C321.14 225.933 323.34 225.238 325.18 223.78C327.02 222.321 328.182 220.294 328.826 217.601C329.5 214.779 329.282 212.286 328.203 209.995C327.123 207.703 325.506 205.96 323.445 204.654C321.32 203.333 318.975 202.366 316.282 201.722C311.536 200.588 307.556 200.789 304.213 202.296C300.87 203.802 298.834 206.366 297.945 210.085C296.489 216.178 299.06 220.453 305.708 222.991L303.332 232.931Z" fill="black"/>
<path d="M319.832 260.357L312.851 256.632L317.258 248.371L324.239 252.096L319.832 260.357ZM308.429 254.273L278.411 238.257L282.819 229.996L312.837 246.012L308.429 254.273Z" fill="black"/>
<path d="M290.188 281.048L283.332 275.794C284.343 274.908 285.21 273.994 285.852 273.156C287.737 270.697 288.316 268.316 287.628 265.961C286.94 263.606 285.341 261.466 282.724 259.461L270.373 249.995L276.068 242.563L303.073 263.26L297.658 270.325L292.687 266.515C295.039 271.142 294.717 275.464 291.588 279.546C291.347 279.86 290.854 280.396 290.188 281.048Z" fill="black"/>
<path d="M245.854 290.423C243.578 286.59 242.795 282.837 243.516 279.072C244.277 275.359 246.395 272.085 249.912 269.303C254.048 266.03 258.329 264.746 262.775 265.264C267.262 265.834 271.162 268.213 274.476 272.401C277.872 276.693 279.372 281.14 278.976 285.741C278.54 290.29 276.242 294.294 272.106 297.567C268.589 300.349 264.957 301.709 261.25 301.699C257.595 301.649 254.379 300.241 251.614 297.384L258.802 291.697C261.784 294.298 264.77 294.458 267.717 292.126C269.734 290.531 270.671 288.528 270.582 286.076C270.492 283.625 269.332 281.096 267.163 278.355C265.077 275.718 262.923 274.059 260.692 273.47C258.46 272.881 256.336 273.385 254.371 274.94C251.165 277.476 250.695 280.707 252.938 284.818L245.854 290.423Z" fill="black"/>
<path d="M219.883 323.556L207.496 291.867L215.786 288.626L217.539 293.109C218.579 288.526 221.322 285.4 225.743 283.672C229.244 282.304 232.306 282.168 235.016 283.304C237.725 284.44 239.75 286.904 241.215 290.651L249.545 311.96L240.763 315.393L233.681 297.277C233.201 296.049 232.841 295.127 232.43 294.439C232.019 293.75 231.571 293.146 230.914 292.553C230.319 291.936 229.55 291.6 228.669 291.519C227.788 291.439 226.758 291.7 225.53 292.18C220.985 293.957 219.804 297.817 222.156 303.835L228.542 320.171L219.883 323.556Z" fill="black"/>
<path d="M200.718 339.712L193.564 293.313L202.818 291.887L209.972 338.286L200.718 339.712Z" fill="black"/>
<path d="M157.736 292.686L167.278 293.293C167.486 294.166 167.678 295.301 167.726 296.625C170.74 293.91 174.513 292.763 178.988 293.048C182.739 293.286 185.645 294.33 187.699 296.311C189.688 298.288 190.647 300.859 190.442 304.084C190.35 305.532 190.073 306.769 189.607 307.863C189.145 308.89 188.494 309.774 187.589 310.509C186.687 311.179 185.86 311.721 185.037 312.197C184.218 312.607 183.14 312.935 181.803 313.18C180.404 313.355 179.268 313.547 178.47 313.629C177.607 313.706 176.41 313.828 174.884 313.929C171.568 314.114 169.367 314.437 168.215 314.892C167.067 315.281 166.416 316.165 166.333 317.481C166.14 320.508 168.083 322.151 172.163 322.411C174.335 322.549 175.939 322.255 176.977 321.528C178.08 320.806 178.822 319.531 179.206 317.64L187.958 318.197C186.946 325.797 181.504 329.282 171.502 328.646C161.632 328.017 156.931 324.018 157.4 316.648L158.334 301.974C158.61 297.631 158.408 294.579 157.736 292.686ZM166.95 309.856C168.045 309.265 170.324 308.75 173.648 308.433C176.437 308.214 178.251 307.735 179.148 307.131C180.12 306.4 180.722 305.249 180.814 303.801C180.902 302.419 180.512 301.271 179.641 300.423C178.77 299.575 177.545 299.1 175.966 299C173.465 298.841 171.384 299.369 169.786 300.589C168.189 301.808 167.344 303.671 167.193 306.04L166.95 309.856Z" fill="black"/>
<path d="M124.448 317.832L127.066 309.601C128.243 310.252 129.397 310.757 130.402 311.077C133.355 312.017 135.792 311.754 137.774 310.309C139.756 308.863 141.226 306.633 142.226 303.491L146.943 288.662L155.866 291.5L145.551 323.923L137.069 321.224L138.968 315.255C135.412 319.037 131.237 320.199 126.336 318.64C125.959 318.52 125.287 318.238 124.448 317.832Z" fill="black"/>
<path d="M88.6904 262.418L94.3924 255.668L119.778 277.115L89.4805 312.977L81.623 306.339L106.219 277.226L88.6904 262.418Z" fill="black"/>
<path d="M77.1132 228.169L82.2537 236.231C81.6727 236.914 80.8694 237.739 79.8284 238.559C83.799 239.39 86.9518 241.759 89.3625 245.539C91.3833 248.708 92.2558 251.671 91.8691 254.498C91.4468 257.27 89.9369 259.562 87.2127 261.299C85.9895 262.079 84.8269 262.586 83.669 262.855C82.5668 263.089 81.4694 263.085 80.3414 262.787C79.2689 262.455 78.3432 262.107 77.473 261.723C76.6584 261.304 75.7576 260.627 74.7706 259.693C73.8037 258.667 72.9786 257.864 72.442 257.267C71.87 256.615 71.0651 255.721 70.0829 254.549C67.9767 251.982 66.4177 250.395 65.3702 249.734C64.3784 249.037 63.281 249.033 62.169 249.742C59.6116 251.372 59.4319 253.911 61.6299 257.358C62.7998 259.193 63.9842 260.314 65.1832 260.723C66.4175 261.187 67.884 261.034 69.6381 260.228L74.3531 267.623C67.6204 271.29 61.5951 268.954 56.2065 260.504C50.8888 252.164 51.3433 246.009 57.57 242.039L69.9679 234.133C73.6372 231.793 75.9819 229.829 77.1132 228.169ZM68.6891 245.74C69.8122 246.275 71.5736 247.811 73.7909 250.307C75.6134 252.43 77.071 253.612 78.0878 253.98C79.2513 254.333 80.5356 254.14 81.7587 253.36C82.9263 252.615 83.6232 251.623 83.7941 250.42C83.9649 249.216 83.6249 247.947 82.774 246.612C81.4269 244.5 79.7719 243.131 77.8446 242.561C75.9173 241.991 73.9151 242.408 71.9136 243.684L68.6891 245.74Z" fill="black"/>
<path d="M28.6972 230.227L45.1805 225.76C41.3086 224.077 38.7863 221.071 37.5963 216.68C36.4236 212.352 37.0834 208.484 39.5756 205.076C42.0851 201.732 45.8133 199.355 50.6501 198.045C55.9324 196.613 60.5758 196.858 64.5458 198.651C68.5159 200.445 71.0555 203.514 72.2282 207.842C73.4699 212.424 72.7465 216.309 69.9943 219.514L74.1138 218.329L76.442 226.921L31.1289 239.2L28.6972 230.227ZM45.2921 217.6C45.9474 220.019 47.4367 221.733 49.5981 222.65C51.7594 223.567 54.4312 223.595 57.486 222.767C60.6681 221.905 63.0241 220.515 64.4266 218.632C65.8928 216.732 66.2664 214.581 65.5939 212.099C64.973 209.808 63.5646 208.14 61.276 207.257C59.051 206.357 56.362 206.266 53.1799 207.128C50.1887 207.939 47.9773 209.358 46.5111 211.258C45.1085 213.141 44.6712 215.309 45.2921 217.6Z" fill="black"/>
<path d="M59.0621 128.413C64.7113 130.306 68.7742 133.446 71.3456 137.721C73.8375 142.045 74.4196 147.269 72.9637 153.362C71.3698 160.031 67.8532 164.818 62.5267 167.816C57.2003 170.814 50.8892 171.407 43.7065 169.691C36.8444 168.051 31.6118 164.699 28.1035 159.522C24.531 154.329 23.5891 148.342 25.2136 141.544C26.501 136.157 29.1283 131.971 33.0955 128.987C37.0474 126.067 41.4498 124.95 46.2875 125.699L43.9426 135.511C41.2548 135.411 39.055 136.106 37.2149 137.565C35.3749 139.023 34.2125 141.05 33.5689 143.744C32.8945 146.566 33.1124 149.058 34.1918 151.35C35.2711 153.642 36.8886 155.384 38.9493 156.69C41.0741 158.011 43.4191 158.979 46.1126 159.622C50.8584 160.756 54.8385 160.555 58.1814 159.049C61.5242 157.543 63.5606 154.979 64.4495 151.259C65.9055 145.167 63.3341 140.891 56.6866 138.354L59.0621 128.413Z" fill="black"/>
<path d="M42.5628 100.987L49.5438 104.712L45.1363 112.973L38.1553 109.248L42.5628 100.987ZM53.965 107.071L83.9833 123.087L79.5758 131.348L49.5575 115.332L53.965 107.071Z" fill="black"/>
<path d="M72.2077 80.2961L79.0636 85.5504C78.0521 86.4367 77.1854 87.3508 76.5436 88.1882C74.6585 90.648 74.0798 93.029 74.7674 95.3836C75.4551 97.7383 77.0549 99.8782 79.6717 101.884L92.0228 111.35L86.3272 118.781L59.3224 98.0847L64.7371 91.0194L69.7089 94.8298C67.3569 90.2027 67.6788 85.8803 70.8074 81.7982C71.048 81.4842 71.5416 80.9486 72.2077 80.2961Z" fill="black"/>
<path d="M116.542 70.9217C118.818 74.7544 119.601 78.507 118.88 82.2722C118.119 85.9856 116 89.2591 112.484 92.0412C108.347 95.3142 104.067 96.599 99.6208 96.0807C95.134 95.5108 91.2336 93.1316 87.9197 88.9431C84.524 84.6512 83.0238 80.2048 83.4194 75.6038C83.8558 71.0545 86.1532 67.0507 90.2899 63.7777C93.8062 60.9957 97.4383 59.6353 101.145 59.645C104.801 59.6956 108.017 61.1031 110.782 63.9602L103.594 69.6471C100.611 67.0463 97.6258 66.886 94.6784 69.218C92.6617 70.8136 91.7241 72.8166 91.8139 75.268C91.9037 77.7194 93.064 80.2486 95.2324 82.9892C97.3189 85.6264 99.4725 87.2856 101.704 87.8743C103.935 88.463 106.059 87.9596 108.024 86.4049C111.23 83.8683 111.701 80.6373 109.458 76.5267L116.542 70.9217Z" fill="black"/>
<path d="M142.512 37.789L154.9 69.4775L146.609 72.7183L144.857 68.2353C143.817 72.8188 141.074 75.9441 136.652 77.6726C133.152 79.0409 130.089 79.176 127.38 78.0405C124.671 76.9049 122.645 74.4401 121.181 70.6939L112.851 49.384L121.632 45.9511L128.714 64.0676C129.194 65.2959 129.555 66.217 129.965 66.906C130.376 67.5949 130.825 68.1984 131.481 68.7913C132.076 69.4082 132.845 69.7449 133.726 69.8253C134.607 69.9056 135.638 69.6444 136.866 69.1642C141.41 67.3878 142.592 63.5278 140.239 57.5094L133.853 41.1739L142.512 37.789Z" fill="black"/>
<path d="M161.679 21.6321L168.832 68.0312L159.578 69.4579L152.425 23.0588L161.679 21.6321Z" fill="black"/>
<path d="M204.659 68.6585L195.117 68.0512C194.908 67.179 194.716 66.0435 194.668 64.7191C191.655 67.4343 187.882 68.5817 183.407 68.2968C179.656 68.0581 176.749 67.0141 174.695 65.0334C172.707 63.0568 171.747 60.4851 171.952 57.2607C172.045 55.813 172.321 54.5753 172.788 53.4818C173.249 52.454 173.9 51.5705 174.806 50.8353C175.707 50.1659 176.535 49.6239 177.358 49.1477C178.177 48.7374 179.255 48.4096 180.592 48.1643C181.991 47.9891 183.126 47.7971 183.924 47.7157C184.788 47.6386 185.985 47.5165 187.511 47.4155C190.826 47.2301 193.027 46.9077 194.179 46.4525C195.327 46.063 195.978 45.1795 196.062 43.8634C196.255 40.8364 194.311 39.1931 190.231 38.9334C188.06 38.7951 186.455 39.0894 185.418 39.8163C184.315 40.5389 183.573 41.8131 183.188 43.7046L174.436 43.1475C175.449 35.5478 180.89 32.0621 190.892 32.6987C200.763 33.327 205.464 37.3262 204.995 44.6963L204.061 59.3706C203.784 63.7136 203.986 66.7658 204.659 68.6585ZM195.445 51.4883C194.35 52.0793 192.071 52.5949 188.747 52.9119C185.958 53.1308 184.144 53.61 183.246 54.2136C182.275 54.9446 181.673 56.0955 181.581 57.5432C181.493 58.9251 181.882 60.0731 182.753 60.9214C183.624 61.7697 184.849 62.2441 186.429 62.3446C188.929 62.5038 191.011 61.9756 192.608 60.7558C194.205 59.5361 195.051 57.6739 195.202 55.3049L195.445 51.4883Z" fill="black"/>
<path d="M237.948 43.5124L235.329 51.7437C234.153 51.0926 232.999 50.5871 231.993 50.2673C229.04 49.3278 226.604 49.5907 224.622 51.036C222.64 52.4812 221.169 54.7119 220.17 57.8536L215.452 72.6825L206.53 69.8441L216.844 37.4216L225.327 40.1201L223.428 46.0893C226.983 42.3077 231.159 41.1451 236.06 42.7042C236.437 42.8242 237.108 43.1069 237.948 43.5124Z" fill="black"/>
<path d="M273.705 98.9265L268.003 105.676L242.617 84.2292L272.915 48.3669L280.772 55.0052L256.177 84.1181L273.705 98.9265Z" fill="black"/>
<path d="M285.282 133.175L280.142 125.114C280.723 124.43 281.526 123.605 282.567 122.785C278.596 121.954 275.444 119.585 273.033 115.805C271.012 112.636 270.14 109.673 270.526 106.846C270.949 104.074 272.459 101.782 275.183 100.045C276.406 99.2649 277.569 98.7581 278.726 98.489C279.829 98.2553 280.926 98.2594 282.054 98.5567C283.127 98.8895 284.052 99.2375 284.923 99.6211C285.737 100.04 286.638 100.717 287.625 101.652C288.592 102.677 289.417 103.481 289.953 104.077C290.526 104.729 291.33 105.623 292.313 106.795C294.419 109.362 295.978 110.949 297.025 111.61C298.017 112.307 299.115 112.312 300.226 111.602C302.784 109.972 302.964 107.433 300.766 103.986C299.596 102.151 298.411 101.03 297.212 100.621C295.978 100.157 294.512 100.31 292.757 101.116L288.042 93.7215C294.775 90.0539 300.8 92.3898 306.189 100.84C311.507 109.18 311.052 115.335 304.826 119.305L292.428 127.211C288.758 129.551 286.414 131.515 285.282 133.175ZM293.706 115.604C292.583 115.069 290.822 113.533 288.605 111.037C286.782 108.914 285.325 107.732 284.308 107.364C283.144 107.011 281.86 107.205 280.637 107.985C279.469 108.729 278.772 109.721 278.601 110.925C278.431 112.128 278.771 113.397 279.621 114.732C280.969 116.844 282.624 118.213 284.551 118.783C286.478 119.353 288.48 118.936 290.482 117.66L293.706 115.604Z" fill="black"/>
<path d="M333.698 131.118L317.215 135.585C321.087 137.268 323.609 140.273 324.799 144.665C325.972 148.992 325.312 152.86 322.82 156.268C320.31 159.613 316.582 161.989 311.745 163.3C306.463 164.731 301.82 164.487 297.85 162.693C293.88 160.9 291.34 157.831 290.167 153.503C288.926 148.921 289.649 145.036 292.401 141.83L288.282 143.015L285.954 134.423L331.267 122.144L333.698 131.118ZM317.103 143.744C316.448 141.326 314.959 139.612 312.797 138.694C310.636 137.777 307.964 137.75 304.91 138.578C301.727 139.44 299.371 140.83 297.969 142.713C296.503 144.613 296.129 146.764 296.802 149.246C297.423 151.537 298.831 153.205 301.12 154.087C303.345 154.987 306.034 155.079 309.216 154.216C312.207 153.406 314.418 151.987 315.884 150.086C317.287 148.203 317.724 146.035 317.103 143.744Z" fill="black"/>
</svg>
