<?xml version="1.0" encoding="UTF-8"?>
<svg id="Layer_1" data-name="Layer 1" xmlns="http://www.w3.org/2000/svg" viewBox="0 0 166.56 167.3">
  <defs>
    <style>
      .cls-1 {
        stroke: #e4e2e2;
        stroke-width: 2px;
      }

      .cls-1, .cls-2, .cls-3 {
        fill: none;
        stroke-linecap: round;
        stroke-miterlimit: 10;
      }

      .cls-4 {
        fill: #b2b0b0;
      }

      .cls-5 {
        fill: #d9d9d9;
      }

      .cls-6 {
        fill: #ccc;
      }

      .cls-7 {
        fill: #dedede;
      }

      .cls-8 {
        fill: #c6c6c6;
      }

      .cls-9 {
        fill: #9f97c5;
      }

      .cls-2 {
        stroke: #a7a7a7;
        stroke-width: 4px;
      }

      .cls-3 {
        stroke: #7b7694;
        stroke-width: 3px;
      }
    </style>
  </defs>
  <rect class="cls-8" x="101.38" y="1.42" width="33.44" height="11.6" rx="5.8" ry="5.8"/>
  <rect class="cls-7" x="96.15" y="13.03" width="43.9" height="64.6" rx="7.61" ry="7.61"/>
  <ellipse class="cls-6" cx="145.84" cy="43.66" rx="42.33" ry="15.76" transform="translate(65.69 173.09) rotate(-74.9)"/>
  <circle class="cls-8" cx="88.18" cy="50.52" r="27.11"/>
  <path class="cls-5" d="M61.68,45.76h42.86c.11,0,.21.03.31.09l2.31,1.47c.19.12.44.12.63-.01l2.06-1.44c.09-.07.21-.1.32-.1l30.45-.31c.14,0,.28.05.39.14l1.81,1.61c.21.19.52.19.74.02l1.91-1.54c.1-.08.23-.13.36-.13h9.86c.17,0,.34.08.45.22l1,1.27c.21.26.59.29.84.06l1.72-1.62c.1-.1.24-.15.38-.15h0c2.32-.06,4.23,1.8,4.23,4.12v33.98c0,.66-.11,1.31-.33,1.93l-2.28,6.42c-.86,2.43-.74,5.1.33,7.45l1.41,3.07c.57,1.25.89,2.61.92,3.99l.76,29.85-3.76,21.66c-.72,4.15-4.32,7.18-8.54,7.18H61.86c-3.7,0-6.67-3.07-6.55-6.77l1.7-51.93-1.73-53.92c-.12-3.61,2.78-6.6,6.39-6.6Z"/>
  <line class="cls-2" x1="64.55" y1="140.26" x2="64.55" y2="118.91"/>
  <g>
    <path class="cls-9" d="M20.82,73.11c6.69,0,19.6,2.81,22.82,3.54.49.11.99.11,1.49.01,3.83-.8,21.37-4.48,30.44-6.39,11.1-.58,10.12,12.08,5.67,14.39-2.34,1.12-4.94,1.99-6.65,2.5-.41.12-.36.71.06.76,6.09.73,24.99,3.03,34.94,4.37,5.02.63,7.06,11.82,1.96,11.78,6.81.59,10.49,14.1,0,15.27,1.69,2.78,4.14,11.31-6.54,12.43h-5.45s1.47,7.82-6.76,8.29c-29.91-.18-50-1.8-74.15-9.38-15.35-6.91-28.65-54.4,2.18-57.58Z"/>
    <path class="cls-3" d="M68.34,96.35c33.79,1.35,41.1,5.71,41.1,5.71"/>
    <path class="cls-3" d="M66.15,107.19c37.94,2.35,44.07,9.45,44.07,9.45"/>
    <path class="cls-3" d="M59.9,117.49s24.14,3.66,31.59,5.01c7.54,1.63,6.23,6.97,6.23,6.97"/>
  </g>
  <path class="cls-4" d="M76.34,19.28c-2.25-2.64-5.02-6.45-11.06-6.24-.3.01-.57.23-.62.52-1.12,6.21,6.65,18.73,15.57,18.3.37-.02.65-.37.6-.74-.57-4.51-1.66-7.58-4.45-11.77-.02-.02-.03-.04-.05-.07Z"/>
  <path class="cls-1" d="M142.85,26.24c.43-4.58,4.95-4.07,7.34-2.54,5.77,3.68,6.68-.16,6.9-1.71"/>
  <path class="cls-1" d="M141.46,35.63c.43-4.58,4.95-4.07,7.34-2.54,5.77,3.68,6.68-.16,6.9-1.71"/>
  <line class="cls-2" x1="61.44" y1="52.57" x2="68.46" y2="52.57"/>
  <line class="cls-2" x1="72.95" y1="52.57" x2="73.98" y2="52.57"/>
  <line class="cls-2" x1="78.88" y1="52.57" x2="100.24" y2="52.57"/>
  <path class="cls-2" d="M142.12,93.29c6.13-6.08,10.23-7.1,15.69-8.38"/>
  <line class="cls-2" x1="145.62" y1="97.91" x2="146.38" y2="98.67"/>
  <line class="cls-2" x1="150.63" y1="102.23" x2="153.01" y2="104.6"/>
  <line class="cls-2" x1="64.55" y1="157.7" x2="64.55" y2="150.68"/>
  <line class="cls-2" x1="64.55" y1="146.19" x2="64.55" y2="145.16"/>
</svg>