<svg width="1050" height="1050" viewBox="0 0 1050 1050" fill="none" xmlns="http://www.w3.org/2000/svg">
<path d="M460.169 936.171C460.169 896.481 492.542 864.222 532.373 864.222C572.204 864.222 604.577 896.481 604.577 936.171C604.577 975.861 572.204 1008.12 532.373 1008.12C492.542 1008.12 460.169 975.861 460.169 936.171ZM431.016 936.171C431.016 991.737 476.44 1037 532.203 1037C587.967 1037 633.391 991.737 633.391 936.171C633.391 880.605 587.967 835.341 532.203 835.341C476.44 835.341 431.016 880.605 431.016 936.171ZM625.425 43.2319L625.086 52.521C624.577 63.4991 623.56 75.3216 621.526 98.7978V99.6423C616.441 156.39 611.526 213.139 606.78 270.056C600.848 338.626 594.916 407.028 588.984 475.599C586.441 505.155 583.899 534.88 581.356 564.605C578.814 594.331 576.272 624.056 573.56 653.781C572.712 662.901 571.865 672.19 571.017 681.48C569.831 693.302 568.644 705.125 567.627 716.947L566.95 725.054H558.644C529.661 725.054 512.203 725.223 501.864 725.392C496.949 725.392 493.559 725.392 491.186 725.392H482.881L482.203 717.116C481.186 704.618 480.339 693.64 478.305 670.164C473.389 613.416 468.474 556.667 463.559 499.75C457.627 431.18 451.694 362.778 445.762 294.207C443.22 264.482 440.677 234.757 437.965 205.032C435.423 175.306 432.881 145.75 430.169 116.194C428.643 98.7978 427.626 83.5974 426.779 71.7749C426.27 64.1747 425.762 57.7567 425.423 53.0277L424.575 43.4008H625.594L625.425 43.2319ZM657.967 27.3559C658.306 23.3025 655.933 20.0935 654.408 18.5735C651.357 15.1956 646.611 13 642.713 13H407.287C403.219 13 398.643 15.1956 395.592 18.5735C394.067 20.0935 391.694 23.3025 392.033 27.3559L398.134 98.1222C403.05 154.87 407.965 211.787 412.88 268.536C418.813 337.106 424.745 405.508 430.677 474.079C433.22 503.635 435.762 533.36 438.474 563.085C441.016 592.811 443.559 622.536 446.27 652.261C447.287 663.07 448.135 674.048 448.982 684.857C450.508 702.591 451.864 720.325 453.728 738.059V738.397C453.728 738.397 453.728 739.241 453.728 739.579C454.406 747.348 459.491 755.286 468.983 755.286H580.848C584.916 755.286 588.984 753.428 592.035 750.219C594.577 747.517 596.102 744.308 595.933 740.93V739.41L602.713 661.044C607.458 606.829 612.204 552.445 616.78 498.061C622.713 429.491 628.645 361.089 634.577 292.349C637.289 261.949 639.832 231.548 642.543 201.316C645.086 172.266 647.628 143.386 650.171 114.336C651.018 105.216 651.866 95.9266 652.883 86.8064C654.747 67.7214 656.781 47.9609 657.628 28.7071V27.187L657.967 27.3559Z" fill="#EA4E43"/>
</svg>
