<svg width="1050" height="1050" viewBox="0 0 1050 1050" fill="none" xmlns="http://www.w3.org/2000/svg">
<path d="M342.485 479.181L333.418 568.929C298.329 573.071 268.563 580.37 244.514 590.626L252.596 500.484C266.001 493.58 295.175 481.942 342.485 479.181ZM356.481 341.107L346.034 445.846C312.128 447.227 281.968 452.947 256.342 463.007L265.409 362.804C279.208 355.703 308.777 343.868 356.481 341.304M509.845 360.832L497.82 464.585C455.636 453.539 415.816 447.424 379.151 445.846L389.796 340.91C426.855 342.29 467.266 348.997 510.042 360.832M493.878 497.525L485.401 569.521C458.001 566.365 430.206 564.787 403.397 564.787C390.978 564.787 378.757 565.181 366.929 565.773L375.603 478.786C412.071 479.97 451.693 486.282 493.681 497.525M281.179 187.45L287.882 113.877C317.056 106.973 348.202 102.831 380.531 102.042L373.631 170.29C330.461 171.868 299.906 180.349 281.179 187.45ZM370.28 203.625L359.832 307.969C325.927 309.35 294.584 315.07 268.76 324.933L277.828 224.928C291.627 217.827 321.59 205.992 370.28 203.625ZM525.812 223.941L513.788 327.694C471.208 316.451 430.601 309.744 392.95 308.166L403.397 203.625C441.245 205.203 482.445 211.909 525.615 223.941M406.748 170.684L413.648 102.239C452.284 103.62 494.075 109.537 537.837 119.4L529.558 190.804C486.387 179.166 444.991 172.262 406.748 170.684ZM674.248 260.63L663.406 365.171C627.135 360.24 590.864 351.758 555.578 340.121C553.41 339.529 551.439 338.937 549.467 338.148C548.285 337.754 547.102 337.359 545.722 336.965L557.747 233.606H558.141C595.989 246.033 635.02 255.107 674.248 260.432M660.055 398.112L649.213 502.456C613.533 497.328 578.051 489.043 543.554 477.8C540.4 476.814 537.443 475.828 534.486 475.039C532.909 474.644 531.332 474.053 529.952 473.658L541.977 370.497C541.977 370.497 542.568 370.497 542.962 370.694C543.751 370.891 544.539 371.089 545.525 371.483C582.782 383.713 621.418 392.589 660.055 398.112ZM526.009 506.993C526.009 506.993 527.783 507.585 528.572 507.782C530.149 508.176 531.529 508.571 533.106 509.163C569.771 521.195 607.619 530.071 645.467 535.397L638.174 606.209C628.712 603.645 621.024 601.278 614.124 598.714C585.738 588.457 553.41 580.369 518.124 574.452L526.009 507.19V506.993ZM829.189 500.484L837.271 397.323C872.359 391.997 899.365 384.502 916.121 378.979L909.222 479.773C900.548 483.126 872.162 493.383 829.189 500.681M710.519 231.239L718.601 152.735C755.661 156.088 790.749 156.877 822.881 154.707L816.967 230.253C782.076 233.804 746.396 234.198 710.519 231.239ZM819.727 621.2L826.429 534.805C862.306 529.085 889.706 521.392 906.659 515.672L899.957 613.113C885.172 615.282 855.801 619.227 819.727 621.2ZM696.326 368.722L707.168 264.18C725.303 265.758 742.65 266.547 759.012 266.547C777.345 266.547 795.874 265.561 814.404 263.983L806.322 367.538C770.248 371.286 733.188 371.68 696.326 368.722ZM561.689 200.271L570.165 126.895C610.182 136.757 649.016 144.056 685.878 148.79L677.796 227.492C641.131 222.561 604.268 214.079 568.588 202.244C567.209 201.849 565.829 201.455 564.449 200.863C563.66 200.666 562.872 200.469 561.886 200.074M678.585 539.145C697.903 540.92 716.63 541.709 734.174 541.709C753.69 541.709 773.402 540.723 792.918 538.75L786.412 621.989C744.227 622.581 705.394 619.622 670.897 613.31L678.585 538.947V539.145ZM681.936 506.204L692.778 401.859C711.307 403.437 729.246 404.226 746.199 404.226C765.32 404.226 784.638 403.24 803.562 401.465L795.48 505.021C758.223 508.965 720.178 509.36 681.936 506.007M925.386 242.285L918.487 342.882C907.842 346.827 880.047 356.098 839.833 362.804L847.915 259.643C882.215 254.515 908.827 247.414 925.386 242.088M932.877 134.39L927.949 206.583C914.938 211.12 888.129 219.602 850.675 225.717L856.392 151.551C892.072 147.014 917.501 139.913 932.877 134.39ZM257.721 79.7525L176.506 976.248C175.717 984.335 171.972 991.83 165.664 997.156C159.356 1002.48 151.471 1004.85 143.191 1004.06C135.109 1003.27 127.618 999.523 122.296 993.211C116.974 986.899 114.608 979.009 115.397 970.724L196.612 74.0323C197.992 58.4497 211.397 46.023 227.167 46.023C228.153 46.023 228.941 46.023 229.927 46.023C238.009 46.812 245.5 50.5598 250.822 57.069C256.144 63.3809 258.51 71.2709 257.919 79.5553M959.883 94.3489C954.56 91.193 948.055 90.9957 942.733 94.1517C941.55 94.7434 826.429 158.455 567.603 92.3765C566.026 91.982 564.252 91.5875 562.675 91.193C561.295 90.9957 559.915 90.6012 558.338 90.2067C558.338 90.2067 557.944 90.2067 557.747 90.2067H557.549C502.354 76.7938 449.525 69.6929 400.637 69.1011H400.44C400.44 69.1011 399.849 69.1011 399.652 69.1011C361.607 68.7066 325.138 72.0598 290.839 79.5553C292.021 45.234 266.789 16.4357 232.884 13.2798C215.931 11.7018 199.569 16.8302 186.362 27.8762C173.155 38.9221 165.072 54.1102 163.495 71.0736L82.2796 967.569C80.7026 984.532 85.8279 1001.1 96.8669 1014.12C107.709 1027.14 123.085 1035.22 140.037 1036.8C142.009 1036.8 143.98 1037 145.951 1037C160.933 1037 175.126 1031.87 186.756 1022.21C199.766 1011.36 207.849 995.972 209.426 979.009L241.163 629.09C265.015 614.493 302.272 604.434 348.793 600.094H349.188C433.557 592.204 530.74 603.448 603.283 629.682C615.504 634.218 628.712 637.966 643.299 641.517C646.059 643.489 648.622 644.673 651.184 644.87C652.958 644.87 654.535 644.87 655.915 644.475H656.507C692.975 651.773 733.386 655.719 776.95 655.719C852.252 655.719 912.376 644.87 918.881 643.489C926.174 642.108 931.694 635.796 932.285 628.498L960.474 218.616V218.221V217.827L967.965 109.537C968.359 103.422 965.402 97.7022 960.08 94.3489" fill="#EA4E43"/>
</svg>
