<svg width="680" height="537" viewBox="0 0 680 537" fill="none" xmlns="http://www.w3.org/2000/svg">
<path fill-rule="evenodd" clip-rule="evenodd" d="M145.986 7.08122C148.314 6.66021 152.225 6.15798 155.727 8.33745C158.933 10.3319 160.092 13.2709 160.728 14.974C161.49 17.0134 161.576 17.1542 161.747 17.3076C163.089 18.5102 163.824 20.0311 164.257 21.2425C164.709 22.5087 164.983 23.8763 165.161 25.1897C165.515 27.815 165.556 30.8387 165.485 33.6938C165.413 36.5822 165.22 39.5001 165.051 41.9423C165.039 42.1115 165.027 42.2775 165.016 42.4402C164.856 44.7424 164.742 46.3992 164.742 47.3714C164.742 47.6023 164.749 47.8684 164.756 48.1644C164.807 50.094 164.892 53.2992 163.284 56.3716C162.746 57.3988 162.475 58.681 162.224 60.7271C162.193 60.9853 162.161 61.2645 162.127 61.5611C161.928 63.3098 161.66 65.661 160.947 67.8559C159.767 71.493 157.67 74.7543 155.675 77.5094C154.771 78.7588 153.828 79.9813 152.955 81.1134C152.855 81.2435 152.755 81.3724 152.657 81.5C151.68 82.7686 150.806 83.9149 150.044 85.0121C149.911 85.2032 149.779 85.3934 149.648 85.5826C146.512 90.104 143.733 94.1102 138.898 98.0674C133.924 102.139 129.342 105.978 125.033 110.339C124.746 111.123 124.454 111.903 124.156 112.677C122.55 116.856 120.711 121.065 118.433 125.034C118.666 125.127 118.898 125.223 119.128 125.321C120.661 125.237 122.418 125.047 124.458 124.822L124.53 124.814C127.154 124.525 130.165 124.194 133.163 124.13C139.058 124.004 146.34 124.858 151.441 130.571C153.991 133.427 155.508 136.873 156.419 140.407C159.672 144.005 162.065 148.538 163.434 152.967C163.886 154.428 164.392 155.679 164.975 157.118C165.365 158.082 165.789 159.129 166.253 160.38C167.282 163.149 168.291 166.459 168.291 170.126C168.291 172.887 167.411 175.555 166.584 177.616C166.042 178.964 165.333 180.475 164.767 181.68C164.508 182.231 164.279 182.719 164.11 183.098C163.914 183.536 163.717 183.983 163.518 184.435C161.578 188.833 159.382 193.811 155.501 197.723C154.124 199.112 151.904 201.25 149.463 203.071C148.242 203.982 146.859 204.895 145.411 205.597C144.02 206.272 142.206 206.933 140.218 206.933C132.351 206.933 121.462 206.354 113.141 202.212C113.046 202.165 112.95 202.117 112.853 202.069C109.632 200.468 105.323 198.326 102.195 194.106C101.894 195.605 101.494 196.982 101.154 198.154C101.115 198.289 101.076 198.422 101.039 198.551C100.421 200.69 100.01 202.27 99.955 203.871C99.838 207.279 99.1424 210.552 98.5482 213.341L98.5438 213.362C97.9204 216.289 97.4068 218.701 97.2895 221.066C97.1941 222.989 97.0455 225.724 96.7315 228.456C96.4302 231.078 95.9307 234.159 94.9709 236.578C94.5078 237.745 94.3575 239.187 94.175 241.575C94.1687 241.658 94.1623 241.742 94.1558 241.828C93.9998 243.89 93.7809 246.783 92.703 249.499C92.1579 250.873 91.7491 253.092 91.488 255.848C91.2493 258.368 91.1648 260.941 91.0931 263.127L91.0807 263.503C90.9782 266.604 90.2535 269.586 89.6611 272.024C89.6219 272.185 89.5833 272.344 89.5455 272.501C88.891 275.208 88.4211 277.348 88.4211 279.462C88.4211 282.487 88.1865 285.392 87.9694 288.081L87.9612 288.183C87.7371 290.958 87.5337 293.515 87.5337 296.138C87.5337 305.511 87.3102 314.945 87.0885 324.282L87.0873 324.336C86.8656 333.675 86.6462 342.915 86.6462 352.021C86.6462 362.651 86.8668 373.188 87.0888 383.77L87.0904 383.843C87.3115 394.384 87.5337 404.971 87.5337 415.635C87.5337 418.396 85.2951 420.635 82.5337 420.635C79.7722 420.635 77.5337 418.396 77.5337 415.635C77.5337 405.076 77.3134 394.577 77.0915 384.001L77.091 383.98C76.8694 373.414 76.6462 362.773 76.6462 352.021C76.6462 342.797 76.8679 333.457 77.0886 324.159L77.0914 324.044C77.3134 314.688 77.5337 305.373 77.5337 296.138C77.5337 293.074 77.7702 290.145 77.9884 287.443L77.9936 287.378C78.2179 284.6 78.4211 282.057 78.4211 279.462C78.4211 275.996 79.1934 272.765 79.8256 270.15L79.8563 270.024C80.5183 267.286 81.0186 265.217 81.0862 263.172C81.0908 263.034 81.0954 262.892 81.1001 262.747C81.1702 260.602 81.2636 257.745 81.5326 254.905C81.8112 251.964 82.3149 248.566 83.4081 245.811C83.8713 244.644 84.0216 243.202 84.2041 240.813C84.2104 240.73 84.2168 240.646 84.2232 240.56C84.3793 238.498 84.5981 235.606 85.676 232.889C86.1184 231.774 86.5101 229.811 86.7969 227.315C87.0709 224.93 87.2073 222.474 87.3017 220.57C87.4596 217.388 88.1219 214.284 88.6917 211.615C88.7172 211.495 88.7425 211.376 88.7676 211.258C89.3842 208.364 89.8786 205.925 89.9609 203.528C90.0058 202.22 90.1778 200.971 90.4071 199.807C84.9453 207.176 76.4037 215.318 68.344 219.33C67.7464 219.628 67.115 219.895 66.5981 220.11C66.4771 220.16 66.3613 220.208 66.2495 220.255C65.8377 220.425 65.4809 220.573 65.1211 220.733C64.2761 221.109 63.9537 221.328 63.8866 221.373C63.8729 221.383 63.8699 221.385 63.8752 221.379C62.8365 222.414 61.6712 222.957 60.8554 223.264C60.1514 223.529 59.411 223.719 58.9744 223.832C58.9239 223.845 58.8774 223.857 58.8356 223.868C58.6866 223.907 58.5684 223.938 58.4691 223.966C57.6526 224.792 56.7415 225.244 56.1088 225.494C55.2626 225.829 54.4168 225.996 53.7282 226.09C52.3502 226.278 50.8466 226.272 49.5749 226.221C48.2632 226.169 46.9501 226.057 45.9177 225.967C44.7373 225.865 44.1628 225.818 43.9297 225.818C36.1456 225.818 26.8788 224.634 19.3467 218.072C18.6576 217.472 17.842 216.893 16.7819 216.161C16.697 216.102 16.6101 216.042 16.5215 215.981C15.5811 215.333 14.4459 214.551 13.3779 213.68C10.9348 211.687 8.35419 208.845 7.47162 204.397C7.21624 203.11 6.63239 201.729 5.79754 199.754C5.62285 199.341 5.43718 198.902 5.24123 198.432C4.2764 196.119 2.98809 192.88 2.98809 189.508C2.98809 189.215 2.98619 188.91 2.98424 188.594C2.95784 184.342 2.91993 178.235 7.36443 173.257C9.22621 171.171 10.9333 168.777 12.8403 166.102C13.208 165.586 13.5832 165.06 13.9683 164.524C16.2453 161.352 18.8446 157.868 21.9646 155.009C28.1122 149.375 34.5615 143.485 43.0091 140.79C42.1965 140.372 41.4028 139.959 40.6393 139.561C39.4229 138.927 38.283 138.332 37.2643 137.825C33.622 136.012 30.4472 132.754 28.3629 129.903C28.3493 129.889 28.2885 129.826 28.1369 129.71C27.9205 129.545 27.7045 129.403 27.3262 129.155C27.2307 129.093 27.1249 129.023 27.0061 128.945L26.9643 128.918C26.0058 128.287 24.088 127.025 22.8881 124.741C21.8296 122.725 20.422 121.116 18.5477 118.974C18.3999 118.805 18.2492 118.633 18.0956 118.457C16.0998 116.17 13.701 113.333 12.0603 109.454C7.04028 97.5841 6.53788 85.1237 6.53788 72.9384C6.53788 68.7473 6.63101 63.6181 7.51559 58.6551C8.39416 53.7258 10.1373 48.4457 13.8231 44.3175C14.2606 43.8275 14.6538 43.3465 15.1142 42.7835C15.2861 42.5732 15.4675 42.3514 15.664 42.1135C16.3261 41.3116 17.1345 40.3604 18.0689 39.4822C20.0472 37.6227 22.7928 35.9107 26.6245 35.9107H38.1613C46.8859 35.9107 55.9503 38.4052 63.678 42.7328C64.0081 42.9177 64.3597 43.1131 64.7295 43.3187C67.3545 44.7779 70.8973 46.7474 74.2034 49.0713C77.8873 51.6609 81.9627 55.1456 84.1534 59.5621C84.3612 59.9812 84.5962 60.4108 84.8539 60.8489C85.2315 58.2291 86.0326 55.8357 86.7703 53.8017C87.0081 53.1461 87.2363 52.5333 87.4524 51.9528C88.2399 49.8379 88.8673 48.1528 89.2154 46.3983C91.2731 36.0271 98.0722 28.6617 103.536 22.743C104.351 21.8603 105.136 21.0098 105.871 20.1863C108.645 17.0793 112.895 15.0955 116.508 13.8154C120.29 12.4757 124.194 11.6291 127.004 11.1796C128.344 10.9651 129.684 10.5383 131.44 9.97859C131.843 9.85003 132.269 9.71445 132.721 9.57284C134.893 8.89314 137.697 8.07969 140.661 8.07969C141.003 8.07969 141.573 8.00687 142.587 7.79585C142.842 7.74281 143.158 7.67309 143.508 7.59585C144.268 7.42845 145.187 7.22577 145.986 7.08122ZM78.4263 69.2615C77.1983 67.5288 76.0507 65.7312 75.1949 64.0057C74.1495 61.8981 71.7879 59.5969 68.4526 57.2523C65.6115 55.2552 62.5607 53.557 59.9054 52.0789C59.5255 51.8674 59.1538 51.6605 58.7919 51.4578C52.4606 47.9122 45.0677 45.9107 38.1613 45.9107H26.6245C26.1218 45.9107 25.7049 46.0289 24.9176 46.7688C24.4692 47.1902 23.994 47.731 23.3749 48.4807C23.2474 48.6352 23.1092 48.8042 22.9628 48.9833C22.468 49.5887 21.8785 50.31 21.2825 50.9776C19.3488 53.1434 18.0845 56.3477 17.3604 60.4098C16.6424 64.4382 16.5379 68.8075 16.5379 72.9384C16.5379 85.048 17.1049 95.7092 21.2704 105.559C22.2396 107.85 23.6904 109.659 25.6292 111.88C25.801 112.077 25.9784 112.279 26.1603 112.486C27.9041 114.47 30.0653 116.928 31.6993 120.011C31.7609 120.065 31.9687 120.24 32.5049 120.593C32.5693 120.635 32.6456 120.684 32.732 120.74C33.536 121.255 35.217 122.333 36.4304 123.994C37.9799 126.116 40.0213 128.027 41.7206 128.873C43.0824 129.551 44.3978 130.238 45.7022 130.919C48.1312 132.188 50.5222 133.436 53.104 134.57C56.9726 136.268 60.4306 137.295 63.4536 137.295C64.3314 137.295 65.3461 137.428 66.2457 137.579C56.6678 126.511 47.3605 111.649 47.3605 94.5847C47.3605 88.8107 48.0501 83.8939 50.8369 79.8999C53.6177 75.9144 57.8989 73.703 62.7801 71.8106C67.3004 70.058 71.6165 68.9578 76.0971 69.0844C76.8804 69.1066 77.656 69.1658 78.4263 69.2615ZM64.5771 149.283H52.8042C43.56 149.283 37.3836 154.443 28.7207 162.382C26.4402 164.471 24.3643 167.19 22.0916 170.356C21.7555 170.824 21.4133 171.304 21.0649 171.794C19.1667 174.46 17.0859 177.383 14.8239 179.917C13.0635 181.888 12.9881 184.198 12.9881 189.508C12.9881 190.632 13.4587 192.157 14.4703 194.582C14.5981 194.888 14.7388 195.218 14.8875 195.565C15.7205 197.514 16.8042 200.05 17.2804 202.451C17.5386 203.752 18.2286 204.732 19.6993 205.932C20.4388 206.535 21.249 207.094 22.2597 207.791L22.4628 207.931C23.4954 208.644 24.7475 209.515 25.9152 210.532C30.696 214.697 36.9441 215.818 43.9297 215.818C44.6442 215.818 45.6695 215.908 46.5224 215.982C46.6106 215.99 46.6969 215.998 46.7809 216.005C47.8249 216.095 48.9234 216.187 49.9735 216.229C50.8478 216.264 51.5411 216.257 52.0391 216.217C52.7491 215.594 53.4866 215.194 54.0774 214.931C54.9307 214.552 55.7996 214.325 56.2871 214.198L56.3121 214.191C56.7702 214.072 57.0102 214.009 57.1745 213.958C58.4889 212.783 60.0515 212.043 61.0578 211.596C61.7951 211.268 62.2864 211.068 62.6851 210.906C63.1301 210.725 63.4599 210.591 63.8877 210.378C70.5762 207.049 78.5477 199.404 83.2584 192.62C84.58 190.717 85.7803 188.239 87.0616 185.593C87.5983 184.485 88.1492 183.348 88.7292 182.211C89.2665 181.158 89.8941 180.05 90.4916 179.003C90.5571 178.888 90.6224 178.774 90.6874 178.66C91.2344 177.702 91.7638 176.774 92.2669 175.839C93.4348 173.668 94.1838 171.942 94.4415 170.644C94.5979 169.855 95.1084 168.17 95.6541 166.368C95.7803 165.951 95.9084 165.528 96.0344 165.109C96.3924 163.917 96.7805 162.609 97.1669 161.252C96.2355 162.372 95.4767 163.87 94.4019 165.991C94.146 166.496 93.8722 167.037 93.5739 167.616C92.2099 170.264 90.1735 174.022 86.6562 176.295C86.6505 176.301 86.543 176.385 86.3302 176.595C86.0674 176.854 85.7541 177.196 85.4274 177.586C84.7178 178.432 84.2327 179.157 84.1007 179.408C82.9603 181.58 80.8522 182.983 79.8532 183.644C79.1957 184.078 78.7284 184.371 78.3771 184.592C77.8909 184.897 77.6266 185.063 77.3872 185.271C74.4739 187.809 71.0386 189.405 68.3819 190.639C67.7232 190.945 67.1123 191.229 66.5691 191.499C61.407 194.069 55.1965 194.838 50.4262 191.347C45.5247 187.76 44.3928 181.362 45.7305 174.62C46.4244 171.122 48.7157 168.554 50.1638 166.994C50.5685 166.558 50.9227 166.182 51.2335 165.852C52.3455 164.672 52.9025 164.081 53.2313 163.436C54.0413 161.848 55.467 160.151 56.5014 158.966C57.0767 158.307 57.6618 157.663 58.1671 157.106C58.6934 156.527 59.1066 156.071 59.4157 155.712C60.0603 154.962 60.6848 154.148 61.4106 153.202C61.7258 152.791 62.06 152.355 62.4234 151.889C63.0625 151.068 63.7873 150.161 64.5771 149.283ZM108.908 155.572C108.66 156.775 108.376 157.991 108.081 159.17C107.918 159.824 107.748 160.48 107.574 161.133C107.768 161.728 107.809 162.206 107.823 162.37C107.875 162.987 107.821 163.556 107.794 163.824C107.726 164.478 107.592 165.24 107.477 165.85C107.392 166.304 107.296 166.787 107.215 167.189C107.184 167.344 107.156 167.487 107.131 167.612C107.098 167.784 107.072 167.918 107.052 168.022C106.977 170.907 106.072 174.51 105.177 176.814C105.181 176.881 105.174 177.193 105.224 178.041C105.226 178.083 105.229 178.128 105.232 178.175C105.242 178.347 105.255 178.553 105.263 178.787C105.487 179.315 105.757 179.9 106.075 180.542C106.596 181.592 107.169 182.646 107.752 183.709L107.893 183.965C108.411 184.909 108.956 185.902 109.396 186.789C110.857 189.734 113.386 191.164 117.597 193.26C123.611 196.253 132.346 196.93 140.174 196.933C140.173 196.929 140.445 196.891 141.047 196.6C141.731 196.268 142.558 195.746 143.483 195.056C145.332 193.676 147.145 191.948 148.402 190.68C150.918 188.145 152.375 184.871 154.515 180.062C154.666 179.723 154.82 179.376 154.979 179.021C155.311 178.278 155.623 177.617 155.922 176.982C156.404 175.963 156.853 175.01 157.305 173.887C158 172.158 158.291 170.932 158.291 170.126C158.291 168.852 158.053 167.532 157.62 166.063C157.567 167.745 157.384 170.285 156.758 172.44C156.528 173.229 156.188 174.157 155.658 175.048C155.137 175.921 154.262 177.047 152.843 177.8C149.364 179.647 146.168 177.799 144.477 176.326C144.197 176.082 143.927 175.845 143.663 175.614C142.413 174.518 141.326 173.565 140.181 172.729C138.827 171.74 137.734 171.181 136.792 170.947C135.165 170.542 133.666 169.792 132.47 169.119C131.513 168.58 130.517 167.951 129.654 167.407C129.437 167.27 129.229 167.138 129.032 167.015C127.955 166.341 127.112 165.843 126.392 165.508C125.797 165.232 125.539 165.191 125.528 165.186C123.37 165.174 121.561 164.352 120.272 163.581C118.959 162.795 117.771 161.806 116.831 160.988C116.42 160.631 116.069 160.318 115.748 160.031C115.225 159.566 114.779 159.169 114.278 158.759C113.498 158.121 113.11 157.908 112.99 157.859C111.515 157.258 110.157 156.475 108.908 155.572ZM117.043 135.378C117.748 135.732 118.45 136.111 119.138 136.497C125.919 140.294 133.662 143.319 141.993 143.319C143.671 143.319 145.461 143.994 147.253 145.445C147.414 146.465 147.537 147.553 147.625 148.711C147.896 152.279 147.811 155.799 147.726 159.345C147.684 161.089 147.642 162.839 147.642 164.604C147.642 164.921 147.638 165.351 147.621 165.845C147.118 165.437 146.602 165.035 146.079 164.653C144.211 163.289 141.915 161.917 139.207 161.243C138.885 161.163 138.31 160.931 137.377 160.406C136.66 160.002 135.945 159.551 135.112 159.026C134.865 158.87 134.608 158.708 134.338 158.539C133.248 157.857 131.942 157.06 130.602 156.438C129.345 155.855 127.656 155.228 125.766 155.188C125.701 155.161 125.583 155.105 125.407 154.999C124.895 154.693 124.26 154.196 123.395 153.444C123.171 153.249 122.908 153.016 122.625 152.763C121.993 152.202 121.258 151.549 120.608 151.018C119.637 150.223 118.309 149.228 116.762 148.598C114.712 147.763 112.637 145.897 110.627 143.121C109.503 141.568 108.492 139.861 107.591 138.142C108.141 137.699 108.675 137.242 109.195 136.774C109.873 136.564 110.62 136.363 111.42 136.18C113.513 135.7 115.562 135.433 117.043 135.378ZM131.722 91.0192C132.003 90.7889 132.283 90.5589 132.564 90.3289C136.302 87.2699 138.368 84.2939 141.677 79.5281L141.83 79.3082C142.751 77.9825 143.766 76.6556 144.735 75.3975C144.834 75.2695 144.932 75.1421 145.03 75.0153C145.915 73.8661 146.765 72.7647 147.576 71.6443C149.4 69.1253 150.749 66.8854 151.436 64.7679C151.814 63.6056 151.956 62.3994 152.165 60.6283C152.206 60.2788 152.25 59.9073 152.299 59.5098C152.562 57.3632 152.979 54.4954 154.424 51.7345C154.588 51.4207 154.69 51.0774 154.735 50.4585C154.76 50.1185 154.767 49.7244 154.762 49.1959C154.761 49.0439 154.758 48.8513 154.755 48.6387C154.749 48.2415 154.742 47.7745 154.742 47.3714C154.742 46.0287 154.882 44.0147 155.028 41.9253C155.043 41.7015 155.059 41.4767 155.075 41.2519C155.244 38.8081 155.423 36.0889 155.488 33.4455C155.555 30.7688 155.498 28.366 155.25 26.5265C155.126 25.6074 154.974 24.983 154.839 24.6046C154.824 24.5638 154.811 24.5288 154.799 24.4992C152.813 22.5762 151.94 20.1061 151.501 18.8644C151.449 18.7161 151.402 18.5852 151.361 18.4749C150.837 17.0722 150.634 16.9459 150.447 16.8299L150.444 16.828C150.391 16.7946 149.871 16.5408 147.766 16.9215C147.13 17.0367 146.588 17.157 145.969 17.2945C145.569 17.3834 145.136 17.4794 144.625 17.5859C143.531 17.8138 142.102 18.0797 140.661 18.0797C139.365 18.0797 137.848 18.4466 135.708 19.1164C135.402 19.2123 135.075 19.3171 134.732 19.4273C132.959 19.9968 130.744 20.7083 128.583 21.054C126.2 21.4354 122.913 22.1555 119.848 23.2413C116.615 24.3867 114.365 25.6872 113.331 26.8463C112.444 27.8394 111.569 28.7983 110.715 29.7348C105.175 35.8061 100.494 40.9369 99.0242 48.3445C98.5025 50.9737 97.5088 53.6264 96.6889 55.8152C96.5051 56.3057 96.3301 56.773 96.1711 57.2114C95.2076 59.8676 94.6332 61.9128 94.6332 63.827C94.6332 66.8057 94.403 69.8172 94.1876 72.6327L94.175 72.7983C94.156 73.0471 94.1371 73.2945 94.1184 73.5407C95.53 75.9846 96.5579 78.6063 97.3788 81.161C98.5075 83.1469 99.3389 85.2309 99.9917 87.2668C100.181 87.858 100.359 88.4538 100.525 89.0505C101.263 87.8208 102.096 86.6328 102.922 85.5393C104.552 83.3791 106.452 81.2186 107.778 79.7102C108.226 79.2001 108.609 78.7646 108.894 78.4289C109.577 77.6239 110.107 76.8776 110.748 75.9759C111.214 75.3217 111.737 74.5856 112.419 73.686C113.768 71.9059 115.622 69.6909 118.144 68.1958C118.308 68.0982 118.523 67.9434 118.93 67.6497C119.164 67.4811 119.462 67.2667 119.849 66.9911C120.717 66.3747 121.894 65.5652 123.159 64.9042C124.321 64.2975 126.143 63.4946 128.206 63.4957C129.326 63.4963 130.604 63.7348 131.837 64.4397C133.082 65.1504 133.996 66.1726 134.625 67.2991C135.757 69.3278 136.871 71.637 137.131 74.3198C137.405 77.1463 136.686 79.7589 135.379 82.394C134.051 85.0716 132.86 87.9608 131.722 91.0192ZM83.7462 81.4048C83.7843 92.4663 86.4748 100.842 90.6347 109.643C91.5073 111.489 92.4183 113.043 93.2745 114.481C93.4153 114.718 93.6929 115.159 94.1207 115.604L94.1225 115.606C94.369 115.863 95.6474 117.192 97.8051 117.207C98.592 117.213 99.2664 117.055 99.8378 116.809C101.496 116.906 102.764 116.185 103.502 115.517C104.591 114.531 104.925 113.336 104.97 113.175C104.972 113.168 104.974 113.164 104.975 113.161C105.154 112.554 105.201 111.98 105.218 111.774L105.219 111.769C105.267 111.183 105.283 110.405 105.283 109.494C105.283 107.957 105.669 106.486 106.307 104.397C106.352 104.25 106.399 104.098 106.447 103.942C107.024 102.072 107.794 99.5762 107.938 96.8348C107.945 96.7097 108.049 96.1385 108.626 95.0363C109.168 94.0024 109.952 92.8238 110.903 91.5641C112.289 89.7282 113.738 88.0798 115.018 86.6251C115.554 86.015 116.061 85.4389 116.52 84.8974C117.41 83.8483 118.435 82.4216 119.293 81.2291C119.709 80.6495 120.086 80.1252 120.388 79.7266C121.585 78.1483 122.474 77.254 123.244 76.7974C123.688 76.5339 124.142 76.2164 124.491 75.968C124.668 75.8424 124.853 75.7093 125.03 75.5817L125.066 75.5553C125.259 75.4162 125.449 75.2798 125.643 75.1421C126.095 74.8204 126.521 74.5284 126.919 74.2761C127.086 74.7197 127.154 75.032 127.178 75.2841C127.216 75.6769 127.197 76.385 126.42 77.9504C123.98 82.8695 122.032 88.2328 120.235 93.5015C119.749 94.9267 119.276 96.3386 118.807 97.738C117.992 100.171 117.19 102.567 116.353 104.929C115.665 105.655 114.981 106.397 114.302 107.158C113.39 108.18 112.526 109.172 111.69 110.133C108.725 113.538 106.116 116.535 102.987 118.961C102.295 119.498 101.46 120.149 100.729 120.797C100.115 121.343 99.06 122.321 98.3774 123.562C98.0242 124.204 97.4663 125.454 97.6287 127.054C97.7528 128.276 98.2498 129.29 98.9096 130.073C98.6983 130.137 98.4861 130.206 98.2847 130.276C97.4686 130.559 96.1572 131.081 95.0024 132.096C93.8726 133.09 92.9531 134.514 92.6936 136.299C92.4301 136.3 92.1497 136.301 91.8519 136.301C90.6952 136.301 89.3861 136.363 88.1607 136.421C87.799 136.438 87.4446 136.455 87.1035 136.469C85.5075 136.538 84.0026 136.576 82.5891 136.497C79.5808 136.33 78.0464 135.682 77.2926 134.884C66.9588 123.953 57.3605 109.894 57.3605 94.5847C57.3605 89.3219 58.0689 87.0108 59.0379 85.622C60.0129 84.2246 61.8453 82.8983 66.3949 81.1343C70.2762 79.6296 73.1864 79.0061 75.8145 79.0805C78.1827 79.1474 80.6735 79.7921 83.7462 81.4048ZM95.4398 146.544C94.9227 146.665 94.2849 146.837 93.4251 147.112C91.5366 147.717 89.562 148.235 87.7025 148.723L87.5355 148.767C85.5804 149.28 83.7284 149.77 81.9282 150.346C78.3185 151.5 75.3258 152.883 73.0023 154.964C72.2435 155.644 71.3784 156.666 70.3113 158.035C70.0639 158.353 69.7984 158.699 69.521 159.06C68.7277 160.095 67.8376 161.255 66.9984 162.231C66.5956 162.7 66.0989 163.247 65.6221 163.772L65.5707 163.828C65.0574 164.394 64.5362 164.968 64.0349 165.543C62.9161 166.824 62.3072 167.651 62.139 167.981C61.0827 170.051 59.2437 171.967 58.0615 173.199C57.8476 173.422 57.6553 173.622 57.4929 173.797C56.0289 175.374 55.629 176.113 55.5393 176.566C54.5529 181.537 55.9576 183.003 56.3321 183.277C56.8377 183.647 58.6423 184.275 62.1129 182.547C63.1355 182.038 64.0526 181.608 64.8911 181.215C67.3082 180.081 69.0707 179.254 70.8187 177.731C71.476 177.159 72.2068 176.67 72.7514 176.318C73.0763 176.107 73.3145 175.957 73.5319 175.82C73.793 175.655 74.024 175.51 74.3393 175.301C74.8149 174.987 75.1208 174.759 75.3149 174.588C75.3334 174.572 75.3494 174.557 75.3631 174.545C75.9801 173.431 76.9131 172.176 77.7646 171.16C78.6045 170.159 79.8917 168.752 81.2188 167.902C82.2281 167.257 83.2365 165.846 84.6841 163.036C84.8668 162.682 85.0614 162.292 85.2685 161.878C86.4017 159.612 87.9096 156.597 89.897 154.371C90.1764 154.058 90.6964 153.338 91.55 152.08C91.717 151.833 91.8936 151.572 92.0775 151.299C92.7344 150.325 93.4857 149.212 94.2382 148.161C94.6151 147.634 95.0182 147.087 95.4398 146.544ZM96.935 133.497C96.9265 133.502 96.9228 133.504 96.9239 133.503C96.9248 133.503 96.9285 133.501 96.935 133.497ZM107.014 168.251C107.013 168.255 107.015 168.234 107.024 168.182C107.019 168.223 107.015 168.247 107.014 168.251ZM57.3701 213.889C57.3708 213.889 57.3651 213.892 57.3524 213.897C57.3634 213.892 57.3695 213.889 57.3701 213.889Z" fill="#FF671F"/>
<path fill-rule="evenodd" clip-rule="evenodd" d="M92.2227 399.224C88.1178 399.715 83.6633 400.247 79.0342 400.247C73.1258 400.247 67.6915 401.734 61.5244 403.421C59.6023 403.946 57.609 404.492 55.508 405.017C53.1356 405.611 50.8408 405.953 48.7623 406.243C48.4795 406.283 48.2018 406.321 47.9283 406.359C46.1261 406.608 44.5102 406.832 42.8779 407.166C41.5388 407.44 40.3073 407.829 38.8185 408.298C38.3804 408.437 37.9199 408.582 37.4279 408.733C35.4128 409.353 32.9923 410.029 30.2917 410.189C28.7382 410.281 27.1538 410.628 25.0834 411.081C24.9471 411.111 24.8086 411.141 24.668 411.172C22.5667 411.631 19.9507 412.185 17.2025 412.188C17.1756 412.192 16.9569 412.229 16.4713 412.483C15.8411 412.812 15.1265 413.304 14.1223 414.032C14.024 414.104 13.9219 414.178 13.8164 414.255C13.6659 414.364 13.5084 414.479 13.345 414.597C13.2499 414.844 13.1424 415.095 13.0828 415.213C12.9139 415.532 12.747 415.761 12.6988 415.827C12.6267 415.925 12.5655 416.001 12.5313 416.043C12.4226 416.176 12.3265 416.278 12.3147 416.291L12.3136 416.292C12.2676 416.341 12.2258 416.384 12.2161 416.394L12.2148 416.395C12.1983 416.412 12.181 416.43 12.163 416.448C12.1253 416.486 12.0843 416.528 12.039 416.575C12.1006 417.124 12.2409 417.662 12.4674 418.531C12.5378 418.8 12.6165 419.102 12.7038 419.446C12.8616 420.068 13.3655 421.249 14.1603 422.501C14.9945 423.814 15.7152 424.521 15.9692 424.689C20.5478 427.722 27.0954 429.054 33.0883 429.054C37.4793 429.054 41.7171 429.58 45.6278 430.065L45.8031 430.087C49.8556 430.59 53.5809 431.044 57.3866 431.044H63.1298C64.4616 431.044 65.8209 431.339 67.0605 432.111C67.5307 432.404 67.9198 432.729 68.2328 433.034H101.124C109.367 433.034 117.577 433.019 124.65 431.249C126.256 430.847 127.887 430.761 129.25 430.748C130.09 430.74 131.074 430.765 131.942 430.786C132.389 430.797 132.805 430.807 133.155 430.812C135.809 430.848 136.881 430.605 137.349 430.313C139.541 428.941 141.901 428.884 142.976 428.858C143.027 428.856 143.075 428.855 143.12 428.854C144.116 428.827 144.399 428.786 144.439 428.784C145.359 428.334 146.698 427.941 147.54 427.712C148.375 427.484 149.746 427.139 150.715 427.075C154.673 426.812 157.102 426.48 159.054 425.684C160.793 424.975 162.48 423.752 164.444 420.987C165.346 419.718 165.688 417.193 165.491 413.419C165.479 413.193 165.418 412.572 165.313 411.751C164.661 410.663 164.437 409.348 164.72 408.086C164.616 407.572 164.511 407.117 164.41 406.738C163.259 406.083 162.178 405.593 160.925 405.025C159.967 404.591 158.91 404.111 157.643 403.477C156.929 403.12 156.274 402.704 155.79 402.391C155.625 402.284 155.48 402.189 155.348 402.103C155.029 401.894 154.782 401.733 154.508 401.568C154.224 401.396 154.039 401.304 153.936 401.256C153.828 401.265 153.71 401.275 153.557 401.289L153.428 401.3C152.983 401.339 152.318 401.395 151.628 401.404C150.971 401.413 150.013 401.387 149.013 401.142C148.33 400.975 147.266 400.617 146.279 399.8C145.656 399.668 144.745 399.55 143.646 399.46C141.434 399.277 139.077 399.252 138.234 399.252H126.305C122.368 399.252 118.504 398.99 114.855 398.743L114.849 398.743C111.142 398.492 107.662 398.257 104.216 398.257C100.346 398.257 96.5009 398.713 92.2862 399.217L92.2227 399.224ZM167.251 432.436C167.251 432.478 167.251 432.52 167.251 432.561C167.251 436.736 167.038 440.828 166.816 445.046L166.81 445.163C166.592 449.305 166.368 453.577 166.368 457.935C166.368 459.199 166.103 460.553 165.68 462.394C165.644 462.549 165.607 462.71 165.568 462.876C165.197 464.474 164.716 466.543 164.607 468.62C164.544 469.832 164.52 471.274 164.498 472.546C164.485 473.332 164.473 474.053 164.453 474.615C164.391 476.393 164.252 477.838 163.92 479.149C162.833 483.434 162.833 487.709 162.833 491.558V491.767C162.833 492.49 162.893 493.512 162.94 494.311C162.962 494.671 162.98 494.986 162.989 495.206C163.024 496.064 162.998 496.552 162.965 496.801C162.918 496.883 162.88 496.943 162.819 497.039C162.756 497.138 162.669 497.276 162.523 497.516C162.062 498.272 161.066 499.94 161.066 502.215C161.066 503.383 160.145 505.556 157.851 508.463C155.745 511.131 153.173 513.568 151.429 515.139C151.264 515.288 151.105 515.432 150.951 515.57C148.777 517.533 147.694 518.51 146.471 518.904C146.472 518.903 146.446 518.912 146.384 518.926C146.357 518.933 146.326 518.94 146.291 518.947C146.245 518.957 146.192 518.967 146.13 518.979C145.905 519.02 145.623 519.061 145.263 519.105C145.107 519.124 144.793 519.159 144.425 519.2C143.827 519.267 143.088 519.349 142.656 519.405C141.696 519.53 140.525 519.715 139.379 520.053C138.274 520.379 136.799 520.957 135.525 522.105C134.78 522.776 134.194 523.031 133.51 523.193C132.689 523.388 131.816 523.445 130.225 523.548C130.002 523.562 129.763 523.577 129.509 523.594C128.125 523.686 125.877 524.133 123.936 524.622C122.911 524.88 121.841 525.182 120.87 525.512C120.016 525.802 118.906 526.221 117.973 526.793C117.935 526.806 117.746 526.871 117.328 526.925C116.721 527.002 115.925 527.02 114.932 526.978C114.01 526.94 113.069 526.859 112.067 526.773L111.849 526.754C110.851 526.669 109.668 526.569 108.634 526.569H97.5892C93.9829 526.569 90.3553 526.332 86.5683 526.082L86.4071 526.071C82.7261 525.828 78.8809 525.573 75.0581 525.573C71.9038 525.573 68.8237 525.033 65.3534 524.345C65.0088 524.277 64.6588 524.206 64.3039 524.135C61.2164 523.516 57.7561 522.823 54.1645 522.598C51.3342 522.421 48.0918 521.374 44.2617 519.898C43.5392 519.62 42.7857 519.322 42.0107 519.015C39.1001 517.863 35.887 516.592 32.8788 515.805C32.8135 515.759 32.7193 515.69 32.5943 515.59C32.2629 515.325 31.9919 515.08 31.6452 514.768C31.4431 514.585 31.2152 514.38 30.9346 514.133C30.623 513.86 30.2146 513.511 29.7772 513.194C29.4987 512.993 28.9506 512.61 28.2215 512.31C27.9033 511.62 27.5494 510.868 27.2016 510.19C26.9567 509.713 26.6755 509.194 26.3735 508.712C26.136 508.334 25.6816 507.64 25.025 507.028C25.0056 506.997 24.8727 506.813 24.6693 506.368C24.3893 505.755 24.1046 504.936 23.8284 503.952C23.3575 502.273 23.0194 500.526 22.7353 499.057C22.6819 498.782 22.6304 498.515 22.5803 498.261C22.3701 497.196 22.1583 496.208 21.9586 495.276C21.3529 492.45 20.8586 490.144 20.8586 487.786C20.8586 484.89 20.1768 482.168 19.5888 479.993C19.4839 479.606 19.3826 479.236 19.2854 478.882C18.7867 477.065 18.3984 475.65 18.2172 474.222C18.0552 472.944 17.9759 471.804 17.8867 470.521C17.8202 469.564 17.7481 468.527 17.632 467.296C17.3944 464.776 16.9841 461.843 15.8953 459.085C13.2842 452.469 11.1393 443.329 11.1393 436.541C11.1393 435.532 11.0662 434.446 10.9622 433.359C17.6931 437.612 26.1684 439.054 33.0883 439.054C36.8247 439.054 40.5117 439.507 44.5717 440.011L44.6544 440.021C48.5985 440.511 52.8971 441.044 57.3866 441.044H61.9144C62.0925 441.229 62.3042 441.428 62.5513 441.626C63.0832 442.052 63.7263 442.429 64.4875 442.686C65.2362 442.938 65.9749 443.034 66.6641 443.034L101.567 443.034C109.426 443.035 118.742 443.036 127.077 440.95C127.544 440.833 128.25 440.758 129.343 440.748C130.049 440.741 130.68 440.758 131.397 440.776C131.882 440.789 132.407 440.803 133.02 440.811C135.42 440.843 139.241 440.832 142.465 438.905C142.58 438.893 142.856 438.865 143.394 438.85C143.46 438.848 143.535 438.847 143.619 438.845C144.606 438.827 146.745 438.787 148.791 437.788C148.796 437.786 148.802 437.784 148.809 437.781C148.875 437.756 148.98 437.718 149.124 437.671C149.414 437.575 149.779 437.466 150.166 437.361C150.552 437.256 150.918 437.165 151.205 437.103C151.335 437.075 151.431 437.056 151.492 437.045C155.392 436.784 159.257 436.401 162.831 434.943C164.418 434.296 165.88 433.468 167.251 432.436ZM61.0304 439.951C61.0303 439.95 61.0381 439.96 61.054 439.981C61.0385 439.962 61.0305 439.952 61.0304 439.951ZM11.509 417.18C11.5094 417.18 11.5099 417.179 11.5103 417.178C11.5042 417.188 11.5033 417.189 11.509 417.18ZM0.994796 415.776C0.6317 415.186 0.386055 414.511 0.294424 413.779C-0.0484366 411.039 1.89487 408.539 4.63493 408.197C4.63493 408.197 4.7163 408.185 4.8983 408.113C5.08966 408.036 5.34699 407.911 5.68674 407.71C6.35262 407.316 7.0336 406.822 7.95904 406.149C8.05349 406.081 8.15049 406.01 8.25028 405.938C9.21736 405.236 10.4796 404.33 11.8444 403.617C13.2231 402.898 15.0499 402.188 17.184 402.188C18.7265 402.188 20.3749 401.874 22.5332 401.403C22.7107 401.364 22.8927 401.324 23.079 401.283C24.9791 400.864 27.3201 400.347 29.7 400.206C31.1489 400.12 32.6221 399.749 34.4862 399.176C34.8186 399.073 35.1734 398.961 35.5467 398.843C37.0993 398.351 38.9705 397.759 40.872 397.369C42.8464 396.965 44.8105 396.694 46.5901 396.449C46.8576 396.412 47.121 396.376 47.3797 396.34C49.4261 396.054 51.2653 395.771 53.0802 395.317C54.6832 394.915 56.3535 394.456 58.0802 393.98C64.4749 392.22 71.6441 390.247 79.0342 390.247C82.9983 390.247 86.8946 389.79 91.0998 389.287L91.2901 389.265C95.3495 388.779 99.7207 388.257 104.216 388.257C108.006 388.257 111.775 388.512 115.375 388.756L115.524 388.766C119.224 389.016 122.758 389.252 126.305 389.252H138.234C139.182 389.252 141.854 389.278 144.469 389.493C145.757 389.6 147.192 389.765 148.452 390.039C149.073 390.174 149.811 390.37 150.527 390.67C150.819 390.793 151.317 391.015 151.862 391.391C152.062 391.379 152.29 391.361 152.562 391.337L152.663 391.329C152.845 391.313 153.06 391.294 153.257 391.279C153.487 391.262 153.805 391.242 154.138 391.242C156.599 391.242 158.591 392.352 159.673 393.005C160.117 393.272 160.585 393.579 160.946 393.815C161.049 393.882 161.144 393.944 161.226 393.998C161.673 394.287 161.934 394.442 162.119 394.535C162.723 394.837 163.449 395.17 164.25 395.536C166.26 396.456 168.739 397.592 170.932 399.003C172.291 399.877 172.935 401.15 173.148 401.58C173.459 402.207 173.688 402.861 173.858 403.415C174.204 404.541 174.483 405.842 174.698 407.022C174.72 407.14 174.741 407.259 174.762 407.378C175.293 408.188 175.644 409.021 175.879 409.75C176.392 411.341 176.545 413.013 176.587 414.392C176.631 415.81 176.564 417.231 176.498 418.391C176.483 418.664 176.468 418.916 176.454 419.149C176.404 420.009 176.368 420.623 176.368 421.118C176.368 422.5 176.546 424.068 176.777 426.094C176.994 427.998 177.251 430.27 177.251 432.561C177.251 437.04 177.023 441.389 176.803 445.57C176.581 449.793 176.368 453.842 176.368 457.935C176.368 460.464 175.841 462.827 175.426 464.633C175.401 464.741 175.377 464.847 175.353 464.952C174.934 466.769 174.654 467.988 174.594 469.141C174.532 470.324 174.519 471.273 174.505 472.293C174.494 473.091 174.483 473.933 174.447 474.963C174.376 477.006 174.204 479.276 173.613 481.608C172.864 484.559 172.833 487.649 172.833 491.767C172.833 492.254 172.859 492.656 172.893 493.183C172.92 493.605 172.952 494.107 172.981 494.796C173.029 495.977 173.058 497.727 172.631 499.409C172.393 500.346 172.019 501.099 171.73 501.617C171.584 501.877 171.441 502.111 171.331 502.289C171.197 502.504 171.145 502.585 171.059 502.725C171.058 502.727 171.057 502.729 171.055 502.732C170.858 507.359 168.061 511.668 165.7 514.659C163.064 518 159.99 520.886 158.123 522.569C157.935 522.738 157.73 522.927 157.51 523.13C155.749 524.755 152.971 527.317 149.534 528.423C148.469 528.766 147.32 528.927 146.487 529.03C146.088 529.079 145.675 529.124 145.296 529.165L145.154 529.181C144.722 529.228 144.326 529.272 143.944 529.322C143.153 529.424 142.596 529.53 142.208 529.644C142.13 529.667 142.071 529.687 142.029 529.703C138.131 533.107 134.119 533.34 130.971 533.524C130.697 533.54 130.43 533.555 130.17 533.572C129.722 533.602 128.189 533.862 126.379 534.319C125.528 534.533 124.729 534.762 124.086 534.981C123.577 535.154 123.314 535.27 123.228 535.309C123.189 535.326 123.187 535.327 123.214 535.31C121.656 536.285 119.954 536.671 118.595 536.844C117.192 537.023 115.765 537.022 114.515 536.969C113.362 536.921 112.209 536.822 111.247 536.739C111.162 536.732 111.078 536.725 110.996 536.718C109.901 536.624 109.161 536.569 108.634 536.569H97.5892C93.5994 536.569 89.6459 536.307 85.9085 536.06C82.1141 535.809 78.5483 535.573 75.0581 535.573C70.8297 535.573 66.8993 534.846 63.4085 534.154C63.0617 534.085 62.72 534.017 62.3827 533.95C59.2012 533.315 56.4156 532.758 53.5401 532.579C49.0272 532.296 44.5128 530.711 40.6674 529.23C39.7228 528.866 38.8212 528.51 37.9553 528.169C35.0299 527.014 32.5107 526.02 30.1073 525.418C28.3973 524.99 27.0327 523.947 26.3438 523.396C26.1349 523.228 25.9146 523.043 25.6976 522.856C24.2469 522.918 23.1954 522.345 22.7379 522.052C21.8687 521.495 21.3621 520.787 21.2397 520.616L21.2299 520.602C21.0255 520.318 20.8625 520.043 20.7511 519.846C20.3585 519.153 19.9004 518.153 19.5359 517.358L19.4726 517.22C19.0541 516.308 18.6627 515.454 18.3036 514.754C18.1475 514.449 18.0267 514.232 17.9408 514.089C16.8137 512.965 16.0708 511.612 15.5741 510.525C14.9984 509.265 14.5515 507.905 14.2001 506.653C13.6059 504.534 13.1784 502.315 12.8994 500.867C12.8518 500.62 12.8085 500.395 12.7695 500.197C12.6396 499.539 12.4835 498.819 12.3173 498.052C11.666 495.045 10.8586 491.318 10.8586 487.786C10.8586 486.335 10.512 484.736 9.93542 482.603C9.8576 482.316 9.77384 482.013 9.68657 481.697C9.18865 479.897 8.57604 477.682 8.29674 475.48C8.11536 474.05 7.98746 472.297 7.87211 470.715C7.80522 469.798 7.74254 468.939 7.67611 468.234C7.46108 465.954 7.14986 464.165 6.5935 462.756C3.66248 455.329 1.13931 444.921 1.13931 436.541C1.13931 435.304 0.955962 433.699 0.691976 431.536C0.682432 431.458 0.672804 431.379 0.663108 431.3C0.420651 429.316 0.135138 426.981 0.0366794 424.649C-0.0735248 422.039 0.0108916 418.839 0.994796 415.776ZM17.8435 513.938C17.8436 513.938 17.8524 513.949 17.8699 513.976C17.8522 513.952 17.8435 513.939 17.8435 513.938ZM23.9171 521.297C23.9218 521.301 23.9274 521.305 23.934 521.31C23.8848 521.278 23.8775 521.269 23.9171 521.297Z" fill="#FF671F"/>
<path fill-rule="evenodd" clip-rule="evenodd" d="M334.125 79.4874C337.248 79.6272 340.721 80.1417 344.137 81.8501C348.103 83.834 350.118 87.5193 351.373 90.1593C351.706 90.8596 352.128 91.8159 352.501 92.6586C352.744 93.2087 352.965 93.7104 353.127 94.0609C353.671 95.2431 354.138 96.1222 354.614 96.7919C355.529 98.079 356.202 99.6681 356.699 101.078C357.225 102.566 357.677 104.212 358.045 105.825C358.765 108.974 359.269 112.458 359.269 114.879V130.609C361.887 127.678 364.885 125.913 367.583 124.324C367.892 124.143 368.197 123.963 368.497 123.784C369.128 123.408 369.774 122.868 370.563 122.082C370.958 121.689 371.35 121.273 371.8 120.795L371.84 120.753C372.262 120.305 372.741 119.796 373.238 119.299C375.32 117.22 378.376 114.659 383.113 114.362C386.142 114.173 389.545 114.632 392.67 115.767C395.764 116.892 399.017 118.844 401.183 121.978C402.558 123.968 402.972 126.432 403.133 128.26C403.309 130.268 403.245 132.449 403.089 134.48C402.775 138.559 402.037 142.627 401.631 144.68C400.975 148.004 399.604 151.423 398.438 154.331C398.236 154.834 398.041 155.321 397.856 155.79C396.481 159.284 395.573 162.042 395.49 164.485C395.311 169.727 392.893 172.949 390.149 175.207C389.173 176.01 388.078 176.75 387.213 177.335C387.027 177.461 386.852 177.579 386.691 177.69C385.665 178.393 384.917 178.952 384.31 179.559C383.886 179.984 383.36 180.543 382.772 181.169C381.425 182.602 379.749 184.385 378.202 185.707C375.754 187.798 372.357 189.972 367.963 189.972H361.201C361.594 190.939 362.067 191.959 362.608 193.045C363.028 193.89 363.563 194.908 364.125 195.978C364.969 197.584 365.875 199.308 366.549 200.74C367.063 201.834 367.817 202.867 368.873 204.314C369.291 204.888 369.758 205.527 370.275 206.261C371.79 208.408 373.847 211.54 374.258 215.241C374.384 216.372 375.048 217.975 376.527 220.31C377.43 221.736 378.345 223.015 379.348 224.417C380.071 225.428 380.84 226.503 381.684 227.744C385.011 232.638 389.667 240.295 385.699 248.331C381.805 256.218 373.836 257.58 368.405 257.58C366.362 257.58 363.337 257.471 360.321 256.951C357.523 256.468 353.777 255.484 351.12 253.092C347.321 249.672 343.815 246.424 340.109 242.671C337.759 240.291 335.833 237.484 334.198 235.102C334.032 234.86 333.869 234.623 333.709 234.391C331.852 231.699 330.289 229.564 328.447 227.952C326.973 226.662 325.542 224.746 324.267 222.65C324.253 222.707 324.239 222.764 324.225 222.82C323.556 225.527 323.046 227.71 323.046 230.21C323.046 236.491 322.512 242.707 321.924 248.759C321.824 249.782 321.723 250.799 321.623 251.811C321.123 256.851 320.635 261.771 320.389 266.746C319.844 277.794 318.338 289.221 316.896 300.16C316.552 302.769 316.212 305.351 315.889 307.893C314.305 320.373 314.211 332.947 314.211 346.038C314.211 349.218 314.591 351.632 315.032 354.401L315.038 354.436C315.481 357.22 315.978 360.342 315.978 364.432C315.978 366.245 315.834 368.467 315.699 370.561C315.628 371.658 315.559 372.721 315.515 373.671C315.368 376.807 315.429 379.293 315.873 381.042C317.169 386.145 317.745 393.778 317.745 398.733C317.745 401.073 318.113 403.442 318.567 406.311L318.578 406.382C319.009 409.11 319.512 412.287 319.512 415.635C319.512 418.396 317.273 420.635 314.512 420.635C311.75 420.635 309.512 418.396 309.512 415.635C309.512 413.164 309.139 410.717 308.69 407.873L308.653 407.639C308.231 404.973 307.745 401.903 307.745 398.733C307.745 394.19 307.19 387.477 306.181 383.503C305.34 380.191 305.376 376.399 305.526 373.203C305.591 371.805 305.675 370.545 305.752 369.377C305.872 367.56 305.978 365.968 305.978 364.432C305.978 361.183 305.595 358.731 305.156 355.973L305.139 355.864C304.701 353.109 304.211 350.032 304.211 346.038C304.211 332.986 304.294 319.821 305.968 306.633C306.305 303.983 306.655 301.327 307.005 298.671C308.441 287.763 309.878 276.851 310.401 266.253C310.66 261.007 311.178 255.798 311.678 250.755C311.777 249.76 311.875 248.772 311.971 247.791C312.556 241.772 313.046 235.97 313.046 230.21C313.046 226.373 313.85 223.121 314.504 220.475L314.517 220.421C315.199 217.66 315.696 215.602 315.696 213.308C315.696 210.378 315.805 206.637 316.187 202.916C316.451 200.347 316.862 197.608 317.528 195.088C317.448 195.17 317.362 195.26 317.27 195.358C312.498 200.43 308.044 205.19 303.426 210.388C302.906 210.972 302.361 211.594 301.793 212.241C298.695 215.77 294.902 220.09 290.757 223.65C285.889 227.83 279.69 231.73 272.497 231.73C265.143 231.73 259.689 229.878 253.642 226.275C249.608 223.872 247.548 220.526 246.629 216.824C245.882 213.819 245.891 210.478 245.898 207.652C245.899 207.378 245.9 207.109 245.9 206.845C245.9 200.937 248.422 194.522 251.431 189.151C254.49 183.693 258.457 178.6 262.132 175.291C264.537 173.126 266.746 171.336 269.486 170.269C272.241 169.197 275.067 169.036 278.288 169.036C282.285 169.036 286.388 169.36 290.215 169.663C292.007 169.805 293.739 169.942 295.37 170.039C295.826 170.066 296.355 170.112 296.933 170.178C293.406 166.247 289.081 161.934 285.356 159.606C278.803 155.509 275.302 148.378 273.682 141.33C272.047 134.208 272.14 126.421 273.432 119.875C274.669 113.611 278.341 108.231 281.815 104.322C282.644 103.389 283.515 102.333 284.48 101.156C284.558 101.061 284.635 100.967 284.714 100.871C285.594 99.7971 286.544 98.6379 287.521 97.505C289.61 95.0851 292.116 92.4347 294.965 90.5484C296.113 89.7889 296.958 88.9064 298.168 87.6422C298.63 87.1593 299.145 86.6207 299.752 86.012C301.706 84.0492 304.409 81.6506 308.439 80.6428C313.366 79.4108 318.556 79.4763 322.993 79.5324C323.88 79.5436 324.737 79.5544 325.555 79.5544C326.329 79.5544 327.259 79.5311 328.262 79.506C330.146 79.4587 332.286 79.4051 334.125 79.4874ZM313.236 185.717C313.125 185.644 312.997 185.567 312.851 185.483C312.537 185.303 312.22 185.141 311.785 184.918C311.704 184.877 311.619 184.834 311.529 184.787C311.051 184.542 310.448 184.229 309.824 183.85C309.777 183.839 309.705 183.825 309.605 183.81C309.223 183.754 308.819 183.73 308.156 183.692C308.025 183.684 307.883 183.676 307.73 183.667C306.953 183.62 305.795 183.544 304.636 183.273C303.482 183.003 301.988 182.468 300.662 181.276C300.61 181.248 300.496 181.189 300.299 181.11C299.875 180.938 299.291 180.759 298.584 180.593C297.158 180.258 295.647 180.072 294.779 180.021C292.72 179.899 290.774 179.744 288.882 179.593C285.298 179.307 281.905 179.036 278.288 179.036C275.237 179.036 274.016 179.236 273.113 179.588C272.196 179.945 271.137 180.64 268.823 182.723C266.11 185.165 262.788 189.341 260.155 194.04C257.473 198.826 255.9 203.454 255.9 206.845C255.9 206.981 255.9 207.114 255.9 207.245C255.899 210.539 255.899 212.662 256.334 214.414C256.686 215.832 257.276 216.8 258.76 217.684C263.547 220.536 267.253 221.73 272.497 221.73C276.066 221.73 279.958 219.743 284.242 216.063C287.802 213.007 291.049 209.313 294.162 205.772C294.763 205.089 295.359 204.411 295.951 203.745C300.672 198.433 305.21 193.582 309.987 188.506C310.939 187.494 311.972 186.503 313.236 185.717ZM327.251 187.984C328.626 188.998 329.043 190.367 329.143 190.698C329.433 191.669 329.405 192.591 329.394 192.914C329.342 194.536 328.852 197.066 328.199 198.726C328.199 198.726 328.199 198.725 328.199 198.725C328.201 198.726 328.149 198.895 328.114 199.32C328.076 199.789 328.073 200.379 328.102 201.104C328.126 201.726 328.168 202.351 328.215 203.029C328.223 203.146 328.231 203.265 328.239 203.385C328.29 204.145 328.347 205.034 328.347 205.851C328.347 207.119 329.158 210.099 330.769 213.589C332.377 217.073 334.117 219.625 335.033 220.427C337.93 222.962 340.123 226.076 341.941 228.714C342.084 228.92 342.224 229.124 342.362 229.325C344.104 231.856 345.533 233.931 347.225 235.645C350.735 239.2 354.079 242.301 357.811 245.661C358.25 246.056 359.574 246.674 362.022 247.096C364.252 247.481 366.649 247.58 368.405 247.58C372.757 247.58 375.463 246.477 376.732 243.904C377.862 241.616 377.068 238.74 373.415 233.367C372.864 232.557 372.201 231.626 371.505 230.648C370.334 229.001 369.067 227.221 368.079 225.661C366.429 223.055 364.708 219.844 364.319 216.345C364.218 215.435 363.609 214.159 362.104 212.025C361.855 211.673 361.564 211.275 361.247 210.843C360.039 209.194 358.463 207.044 357.5 204.997C356.841 203.597 356.201 202.389 355.503 201.07C354.939 200.006 354.337 198.87 353.656 197.502C352.316 194.81 350.944 191.703 350.296 188.426C350.071 187.285 349.76 185.626 349.984 184.148C350.119 183.262 350.547 181.709 352.012 180.523C353.455 179.355 355.018 179.265 355.774 179.286C356.519 179.307 357.186 179.46 357.489 179.531C357.659 179.57 357.835 179.614 357.977 179.649L358.015 179.659C358.177 179.699 358.316 179.733 358.458 179.766C359.001 179.892 359.483 179.972 360.012 179.972H367.963C368.883 179.972 370.016 179.548 371.707 178.103C372.875 177.106 373.799 176.113 374.876 174.957C375.566 174.217 376.319 173.409 377.238 172.489C378.534 171.192 379.924 170.204 381.04 169.44C381.305 169.258 381.55 169.092 381.778 168.937C382.607 168.375 383.215 167.962 383.795 167.485C384.899 166.577 385.437 165.847 385.496 164.143C385.644 159.787 387.196 155.572 388.551 152.128C388.782 151.542 389.007 150.976 389.225 150.43C390.402 147.478 391.361 145.07 391.821 142.743C392.2 140.825 392.849 137.207 393.118 133.712C393.254 131.957 393.281 130.38 393.171 129.136C393.072 128.006 392.894 127.597 392.905 127.592C392.905 127.592 392.905 127.592 392.905 127.592C392.273 126.721 391.064 125.824 389.254 125.166C387.425 124.501 385.397 124.239 383.737 124.343C382.678 124.409 381.824 124.857 380.306 126.373C379.92 126.759 379.533 127.17 379.08 127.651L379.076 127.656C378.641 128.117 378.145 128.644 377.622 129.166C376.57 130.214 375.257 131.397 373.615 132.375C373.423 132.489 373.236 132.601 373.053 132.71C368.877 135.193 366.66 136.511 364.912 139.955C363.621 142.497 362.154 144.898 360.77 147.126C360.59 147.415 360.412 147.701 360.236 147.984C359.022 149.933 357.893 151.746 356.871 153.6C356.575 154.135 356.293 154.666 356.026 155.194C355.473 157.464 354.892 160.36 354.35 163.078L354.337 163.139C353.962 165.019 353.578 166.942 353.27 168.019C353.203 168.252 353.049 168.784 352.788 169.313C352.786 169.317 352.783 169.323 352.78 169.329C352.698 169.497 352.269 170.382 351.346 171.114C350.788 171.557 349.62 172.279 347.978 172.203C346.837 172.15 345.938 171.736 345.285 171.268C345.193 172.572 345.133 173.657 345.133 174.533C345.133 178.503 342.609 181.847 340.537 183.82C339.385 184.917 338.064 185.895 336.684 186.624C335.38 187.313 333.641 187.984 331.74 187.984H327.251ZM346.603 151.697C346.08 152.79 345.59 153.92 345.152 155.091C344.998 154.474 344.812 153.876 344.587 153.308C343.63 150.885 342.307 148.781 340.379 147.292C338.372 145.741 336.193 145.226 334.246 145.156C332.453 145.091 330.674 145.405 329.379 145.637C329.259 145.658 329.141 145.679 329.026 145.7C327.739 145.931 326.727 146.113 325.685 146.178C321.026 146.469 317.732 149.067 315.676 152.356C313.743 155.45 312.811 159.246 312.361 162.785C312.013 165.523 311.922 168.386 311.992 171.132C309.435 168.881 306.973 166.42 304.8 163.976C301.158 159.877 295.838 154.365 290.657 151.126C287.239 148.989 284.736 144.783 283.429 139.091C282.138 133.472 282.196 127.115 283.243 121.813C283.988 118.038 286.369 114.251 289.29 110.964C290.27 109.862 291.261 108.657 292.214 107.496C292.288 107.405 292.362 107.315 292.435 107.225C293.33 106.133 294.201 105.07 295.092 104.039C297.059 101.759 298.832 99.9815 300.485 98.887C302.663 97.4453 304.561 95.449 305.928 94.0118C306.265 93.6577 306.569 93.3375 306.838 93.0679C308.434 91.4648 309.544 90.6746 310.866 90.3441C314.421 89.4548 318.054 89.4908 322.449 89.5343C323.443 89.5442 324.476 89.5544 325.555 89.5544C326.923 89.5544 328.082 89.5212 329.16 89.4903C330.709 89.4459 332.09 89.4063 333.678 89.4774C336.063 89.5841 337.983 89.9534 339.664 90.7938C340.393 91.1588 341.199 92.0489 342.341 94.4511C342.689 95.1838 342.935 95.7483 343.207 96.3693C343.44 96.9041 343.692 97.4808 344.043 98.243C344.666 99.5953 345.441 101.148 346.464 102.586C346.571 102.737 346.876 103.292 347.27 104.407C347.635 105.443 347.988 106.703 348.297 108.052C348.931 110.83 349.269 113.503 349.269 114.879V132.775C349.269 138.816 349.228 144.355 347.655 148.337C347.296 149.246 346.942 150.41 346.603 151.697ZM321.973 170.054C322.134 170.038 322.298 170.03 322.463 170.03C325.225 170.03 327.463 172.268 327.463 175.03C327.463 175.604 327.41 176.389 327.367 177.019C327.357 177.165 327.348 177.303 327.34 177.428C327.327 177.618 327.316 177.803 327.306 177.984H331.562C331.631 177.961 331.78 177.905 332.011 177.783C332.492 177.529 333.077 177.115 333.641 176.578C334.205 176.041 334.634 175.489 334.896 175.024C335.08 174.695 335.124 174.515 335.133 174.479C335.136 172.995 335.254 171.279 335.378 169.628C335.402 169.302 335.427 168.977 335.452 168.652C335.56 167.241 335.668 165.834 335.739 164.428C335.928 160.703 335.764 158.19 335.286 156.982C334.735 155.586 334.304 155.235 334.265 155.205C334.256 155.198 334.254 155.197 334.252 155.196C334.251 155.195 334.249 155.195 334.246 155.194C334.223 155.187 334.12 155.158 333.884 155.149C333.313 155.128 332.545 155.229 331.14 155.48C331.016 155.502 330.886 155.526 330.753 155.55C329.548 155.768 327.964 156.055 326.309 156.158C325.504 156.209 324.869 156.516 324.157 157.655C323.323 158.989 322.65 161.147 322.281 164.046C322.036 165.976 321.95 168.03 321.973 170.054ZM359.903 185.207C359.903 185.208 359.904 185.215 359.904 185.229C359.903 185.214 359.903 185.207 359.903 185.207ZM355.124 189.249C355.112 189.247 355.105 189.245 355.103 189.245C355.102 189.245 355.108 189.246 355.124 189.249Z" fill="#FF671F"/>
<path fill-rule="evenodd" clip-rule="evenodd" d="M326.244 394.771C322.7 395.249 318.82 395.773 314.925 395.773C312.122 395.773 309.099 396.389 305.471 397.158C305.374 397.178 305.276 397.199 305.178 397.22C301.839 397.928 297.917 398.76 294.074 398.76C291.022 398.76 287.762 399.201 284.092 399.708L283.907 399.734C280.426 400.215 276.551 400.751 272.78 400.751C272.469 400.751 271.883 400.931 269.837 401.826C269.782 401.85 269.725 401.875 269.667 401.9C268.102 402.587 265.477 403.738 262.577 403.738C261.626 403.738 260.673 404.023 259.025 404.692C258.867 404.756 258.696 404.827 258.515 404.902C257.106 405.485 255.036 406.342 252.745 406.661C252.712 406.676 252.461 406.756 251.925 406.999C251.228 407.315 250.364 407.759 249.459 408.265C248.561 408.767 247.683 409.296 246.961 409.765C246.601 409.998 246.299 410.204 246.064 410.374C245.948 410.458 245.857 410.526 245.791 410.578C245.731 410.625 245.706 410.647 245.706 410.647C245.706 410.647 245.706 410.647 245.707 410.646C243.674 412.471 241.247 412.517 240.263 412.481C239.943 412.731 239.597 412.988 239.238 413.24C239.124 413.755 238.989 414.243 238.854 414.686C238.902 415.282 238.951 415.854 238.996 416.36C239.023 416.653 239.051 416.962 239.078 417.25C239.127 417.783 239.17 418.242 239.178 418.39C239.233 419.443 239.509 420.725 239.988 421.823C240.493 422.979 240.996 423.43 241.175 423.536C255.515 432.056 271.786 435.385 289.062 436.518C300.755 437.285 312.51 437.041 324.338 436.796C330.186 436.675 336.052 436.553 341.937 436.553C343.936 436.553 346.003 436.165 348.646 435.65L348.808 435.618C351.253 435.141 354.225 434.562 357.316 434.562C358.993 434.562 361.394 434.516 363.708 434.294C366.221 434.052 367.902 433.66 368.59 433.317C370.789 432.221 373.163 431.738 375.231 431.465C376.759 431.264 378.413 431.147 379.874 431.044C380.351 431.01 380.807 430.978 381.231 430.945C383.118 430.798 384.603 430.62 385.81 430.295C386.988 429.978 387.565 429.606 387.873 429.295C389.3 427.854 391.122 426.288 392.744 424.894C393.619 424.142 394.436 423.44 395.102 422.834C397.312 420.823 398.997 418.958 400.082 416.826C400.119 416.753 400.267 416.394 400.399 415.727C400.523 415.101 400.598 414.384 400.599 413.691C400.6 412.993 400.525 412.465 400.439 412.143C399.978 411.754 399.403 411.312 398.699 410.771C398.213 410.398 397.666 409.978 397.053 409.495C395.688 408.421 393.674 406.799 392.481 405.126C391.873 404.273 390.638 403.634 387.422 402.872C387.131 402.803 386.812 402.73 386.475 402.653C385.274 402.379 383.836 402.05 382.552 401.646C381.054 401.174 379.279 400.465 377.68 399.227C377.672 399.227 377.663 399.226 377.654 399.226C377.031 399.189 376.278 399.229 375.144 399.288C375.039 399.293 374.93 399.299 374.818 399.304C373.707 399.362 372.11 399.441 370.622 399.252C369.468 399.105 367.385 398.686 365.748 397.071C365.726 397.063 365.703 397.055 365.679 397.047C365.086 396.846 364.221 396.625 363.203 396.417C362.209 396.213 361.186 396.045 360.329 395.93C359.902 395.872 359.535 395.83 359.25 395.803C359.006 395.781 358.881 395.775 358.849 395.773C358.839 395.773 358.838 395.773 358.844 395.773C356.307 395.773 353.916 395.123 352.213 394.661C352.141 394.641 352.071 394.622 352.001 394.603C350.046 394.073 348.852 393.781 347.753 393.781H337.106C333.686 393.781 330.268 394.228 326.531 394.732L326.244 394.771ZM378.065 399.275C378.063 399.276 378.038 399.272 377.994 399.259C378.044 399.267 378.066 399.274 378.065 399.275ZM401.421 430.602C400.418 431.503 399.529 432.261 398.702 432.966C397.371 434.099 396.202 435.096 394.979 436.331C393.003 438.326 390.6 439.362 388.407 439.952C386.244 440.534 383.969 440.762 382.011 440.915C381.412 440.962 380.847 441.001 380.308 441.04C378.943 441.136 377.741 441.221 376.539 441.379C374.905 441.595 373.801 441.893 373.054 442.266C370.565 443.507 367.238 444.001 364.665 444.248C361.891 444.515 359.128 444.562 357.316 444.562C355.282 444.562 353.193 444.952 350.559 445.465L350.355 445.505C347.927 445.979 344.982 446.553 341.937 446.553C336.493 446.553 330.858 446.669 325.123 446.786C313.044 447.034 300.521 447.291 288.408 446.496C271.36 445.379 254.335 442.171 238.823 433.703C238.989 434.923 239.052 436.201 239.079 437.333C239.103 438.317 239.103 439.351 239.102 440.247C239.102 440.583 239.102 440.899 239.103 441.186C239.105 441.745 239.112 442.208 239.127 442.586C239.135 442.772 239.144 442.918 239.153 443.029C239.163 443.145 239.17 443.192 239.17 443.187C239.784 446.981 240.609 451.424 241.771 453.772C243.063 456.382 243.571 459.483 243.862 461.97C244.009 463.234 244.116 464.499 244.211 465.626L244.219 465.729C244.32 466.921 244.406 467.927 244.517 468.801C244.64 469.761 244.768 471.172 244.895 472.559C244.991 473.621 245.087 474.669 245.177 475.488C245.441 477.882 245.759 479.603 246.129 480.536C249.116 488.079 252.448 499.105 253.353 507.744C253.393 508.117 253.428 508.482 253.463 508.839C253.609 510.32 253.741 511.666 254.046 512.956C254.384 514.384 254.745 514.827 254.802 514.898C254.813 514.911 254.813 514.912 254.801 514.903C255.067 515.089 255.324 515.27 255.572 515.445C258.481 517.492 260.255 518.74 262.456 519.289C269.173 520.965 275.926 521.187 283.871 521.187C288.309 521.187 292.685 522.018 296.51 522.744L296.64 522.769C300.675 523.534 304.108 524.174 307.383 524.174H356.133C357.07 524.174 358.284 524.298 359.268 524.399L359.298 524.402C359.389 524.411 359.481 524.421 359.572 524.43C360.598 524.535 361.621 524.64 362.619 524.704C363.73 524.776 364.593 524.781 365.186 524.721C365.201 524.72 365.216 524.718 365.23 524.717C367.934 522.545 371.391 521.284 373.929 520.358C374.208 520.256 374.476 520.158 374.731 520.064C378.034 518.838 379.961 517.93 381.088 516.665C382.497 515.084 384.411 513.831 385.89 512.898C386.368 512.597 386.824 512.315 387.264 512.043C388.389 511.348 389.409 510.717 390.431 509.986C393.266 507.959 394.214 506.448 394.214 504.78C394.214 500.311 395.476 496.011 396.52 492.453C396.558 492.323 396.596 492.193 396.634 492.064C397.774 488.172 398.65 485.019 398.65 481.879C398.65 478.029 398.871 473.92 399.086 469.906L399.101 469.621C399.324 465.461 399.538 461.385 399.538 457.484C399.538 453.016 400.004 448.831 400.439 444.932L400.456 444.781C400.903 440.769 401.312 437.04 401.312 433.09C401.312 432.255 401.355 431.418 401.421 430.602ZM365.602 524.654C365.603 524.655 365.58 524.663 365.527 524.674C365.574 524.658 365.6 524.653 365.602 524.654ZM228.692 412.638C228.705 412.887 228.72 413.136 228.735 413.38C228.726 413.405 228.717 413.429 228.708 413.454C228.682 413.524 228.656 413.596 228.629 413.669C228.489 414.05 228.334 414.473 228.195 414.875C228.03 415.353 227.848 415.91 227.705 416.479C227.572 417.01 227.41 417.788 227.41 418.652C227.41 419.057 227.355 419.856 227.26 421.176C227.173 422.383 227.067 423.871 227.016 425.343C226.965 426.784 226.959 428.403 227.117 429.849C227.196 430.57 227.333 431.412 227.598 432.241C227.783 432.819 228.135 433.733 228.841 434.607C228.849 434.647 228.857 434.692 228.866 434.741C228.983 435.402 229.052 436.357 229.082 437.576C229.103 438.428 229.102 439.261 229.102 440.111C229.102 440.478 229.102 440.849 229.103 441.226C229.107 442.287 229.12 443.688 229.298 444.787C229.84 448.13 230.841 454.233 232.809 458.209C233.284 459.168 233.655 460.789 233.929 463.132C234.058 464.232 234.153 465.357 234.251 466.529L234.255 466.568C234.351 467.713 234.454 468.94 234.597 470.064C234.724 471.055 234.806 471.999 234.9 473.079C234.987 474.082 235.085 475.202 235.237 476.583C235.498 478.946 235.911 481.895 236.831 484.218C239.64 491.31 242.633 501.396 243.408 508.786C243.432 509.016 243.457 509.278 243.485 509.566C243.627 511.054 243.837 513.238 244.315 515.259C244.863 517.577 246.029 520.965 249.059 523.09C249.346 523.291 249.643 523.503 249.95 523.721C252.565 525.584 255.904 527.962 260.036 528.992C268.039 530.988 275.859 531.187 283.871 531.187C287.261 531.187 290.761 531.831 294.776 532.593L295.057 532.646C298.825 533.362 303.103 534.174 307.383 534.174H356.133C356.456 534.174 357.107 534.23 358.281 534.35C358.375 534.36 358.472 534.37 358.57 534.38C359.568 534.482 360.778 534.607 361.977 534.684C363.272 534.767 364.774 534.812 366.178 534.672C367.315 534.559 369.559 534.239 371.303 532.674C372.58 531.528 374.584 530.784 378.026 529.507L378.209 529.439C381.208 528.327 385.53 526.712 388.554 523.318C388.907 522.922 389.673 522.335 391.224 521.357C391.543 521.155 391.899 520.936 392.279 520.701C393.482 519.958 394.929 519.064 396.248 518.12C399.728 515.631 404.214 511.514 404.214 504.78C404.214 501.844 405.076 498.817 406.231 494.875L406.275 494.724C407.345 491.071 408.65 486.616 408.65 481.879C408.65 478.3 408.858 474.421 409.079 470.3L409.087 470.156C409.307 466.038 409.538 461.697 409.538 457.484C409.538 453.6 409.946 449.907 410.394 445.889L410.401 445.824C410.839 441.893 411.312 437.652 411.312 433.09C411.312 431.732 411.488 430.279 411.719 428.373C411.938 426.575 412.199 424.411 412.199 422.137L412.199 421.991C412.2 420.697 412.201 417.978 411.968 415.398C411.849 414.077 411.652 412.578 411.288 411.239C411.107 410.571 410.839 409.77 410.419 408.991C410.191 408.569 409.834 407.994 409.296 407.433C408.863 406.582 408.266 405.721 407.434 404.975C406.639 404.261 405.445 403.342 404.38 402.522C403.969 402.206 403.577 401.905 403.236 401.636C402.532 401.082 401.916 400.577 401.418 400.126C401.172 399.903 400.98 399.716 400.836 399.563C400.765 399.488 400.712 399.429 400.675 399.384C400.637 399.34 400.622 399.319 400.624 399.321C397.594 395.071 392.706 393.847 389.728 393.141C389.251 393.028 388.814 392.928 388.407 392.835C387.304 392.583 386.421 392.38 385.555 392.108C384.424 391.751 383.933 391.444 383.725 391.256C381.825 389.551 379.423 389.312 378.238 389.243C377.018 389.171 375.672 389.244 374.667 389.298C374.54 389.305 374.418 389.312 374.303 389.318C373.332 389.368 372.678 389.384 372.217 389.361C371.629 388.837 371.054 388.517 370.733 388.348C370.11 388.021 369.459 387.769 368.889 387.576C367.737 387.186 366.418 386.868 365.209 386.62C362.904 386.148 360.187 385.773 358.844 385.773C357.761 385.773 356.578 385.483 354.616 384.951C354.552 384.933 354.486 384.916 354.419 384.898C352.709 384.433 350.309 383.781 347.753 383.781H337.106C332.912 383.781 328.845 384.33 325.197 384.822L325.195 384.822C321.431 385.329 318.133 385.773 314.925 385.773C310.958 385.773 306.958 386.62 303.573 387.338L303.398 387.375C299.751 388.148 296.784 388.76 294.074 388.76C290.264 388.76 286.363 389.299 282.868 389.782L282.722 389.803C279.048 390.311 275.804 390.751 272.78 390.751C270.14 390.751 267.614 391.872 266.166 392.515C266.046 392.568 265.934 392.618 265.829 392.664C263.955 393.484 263.15 393.738 262.577 393.738C259.53 393.738 257.015 394.716 255.266 395.425C255.103 395.491 254.946 395.555 254.796 395.616C253.138 396.291 252.269 396.644 251.311 396.764C250.008 396.926 248.647 397.506 247.8 397.889C246.767 398.357 245.642 398.942 244.579 399.537C243.029 400.403 241.237 401.499 239.951 402.458C239.549 402.446 238.904 402.442 238.252 402.532C237.293 402.664 236.049 403.021 234.887 403.949C233.915 403.751 232.807 403.817 231.727 404.321C230.474 404.905 229.808 405.826 229.518 406.299C229.205 406.81 229.041 407.275 228.957 407.545C228.838 407.932 228.763 408.326 228.716 408.681C228.366 409.479 228.22 410.378 228.336 411.305C228.394 411.775 228.516 412.222 228.692 412.638ZM240.681 402.47C240.683 402.471 240.659 402.474 240.603 402.476C240.652 402.47 240.68 402.469 240.681 402.47ZM371.7 389.298C371.702 389.297 371.731 389.302 371.78 389.317C371.723 389.307 371.698 389.3 371.7 389.298ZM400.384 411.969C400.376 411.953 400.372 411.944 400.372 411.944C400.373 411.944 400.377 411.952 400.384 411.969Z" fill="#FF671F"/>
<path fill-rule="evenodd" clip-rule="evenodd" d="M640.272 10.0026C639.873 10.003 639.476 10.0034 639.081 10.0034C638.827 10.0034 638.568 10.0032 638.304 10.003C635.119 10.0004 631.185 9.99714 627.338 10.3558C623 10.7603 619.645 11.5642 617.778 12.7268C616.054 13.7998 614.149 14.1547 613.185 14.3343C613.118 14.3469 613.055 14.3587 612.997 14.3698C612.422 14.4794 612.102 14.545 611.833 14.6229C611.652 14.6754 611.577 14.7115 611.564 14.7181C611.29 14.8885 611.001 15.0707 610.697 15.2616C608.509 16.6368 605.601 18.4647 602.881 19.5733C601.928 19.9617 600.681 20.9074 598.711 22.5979C598.535 22.7482 598.353 22.9058 598.164 23.0692C596.555 24.4597 594.465 26.266 592.303 27.4774C585.742 31.1536 579.462 38.4281 575.957 45.8933C575.673 46.4975 575.376 47.1207 575.071 47.7598C574.134 49.724 573.126 51.8381 572.216 54.0121C570.984 56.9532 570.181 59.4429 569.998 61.1873C569.668 64.3284 568.428 67.2826 567.511 69.4695C567.411 69.7073 567.315 69.936 567.224 70.1548C566.171 72.6983 565.591 74.4172 565.591 76.0717C565.591 78.8467 564.944 81.7216 564.367 84.0533C564.213 84.6761 564.064 85.2599 563.924 85.8116C563.482 87.5475 563.121 88.9656 562.925 90.2809C562.901 90.4442 562.872 90.7401 562.834 91.1699C563.18 90.6299 563.561 90.0899 563.985 89.5622C564.634 88.7542 565.332 87.8475 566.064 86.896C567.558 84.9553 569.196 82.828 570.854 80.9706C573.014 78.5493 575.424 76.2033 577.679 74.0087C578.289 73.4144 578.889 72.8312 579.468 72.2606C582.288 69.4857 584.758 66.9076 586.676 64.2211C588.293 61.9562 590.477 60.3101 592.399 59.1068C594.13 58.0236 595.958 57.1173 597.361 56.4219C597.523 56.3417 597.679 56.2643 597.829 56.1897C598.64 55.7854 599.36 55.3409 600.258 54.7857C600.919 54.3773 601.677 53.9089 602.64 53.3525C604.388 52.3424 607.079 50.8942 609.928 50.7063C610.796 50.6491 611.981 50.3337 613.829 49.7246C614.097 49.6363 614.381 49.5409 614.678 49.4411C616.19 48.934 618.045 48.3115 619.864 47.9088C622.086 47.4165 624.816 47.1065 627.629 47.8507C630.599 48.6365 633.159 50.4617 635.157 53.3417C639.713 59.9057 639.4 66.2971 637.835 71.8991C637.143 74.3776 636.173 76.8266 635.306 79.016C635.241 79.179 635.177 79.3406 635.114 79.5007C634.16 81.9128 633.335 84.0604 632.791 86.1973C632.14 88.7513 630.927 90.95 629.875 92.6951C629.468 93.3701 629.104 93.9518 628.771 94.4833C628.134 95.4997 627.613 96.3326 627.128 97.2834C626.823 97.8813 626.485 98.4486 626.127 98.9858C626.129 98.9832 626.132 98.9806 626.134 98.978C627.103 97.9527 628.152 97.0472 628.985 96.3279C629.052 96.2702 629.118 96.2138 629.182 96.1585C630.117 95.3499 630.796 94.7444 631.359 94.113C631.736 93.6912 631.978 93.214 632.525 92.1364C632.676 91.838 632.851 91.4936 633.058 91.0916C633.824 89.608 635.112 87.2465 637.585 85.5863C637.607 85.565 637.715 85.4678 637.909 85.2515C638.191 84.9366 638.527 84.5121 638.887 84.0111C639.624 82.9852 640.26 81.9162 640.563 81.3057C641.707 78.9972 643.62 77.6402 644.498 77.0174C644.577 76.9619 644.647 76.9122 644.707 76.8682C645.197 76.5126 645.378 76.36 645.486 76.2481C645.505 76.2288 645.516 76.2153 645.523 76.2073C646.917 72.6985 649.493 69.8128 651.196 67.9055L651.314 67.773C651.536 67.5248 651.773 67.102 652.323 66.1201C652.47 65.8572 652.64 65.5542 652.838 65.2037C653.213 64.5401 653.696 63.7124 654.263 62.9368C654.793 62.2121 655.604 61.2388 656.751 60.4836C656.75 60.4839 656.749 60.484 656.749 60.4838C656.744 60.4776 656.994 60.2467 657.461 59.53C657.996 58.7094 658.579 57.623 659.195 56.3508C659.805 55.0913 660.39 53.7725 660.956 52.4927L661.003 52.3884C661.528 51.2021 662.077 49.9617 662.564 49.0067C666.444 41.3958 670 32.6965 670 24.8826C670 20.6713 668.894 18.0169 667.44 16.2203C665.937 14.3616 663.685 12.9586 660.648 11.9575C654.676 9.98862 647.167 9.99591 640.272 10.0026ZM615.116 155.498C614.85 157.286 614.268 159.053 613.406 160.791C611.807 164.019 609.126 166.893 606.702 169.182C605.016 170.775 603.139 172.364 601.58 173.683C600.914 174.247 600.306 174.761 599.796 175.206C598.033 176.743 595.419 178.977 591.189 178.977C591.193 178.977 591.196 178.977 591.196 178.977C591.196 178.977 591.127 178.979 590.97 178.989C590.804 179.001 590.587 179.019 590.333 179.044C589.821 179.095 589.214 179.17 588.624 179.262C588.101 179.344 587.661 179.429 587.34 179.506C584.133 181.832 580.26 181.405 578.178 181.064C577.473 180.949 576.763 180.802 576.112 180.658C576.239 181.103 576.365 181.542 576.491 181.971C577.684 186.051 578.946 189.808 580.591 193.127C584.13 200.264 588.65 209.846 588.65 219.699C588.65 220.058 588.893 221.196 589.657 222.756C590.027 223.51 590.415 224.152 590.761 224.652C591.253 224.557 591.849 224.414 592.525 224.222C593.573 223.923 594.648 223.554 595.55 223.207C595.999 223.035 596.385 222.876 596.687 222.742C596.838 222.676 596.958 222.621 597.048 222.577C597.143 222.531 597.179 222.511 597.17 222.516C604.779 218.252 609.005 215.565 612.898 207.93C617.812 198.292 621.221 191.382 621.221 181.432V165.528C621.221 165.018 620.874 163.777 619.742 161.846C618.708 160.08 617.389 158.349 616.311 157.008C615.893 156.487 615.496 155.984 615.116 155.498ZM572.987 169.771C572.956 169.673 572.925 169.575 572.894 169.477C571.898 166.354 571.158 163.532 570.368 160.517C569.987 159.067 569.595 157.572 569.157 155.977C569.079 155.693 569.018 155.455 568.969 155.259C568.958 155.171 568.946 155.084 568.933 155C569.569 154.606 570.109 154.148 570.552 153.692C571.605 152.61 572.343 151.315 572.798 150.497C572.964 150.2 573.105 149.942 573.231 149.711C573.539 149.147 573.757 148.748 574.026 148.34C574.227 148.034 574.349 147.903 574.384 147.866L574.419 147.844C575.682 147.058 577.686 145.811 579.475 144.192C580.937 142.868 582.596 140.998 583.535 138.54C583.611 138.608 583.675 138.66 583.713 138.691C583.802 138.765 583.899 138.839 583.941 138.871L583.95 138.879L583.967 138.892C584.138 139.023 584.437 139.254 584.944 139.708C586.065 140.713 587.409 141.353 588.433 141.767C589.534 142.212 590.713 142.57 591.789 142.858C592.876 143.149 593.958 143.396 594.877 143.6C595.128 143.656 595.359 143.707 595.575 143.754C596.136 143.877 596.584 143.976 596.954 144.065C596.954 144.065 596.954 144.066 596.954 144.065C596.951 144.073 597.239 144.193 597.885 144.598C598.615 145.055 599.495 145.68 600.396 146.379C601.292 147.076 602.146 147.797 602.827 148.426C603.167 148.741 603.439 149.01 603.641 149.224C603.822 149.417 603.892 149.508 603.892 149.507C603.892 149.507 603.889 149.503 603.883 149.494C604.794 150.806 605.172 151.878 605.261 152.801C605.348 153.699 605.2 154.831 604.447 156.35C603.664 157.93 602.062 159.81 599.836 161.913C598.346 163.32 596.865 164.571 595.409 165.802C594.674 166.423 593.946 167.039 593.225 167.668C592.373 168.41 591.977 168.701 591.687 168.857C591.529 168.942 591.431 168.977 591.189 168.977C590.267 168.977 588.551 169.152 587.077 169.383C586.304 169.504 585.437 169.664 584.649 169.872C584.258 169.974 583.796 170.112 583.335 170.297C583.004 170.429 582.287 170.731 581.582 171.31C581.424 171.333 580.921 171.38 579.792 171.195C579.046 171.073 578.299 170.902 577.416 170.699C577.247 170.66 577.073 170.62 576.892 170.579C575.919 170.358 574.584 170.059 573.318 169.981C573.317 169.981 573.315 169.981 573.313 169.981C573.294 169.981 573.253 169.981 573.116 169.878C573.077 169.849 573.034 169.814 572.987 169.771ZM583.88 130.685C584.133 130.501 584.371 130.366 584.566 130.268C585.127 129.985 585.649 129.859 585.979 129.802C586.634 129.245 587.312 128.713 587.89 128.26C588.101 128.095 588.299 127.94 588.477 127.798C589.378 127.08 590.037 126.508 590.562 125.92C591.829 124.5 593.04 123.162 594.222 121.854C596.497 119.339 598.669 116.938 600.944 114.286C601.342 113.822 601.744 113.357 602.145 112.893C605.05 109.531 607.938 106.187 609.574 103.07C610.92 100.506 613.027 98.4735 614.51 97.0424C614.612 96.9446 614.71 96.8497 614.805 96.7576C616.534 95.0827 617.593 93.9698 618.219 92.741C618.909 91.3882 619.813 89.9414 620.562 88.7437C620.839 88.2998 621.095 87.8902 621.311 87.5322C622.242 85.9877 622.824 84.8125 623.101 83.727C623.823 80.8929 624.877 78.1939 625.815 75.8235L625.954 75.4719C626.872 73.1512 627.658 71.1633 628.204 69.2098C629.272 65.3827 629.244 62.3602 626.942 59.0432C626.167 57.9269 625.532 57.6399 625.071 57.518C624.454 57.3546 623.518 57.3417 622.026 57.6721C620.772 57.9499 619.521 58.3677 618.021 58.869C617.681 58.9826 617.328 59.1005 616.959 59.222C615.182 59.8077 612.88 60.5334 610.586 60.6846C610.586 60.6846 610.567 60.6859 610.524 60.6933C610.482 60.7007 610.422 60.7135 610.342 60.7348C610.179 60.7786 609.962 60.851 609.686 60.965C609.118 61.1993 608.446 61.5469 607.642 62.0115C607.232 62.2482 606.706 62.5698 606.125 62.9249C604.896 63.6753 603.422 64.5753 602.287 65.1408C602.132 65.2182 601.977 65.2949 601.824 65.3712C600.369 66.0939 598.99 66.7789 597.704 67.5838C596.274 68.4787 595.338 69.2976 594.815 70.031C592.357 73.4747 589.349 76.5667 586.483 79.3876C585.812 80.0481 585.152 80.6907 584.504 81.3214C582.291 83.4773 580.218 85.4959 578.315 87.6284C576.875 89.2424 575.661 90.8238 574.331 92.5572C573.545 93.5804 572.719 94.6566 571.782 95.8237C571.027 96.764 570.467 97.9172 569.705 99.6616C569.648 99.7923 569.589 99.9279 569.528 100.068C568.862 101.604 567.966 103.668 566.631 105.538C566.44 105.806 566.244 106.112 565.974 106.536C565.769 106.858 565.521 107.247 565.199 107.738C564.937 108.138 564.619 108.614 564.263 109.107C564.766 109.085 565.286 109.07 565.808 109.068C568.149 109.06 571.457 109.286 574.324 111.123C577.757 113.321 578.632 116.885 579.045 118.567L579.052 118.595C579.115 118.851 579.168 119.072 579.215 119.266C579.365 119.891 579.449 120.241 579.574 120.589C579.593 120.643 579.61 120.685 579.623 120.717C580.828 121.869 581.589 123.364 582.055 124.43C582.608 125.695 583.058 127.102 583.4 128.456C583.586 129.19 583.748 129.941 583.88 130.685ZM552.696 109.345C552.502 108.848 552.394 108.409 552.327 108.102C552.111 107.1 552.043 105.999 552.043 104.897C552.043 104.254 551.843 103.66 550.991 102.343C550.897 102.198 550.782 102.027 550.651 101.833C549.84 100.634 548.427 98.5437 547.813 96.1369C547.314 94.1771 545.721 91.9632 543.345 90.1629C540.932 88.3335 538.508 87.5325 537.088 87.5325C523.621 87.5325 510.604 98.7372 510.604 114.339C510.604 114.557 510.836 115.724 514.284 117.388C516.621 118.515 519.126 119.258 521.364 119.921C522.106 120.141 522.819 120.352 523.487 120.566C527.915 121.984 531.83 125.988 533.319 130.612C533.47 130.733 533.655 130.868 533.873 131.013C533.736 130.318 533.641 129.639 533.574 128.99C533.38 127.098 533.397 125.07 533.412 123.421C533.415 123.019 533.419 122.64 533.419 122.291C533.419 118.29 535.285 115.238 537.979 113.225C540.44 111.387 543.459 110.492 546.091 110.005C548.26 109.604 550.569 109.421 552.696 109.345ZM537.034 143.296C536.546 143.182 536.07 143.047 535.613 142.901C534.409 142.515 532.135 141.555 530.057 140.39C529.008 139.802 527.835 139.065 526.817 138.212C526.65 138.072 526.451 137.9 526.236 137.697C526.079 138.354 525.808 139.166 525.318 139.956C524.748 140.877 523.369 142.522 520.913 142.734C520.324 142.785 519.723 142.795 519.122 142.774C517.257 145.024 515.081 147.037 512.827 148.529C512.818 148.541 512.624 148.72 512.305 149.27C511.922 149.929 511.529 150.824 511.113 151.954C510.765 152.897 510.451 153.861 510.12 154.881C510.054 155.083 509.988 155.287 509.92 155.494C509.542 156.651 509.098 157.986 508.593 159.117C507.873 160.73 507.474 162.628 506.921 165.252L506.907 165.319C506.396 167.743 505.739 170.848 504.319 173.713C503.598 175.167 503.263 177.304 503.242 180.262C503.232 181.691 503.293 183.164 503.362 184.718C503.367 184.829 503.372 184.94 503.377 185.052C503.441 186.462 503.509 187.966 503.509 189.383C503.509 190.878 503.415 192.635 503.329 194.255C503.285 195.081 503.243 195.872 503.217 196.573C503.128 198.904 503.165 200.801 503.456 202.293C503.497 202.369 503.731 202.724 504.709 203.347C505.321 203.737 506.023 204.107 506.881 204.546C506.956 204.584 507.033 204.624 507.113 204.664C507.832 205.031 508.736 205.493 509.528 205.982C509.56 205.993 509.75 206.062 510.183 206.118C510.783 206.195 511.57 206.212 512.558 206.17C513.463 206.131 514.385 206.051 515.377 205.965C515.465 205.958 515.554 205.95 515.643 205.942C516.654 205.855 517.847 205.754 518.907 205.754C523.033 205.754 525.897 205.012 528.141 203.615C530.394 202.213 532.538 199.829 534.629 195.611C536.067 192.711 537.833 189.923 539.434 187.399C539.578 187.171 539.722 186.945 539.863 186.721C541.636 183.918 543.175 181.415 544.298 178.898C544.83 177.706 545.267 176.274 545.821 174.462C546 173.875 546.192 173.248 546.402 172.577C547.156 170.176 548.195 167.095 549.881 164.666C549.868 164.683 549.87 164.681 549.887 164.652C549.919 164.598 550.004 164.457 550.156 164.184C550.361 163.817 550.616 163.347 550.919 162.783C551.021 162.592 551.129 162.392 551.241 162.183C551.773 161.191 552.399 160.024 553.029 158.892C553.358 158.303 553.702 157.697 554.05 157.105C553.867 157.108 553.682 157.11 553.496 157.11C547.258 157.11 542.604 154.171 539.74 149.697C538.493 147.75 537.616 145.571 537.034 143.296ZM544.331 198.626C544.073 199.101 543.825 199.576 543.588 200.053C540.964 205.347 537.732 209.424 533.425 212.105C529.11 214.791 524.231 215.754 518.907 215.754C518.355 215.754 517.599 215.81 516.504 215.905C516.411 215.913 516.316 215.921 516.219 215.93C515.262 216.013 514.122 216.112 512.986 216.161C511.737 216.214 510.312 216.217 508.906 216.036C507.537 215.86 505.847 215.469 504.291 214.501C503.867 214.237 503.321 213.957 502.458 213.516L502.324 213.447C501.478 213.014 500.392 212.454 499.338 211.782C497.348 210.515 494.436 208.219 493.653 204.271C493.116 201.56 493.129 198.67 493.224 196.192C493.264 195.128 493.316 194.177 493.365 193.29C493.441 191.888 493.509 190.648 493.509 189.383C493.509 188.201 493.451 186.914 493.385 185.44L493.372 185.166C493.303 183.625 493.23 181.913 493.243 180.192C493.266 176.85 493.597 172.827 495.359 169.271C496.132 167.712 496.581 165.826 497.122 163.257C497.154 163.103 497.187 162.946 497.22 162.786C497.695 160.519 498.293 157.66 499.461 155.042C499.721 154.459 500.016 153.609 500.415 152.388C500.473 152.211 500.532 152.027 500.594 151.837C500.925 150.819 501.309 149.638 501.73 148.495C502.23 147.139 502.855 145.632 503.656 144.251C504.433 142.913 505.58 141.329 507.286 140.205C507.292 140.201 507.298 140.197 507.304 140.193C507.045 140.2 506.787 140.22 506.427 140.247C506.238 140.262 506.02 140.278 505.758 140.296L505.713 140.299C504.401 140.39 501.581 140.586 498.97 138.96C498.973 138.962 498.974 138.962 498.973 138.962C498.966 138.959 498.847 138.893 498.572 138.795C498.284 138.693 497.92 138.589 497.507 138.497C496.641 138.304 495.838 138.225 495.404 138.225C492.781 138.225 489.757 137.698 486.941 136.793C484.157 135.899 481.148 134.499 478.816 132.466C476.727 130.645 474.897 129.044 473.271 127.141C471.582 125.165 470.22 122.999 468.752 120.039C465.987 114.46 466 109.678 466.013 104.891C466.014 104.562 466.015 104.232 466.015 103.903C466.015 103.466 465.997 102.859 465.977 102.167C465.934 100.712 465.88 98.8794 465.958 97.4579C466.089 95.0462 466.582 92.0028 468.553 89.303C469.187 88.4354 469.656 87.5549 470.308 86.3323C470.453 86.0597 470.607 85.7702 470.775 85.46C471.621 83.89 472.736 81.9335 474.476 80.0927C475.63 78.8705 476.888 78.1015 477.597 77.6674C477.651 77.6349 477.701 77.6043 477.747 77.5756C478.51 77.1058 478.632 76.9868 478.721 76.8807C479.639 75.7917 480.632 74.073 481.861 71.6679C482.184 71.0362 482.526 70.3503 482.884 69.6339C483.775 67.8499 484.76 65.8763 485.775 64.0758C487.215 61.5229 488.999 58.78 491.29 56.644C493.661 54.4335 496.792 52.6834 500.726 52.6834C502.047 52.6834 503.426 52.3631 505.502 51.8406C505.569 51.8238 505.636 51.8067 505.705 51.7894C507.554 51.3231 510.043 50.6955 512.699 50.6955H525.312C531.364 50.6955 536.936 53.4362 541.341 57.0583C545.774 60.7027 549.425 65.5528 551.657 70.5557C552.308 72.0144 552.97 73.2393 553.715 74.6181C554.152 75.4253 554.617 76.2851 555.125 77.2755C555.23 77.4814 555.336 77.69 555.441 77.9013C555.539 77.2297 555.591 76.6223 555.591 76.0717C555.591 72.2074 556.956 68.8145 557.984 66.3301C558.05 66.172 558.114 66.0173 558.177 65.8661C559.223 63.3431 559.884 61.7473 560.053 60.1433C560.398 56.8574 561.701 53.2326 562.992 50.1496C564.006 47.7281 565.165 45.2978 566.118 43.3003C566.402 42.7054 566.667 42.149 566.905 41.6425C571.127 32.6532 578.711 23.6307 587.414 18.7537C588.639 18.0673 589.936 16.9526 591.747 15.3969C591.894 15.2704 592.044 15.1411 592.199 15.0088C593.945 13.5104 596.395 11.4178 599.107 10.3128C600.953 9.56032 603.039 8.25527 605.34 6.81554C605.651 6.62103 605.965 6.42406 606.284 6.22566C608.052 5.12474 609.968 4.76428 610.965 4.57674C611.02 4.56631 611.073 4.55642 611.122 4.54697C612.322 4.31808 612.494 4.23548 612.495 4.2362C612.495 4.23625 612.494 4.23677 612.492 4.23773C616.473 1.75924 621.855 0.823679 626.41 0.398994C630.75 -0.00566125 635.136 -0.000748398 638.273 0.00276542C638.552 0.0030787 638.822 0.00338054 639.081 0.00338054C639.568 0.00338054 640.074 0.00204539 640.596 0.000667809C647.124 -0.0165727 656.193 -0.0405219 663.779 2.46027C667.998 3.851 672.139 6.1288 675.215 9.93099C678.341 13.7953 680 18.7818 680 24.8826C680 35.2512 675.431 45.7853 671.473 53.549C671.125 54.2313 670.684 55.2229 670.1 56.5408L670.089 56.5674C669.535 57.8173 668.887 59.2815 668.195 60.7105C667.504 62.1368 666.709 63.6539 665.84 64.988C665.085 66.1485 663.961 67.6694 662.429 68.7166C662.405 68.7462 662.374 68.7866 662.335 68.8395C662.132 69.1181 661.885 69.5206 661.545 70.1218C661.46 70.2724 661.359 70.4532 661.25 70.65C660.999 71.1024 660.7 71.6398 660.433 72.0909C660.033 72.7648 659.479 73.6428 658.776 74.4308C656.868 76.5687 655.479 78.2289 654.815 79.9028C653.711 82.6871 651.669 84.1709 650.623 84.9308L650.587 84.957C649.791 85.5358 649.556 85.7401 649.504 85.7854C648.912 86.9704 647.984 88.4871 647.009 89.8444C646.151 91.0393 644.753 92.8375 643.163 93.8856C642.963 94.0174 642.637 94.3358 641.945 95.6777C641.87 95.8221 641.784 95.9955 641.687 96.1918C641.12 97.3367 640.167 99.2621 638.821 100.771C637.77 101.948 636.626 102.942 635.722 103.723L635.63 103.803C634.699 104.608 634.01 105.203 633.403 105.845C632.629 106.665 631.859 107.477 631.093 108.285C628.038 111.507 625.055 114.652 622.167 117.889C621.934 118.15 621.696 118.42 621.452 118.696C619.23 121.214 616.507 124.299 612.701 126.432C611.38 127.172 610.157 128.101 608.667 129.276C608.539 129.377 608.408 129.48 608.275 129.586C607.027 130.573 605.559 131.735 603.923 132.784C612.808 135.514 616.801 140.94 621.014 146.665C622.01 148.019 623.019 149.39 624.108 150.746C625.273 152.197 626.96 154.383 628.37 156.791C629.684 159.033 631.221 162.221 631.221 165.528V181.432C631.221 194.009 626.708 202.859 621.86 212.367L621.807 212.473C616.526 222.829 610.116 226.724 602.059 231.24C600.726 231.987 597.867 233.098 595.263 233.84C593.925 234.221 592.389 234.582 590.957 234.722C590.247 234.791 589.376 234.826 588.477 234.705C587.667 234.595 586.215 234.28 584.944 233.141C583.217 231.592 581.718 229.28 580.677 227.156C579.658 225.076 578.65 222.309 578.65 219.699C578.65 212.503 575.27 204.908 571.632 197.568C569.59 193.45 568.133 189.02 566.893 184.778C566.386 183.047 565.93 181.4 565.486 179.801C564.986 177.996 564.502 176.251 563.982 174.511C563.899 174.391 563.82 174.271 563.743 174.153C563.366 173.573 563.01 172.954 562.676 172.325C562.363 173.243 562.137 173.874 562.066 174.047C557.653 184.838 554.124 196.853 553.106 208.271C552.544 214.561 551.915 220.019 550.123 226.268C549.273 229.232 548.825 232.355 548.379 235.832C548.338 236.156 548.296 236.484 548.254 236.815C547.86 239.926 547.427 243.339 546.635 246.692C546.236 248.381 546.276 250.276 546.362 253.002L546.367 253.168C546.443 255.598 546.545 258.816 545.716 261.951C544.384 266.988 543.419 272.268 543.419 277.128C543.419 279.944 542.595 282.801 541.991 284.895C541.958 285.009 541.926 285.121 541.894 285.231C541.189 287.685 540.758 289.343 540.758 290.768C540.758 296.256 540.076 301.647 539.431 306.747L539.388 307.084C538.718 312.381 538.097 317.411 538.097 322.574V386.188C538.097 390.7 538.705 394.952 539.376 399.607L539.392 399.715C540.047 404.252 540.758 409.179 540.758 414.516C540.758 417.277 538.52 419.516 535.758 419.516C532.997 419.516 530.758 417.277 530.758 414.516C530.758 409.961 530.15 405.685 529.479 401.035L529.455 400.871C528.803 396.354 528.097 391.464 528.097 386.188V322.574C528.097 316.687 528.807 311.053 529.467 305.83L529.474 305.778C530.144 300.476 530.758 295.621 530.758 290.768C530.758 287.772 531.608 284.817 532.23 282.654L532.283 282.47C533.005 279.957 533.419 278.405 533.419 277.128C533.419 271.06 534.606 264.849 536.048 259.395C536.461 257.833 536.451 256.014 536.366 253.316C536.363 253.205 536.359 253.092 536.356 252.978C536.279 250.594 536.178 247.462 536.903 244.393C537.566 241.586 537.933 238.701 538.34 235.504C538.38 235.193 538.42 234.879 538.46 234.562C538.904 231.095 539.428 227.287 540.511 223.512C542.031 218.211 542.597 213.528 543.145 207.383C543.405 204.472 543.808 201.545 544.331 198.626ZM544.984 79.5017C544.169 77.9866 543.261 76.2821 542.524 74.63C540.921 71.0365 538.22 67.438 534.99 64.7827C531.734 62.1052 528.335 60.6955 525.312 60.6955H512.699C511.392 60.6955 510.024 61.0143 507.942 61.5382C507.88 61.5538 507.818 61.5697 507.754 61.5857C505.898 62.0535 503.4 62.6834 500.726 62.6834C500 62.6834 499.192 62.9487 498.11 63.9582C496.947 65.042 495.763 66.7235 494.485 68.9884C493.599 70.5598 492.803 72.1563 491.963 73.8382C491.577 74.6119 491.182 75.4036 490.765 76.2193C489.544 78.6081 488.103 81.2659 486.368 83.3248C485.166 84.7509 483.816 85.5827 483.039 86.0611L482.993 86.0891C482.133 86.6191 481.933 86.7606 481.745 86.9602C480.949 87.8026 480.339 88.7922 479.577 90.2056C479.469 90.4051 479.355 90.6206 479.234 90.8489C478.578 92.0873 477.722 93.7036 476.63 95.1994C476.326 95.6154 476.031 96.3767 475.943 98.0013C475.882 99.1121 475.915 100.005 475.954 101.071C475.983 101.865 476.015 102.755 476.015 103.903C476.015 104.061 476.015 104.217 476.015 104.371C476.013 109.563 476.013 112.169 477.712 115.597C478.931 118.056 479.867 119.468 480.873 120.645C481.942 121.895 483.203 123.024 485.387 124.927C486.335 125.754 487.96 126.617 489.999 127.272C492.006 127.917 493.993 128.225 495.404 128.225C496.71 128.225 498.254 128.419 499.679 128.736C500.966 129.022 502.625 129.51 504.047 130.345C504.176 130.352 504.482 130.361 505.068 130.32C505.164 130.313 505.281 130.305 505.411 130.295C505.935 130.254 506.695 130.196 507.387 130.19C508.321 130.182 509.558 130.25 510.873 130.672C511.033 130.723 511.194 130.775 511.357 130.827C512.338 131.142 513.37 131.473 514.419 131.776C514.797 131.16 515.21 130.58 515.668 130.066C515.938 129.763 516.32 129.374 516.817 129.001C514.733 128.353 512.202 127.486 509.938 126.394C506.322 124.649 500.604 121.035 500.604 114.339C500.604 92.8342 518.486 77.5325 537.088 77.5325C539.733 77.5325 542.459 78.2934 544.984 79.5017ZM546.448 139.563C546.801 141.495 547.392 143.103 548.162 144.305C549.281 146.053 550.836 147.11 553.496 147.11C555.211 147.11 556.783 146.909 558.664 146.657L558.823 146.636C560.276 146.441 561.944 146.218 563.769 146.142C563.855 145.999 563.951 145.831 564.061 145.634C564.13 145.51 564.21 145.362 564.3 145.197C564.655 144.546 565.155 143.627 565.677 142.835C566.361 141.799 567.421 140.421 569.034 139.417C570.382 138.577 571.692 137.748 572.763 136.778C573.851 135.794 574.185 135.109 574.26 134.747C574.256 134.764 574.257 134.756 574.258 134.723C574.261 134.619 574.272 134.266 574.203 133.611C574.119 132.817 573.948 131.865 573.705 130.905C573.461 129.938 573.172 129.076 572.893 128.437C572.741 128.089 572.633 127.904 572.59 127.832C571.263 126.57 570.569 125.102 570.161 123.966C569.833 123.049 569.589 122.022 569.426 121.339C569.395 121.205 569.366 121.084 569.34 120.98C569.1 120.003 568.934 119.626 568.871 119.508C568.503 119.302 567.652 119.061 565.844 119.068C564.955 119.071 564.025 119.128 562.969 119.196L562.827 119.205C561.868 119.267 560.753 119.339 559.704 119.339C559.114 119.339 558.472 119.33 557.792 119.321C554.85 119.281 551.193 119.231 547.909 119.838C545.906 120.209 544.635 120.735 543.964 121.237C543.526 121.563 543.419 121.767 543.419 122.291C543.419 122.832 543.415 123.338 543.411 123.819C543.399 125.39 543.39 126.682 543.522 127.967C543.685 129.549 544.024 130.483 544.459 131.093C545.433 132.457 546.34 134.033 546.697 135.725C546.934 136.848 546.946 138.234 546.448 139.563ZM568.843 119.462C568.843 119.461 568.847 119.465 568.853 119.475C568.847 119.468 568.843 119.462 568.843 119.462Z" fill="#FF671F"/>
<path fill-rule="evenodd" clip-rule="evenodd" d="M585.957 391.572C584.837 391.588 583.679 391.604 582.466 391.604C575.069 391.604 567.483 391.85 559.865 392.1L559.628 392.108C552.12 392.355 544.576 392.602 537.316 392.602C534.222 392.602 530.814 392.951 527.131 393.391C526.475 393.469 525.808 393.551 525.133 393.634C522.125 394.002 518.964 394.389 515.957 394.589C515.423 394.624 514.967 394.788 513.53 395.338C512.236 395.835 510.219 396.597 507.658 396.597C504.753 396.597 503.277 397.09 500.376 398.726C497 400.63 493.396 401.498 490.595 402.173C490.092 402.294 489.614 402.409 489.169 402.523C486.041 403.321 483.715 404.16 481.597 406.071C479.094 408.33 476.146 409.239 474.031 409.806C473.408 409.974 472.864 410.112 472.38 410.236C470.944 410.602 470.043 410.832 469.176 411.267C468.787 411.462 468.196 411.726 467.666 411.962C467.446 412.06 467.237 412.153 467.057 412.235C466.614 412.436 466.174 412.643 465.751 412.856C465.895 413.358 466.006 413.881 466.081 414.253C466.29 415.285 466.573 416.968 466.617 418.234C466.632 418.256 466.65 418.283 466.671 418.314C466.96 418.744 467.765 419.942 468.212 421.484C468.356 421.59 468.682 421.803 469.345 422.116C469.637 422.254 469.927 422.383 470.273 422.536C470.345 422.568 470.419 422.601 470.496 422.635C470.909 422.819 471.412 423.045 471.907 423.296C472.636 423.666 473.891 424.347 474.934 425.517C474.944 425.521 474.955 425.525 474.965 425.528C475.45 425.7 476.195 425.879 477.162 426.037C478.954 426.331 480.862 426.456 482.069 426.535C482.155 426.54 482.237 426.546 482.316 426.551C483.005 426.597 483.808 426.812 484.109 426.893C484.123 426.896 484.135 426.9 484.147 426.903C484.649 427.037 485.237 427.209 485.81 427.392C486.37 427.571 486.996 427.785 487.545 428.006C487.809 428.113 488.152 428.259 488.494 428.439C488.592 428.491 488.719 428.561 488.862 428.648C488.957 428.639 489.07 428.628 489.248 428.612C489.54 428.586 489.926 428.556 490.34 428.548C491.047 428.534 492.497 428.554 493.964 429.289C496.31 430.465 500.493 431.352 503.545 431.543C504.221 431.585 504.978 431.593 505.914 431.6C505.966 431.6 506.018 431.6 506.071 431.601C506.925 431.606 507.916 431.612 508.909 431.66C510.947 431.759 513.626 432.045 516.096 433.284C518.042 434.259 520.87 434.4 524.922 433.936C526.269 433.782 527.565 433.589 528.929 433.386C529.584 433.288 530.255 433.188 530.955 433.089C532.986 432.801 535.199 432.532 537.316 432.532H583.794C586.912 432.532 589.976 431.738 593.553 430.628C594.045 430.475 594.553 430.314 595.076 430.148C598.061 429.201 601.501 428.11 605.035 427.614C605.069 427.593 605.113 427.565 605.168 427.527C605.519 427.286 605.924 426.935 606.61 426.318C606.644 426.288 606.678 426.257 606.713 426.226C607.292 425.705 608.123 424.957 609.02 424.329C609.896 423.717 611.171 422.972 612.776 422.664C613.027 422.471 613.387 422.131 613.882 421.582C614.265 421.159 614.62 420.734 615.024 420.252C615.164 420.085 615.31 419.911 615.464 419.728C615.983 419.113 616.687 418.291 617.43 417.62C618.001 417.105 618.768 415.999 619.467 414.525C619.499 411.864 619.517 409.213 619.517 406.575C619.517 405.88 619.659 405.217 619.916 404.616C619.208 404.083 618.152 403.361 616.879 402.584C614.888 401.37 613.273 400.573 612.754 400.406C610.542 399.693 608.451 398.307 606.924 397.234C606.206 396.729 605.603 396.288 605.063 395.894C604.227 395.283 603.545 394.785 602.829 394.336C600.316 392.761 597.37 392.018 593.88 391.719C591.283 391.497 588.734 391.533 585.957 391.572ZM629.44 416.594C629.893 415.392 630.265 414.171 630.546 412.982C631.093 410.664 631.382 408.116 631.121 405.653C630.862 403.21 630.008 400.453 627.883 398.296C626.51 396.902 624.092 395.271 622.087 394.047C620.079 392.822 617.576 391.453 615.821 390.888C615.19 390.684 614.186 390.115 612.675 389.053C612.301 388.79 611.859 388.469 611.386 388.124C610.336 387.361 609.128 386.482 608.139 385.862C603.784 383.133 599.096 382.129 594.732 381.756C591.601 381.488 588.295 381.535 585.353 381.576C584.34 381.59 583.37 381.604 582.466 381.604C574.878 381.604 567.128 381.857 559.537 382.106L559.385 382.111C551.816 382.359 544.411 382.602 537.316 382.602C533.57 382.602 529.642 383.02 525.945 383.462C525.221 383.548 524.508 383.635 523.805 383.721C520.813 384.087 517.997 384.431 515.295 384.611C513.156 384.752 511.336 385.462 510.241 385.889C510.138 385.929 510.041 385.966 509.951 386.001C508.765 386.456 508.235 386.597 507.658 386.597C502.59 386.597 499.425 387.782 495.464 390.015C493.399 391.18 491.337 391.687 488.558 392.37C487.972 392.514 487.354 392.665 486.697 392.833C483.131 393.743 478.862 395.069 474.897 398.647C474.267 399.216 473.318 399.644 471.44 400.148C471.171 400.22 470.86 400.298 470.516 400.384C468.922 400.783 466.635 401.355 464.694 402.328C464.502 402.424 464.273 402.526 463.922 402.682C463.664 402.796 463.341 402.94 462.919 403.132C462.066 403.519 460.993 404.027 459.931 404.631C458.901 405.217 457.674 406.009 456.622 407.025C455.624 407.987 454.26 409.653 453.998 412.016C453.806 413.743 454.518 415.361 455.755 416.4C455.813 420.155 456.003 423.864 456.187 427.45L456.188 427.477C456.41 431.803 456.623 435.945 456.623 440.028C456.623 448.319 458.532 456.558 461.398 463.83C461.908 465.124 462.076 466.575 462.185 468.701C462.198 468.94 462.209 469.194 462.221 469.459C462.305 471.313 462.416 473.757 463.022 476.151C463.193 476.825 463.374 477.518 463.558 478.221C464.429 481.561 465.354 485.107 465.482 487.707C465.598 490.056 466.101 492.174 466.487 493.802C466.515 493.918 466.542 494.032 466.568 494.143C466.991 495.935 467.247 497.175 467.247 498.445C467.247 499.994 467.381 502.401 467.724 504.751C467.895 505.931 468.133 507.191 468.466 508.37C468.774 509.46 469.27 510.879 470.136 512.1C470.294 512.323 470.454 512.551 470.618 512.782C472.086 514.859 473.772 517.244 475.784 519.515C477.452 521.396 479.271 522.47 480.587 523.213C480.737 523.298 480.878 523.377 481.011 523.452C482.152 524.095 482.712 524.41 483.258 524.903C484.474 526 486.088 526.548 486.895 526.807C487.962 527.15 489.15 527.432 490.254 527.655C492.353 528.077 494.792 528.41 496.15 528.41C497.364 528.41 498.611 528.714 500.601 529.241L500.776 529.288C502.553 529.76 504.99 530.407 507.658 530.407H531.119C538.653 530.407 546.381 530.652 554.241 530.902L554.31 530.904C562.166 531.153 570.15 531.406 578.039 531.406C582.648 531.406 586.903 530.235 590.419 529.267L590.556 529.229C594.316 528.195 597.241 527.411 600.172 527.411C603.85 527.411 606.418 525.349 607.948 523.868C608.648 523.191 609.313 522.45 609.84 521.862C609.9 521.795 609.959 521.73 610.015 521.667C610.626 520.988 611.071 520.509 611.489 520.132C612.196 519.494 612.924 518.47 613.321 517.906C613.866 517.133 614.486 516.197 615.074 515.258C615.658 514.326 616.25 513.328 616.723 512.439C616.956 512 617.194 511.525 617.391 511.063C617.524 510.753 617.852 509.978 617.968 509.069C617.968 509.07 617.968 509.071 617.968 509.071C617.974 509.072 618.044 508.807 618.344 508.21C618.69 507.52 619.185 506.693 619.777 505.79C620.634 504.482 621.495 503.304 622.226 502.305C622.541 501.874 622.831 501.477 623.087 501.116C624.71 498.828 625.261 495.771 625.527 493.724C625.783 491.757 625.877 489.725 625.942 488.313C625.952 488.095 625.961 487.892 625.97 487.707C626.049 486.106 626.353 484.564 626.748 482.567C626.781 482.401 626.814 482.231 626.848 482.058C627.267 479.926 627.747 477.353 627.747 474.479C627.747 472.524 627.936 470.73 628.16 468.694L628.178 468.527C628.391 466.589 628.632 464.391 628.632 461.997C628.632 452.82 628.852 443.572 629.073 434.293L629.077 434.152C629.216 428.299 629.357 422.433 629.44 416.594ZM619.164 430.36C619.041 430.46 618.916 430.558 618.789 430.654C617.888 431.335 616.549 432.161 614.852 432.456C614.824 432.474 614.79 432.497 614.75 432.525C614.398 432.771 613.999 433.123 613.295 433.755L613.238 433.806C612.642 434.342 611.781 435.117 610.831 435.77C609.839 436.451 608.399 437.254 606.584 437.495C603.911 437.85 601.334 438.662 598.253 439.634C597.692 439.811 597.115 439.993 596.517 440.178C592.841 441.319 588.535 442.532 583.794 442.532H537.316C535.951 442.532 534.33 442.71 532.358 442.99C531.809 443.068 531.22 443.155 530.607 443.247C529.16 443.462 527.578 443.698 526.06 443.871C521.8 444.359 516.379 444.611 511.615 442.223C511.067 441.948 510.109 441.73 508.427 441.649C507.649 441.611 506.85 441.606 505.943 441.6L505.848 441.599C504.95 441.593 503.919 441.586 502.919 441.523C499.333 441.298 494.113 440.345 490.192 438.567C490.148 438.571 490.1 438.576 490.044 438.581C489.883 438.597 489.664 438.618 489.325 438.646C488.781 438.691 487.71 438.773 486.576 438.568C485.67 438.404 484.509 438.016 483.465 437.153C483.27 437.083 483.034 437.003 482.77 436.919C482.336 436.78 481.902 436.654 481.568 436.565C481.483 436.542 481.413 436.524 481.356 436.51C480.164 436.432 477.823 436.279 475.547 435.906C474.312 435.704 472.908 435.409 471.621 434.953C470.637 434.604 468.859 433.876 467.574 432.316C467.523 432.288 467.459 432.253 467.379 432.213C466.988 432.014 466.738 431.905 466.411 431.763C466.533 434.502 466.623 437.268 466.623 440.028C466.623 446.831 468.202 453.822 470.702 460.164C471.857 463.096 472.058 465.975 472.172 468.188C472.187 468.488 472.202 468.775 472.215 469.051C472.31 470.998 472.376 472.353 472.716 473.695C472.836 474.169 472.98 474.712 473.137 475.31C473.999 478.577 475.285 483.452 475.47 487.215C475.539 488.62 475.846 489.92 476.276 491.743L476.301 491.846C476.714 493.599 477.247 495.876 477.247 498.445C477.247 499.542 477.351 501.466 477.619 503.31C477.753 504.228 477.914 505.03 478.09 505.653C478.232 506.157 478.335 506.364 478.34 506.382C478.482 506.583 478.623 506.782 478.763 506.979C480.272 509.113 481.641 511.046 483.267 512.881C483.783 513.463 484.385 513.874 485.505 514.506C485.621 514.572 485.75 514.643 485.887 514.72C486.842 515.249 488.257 516.035 489.595 517.162C489.681 517.195 489.799 517.237 489.953 517.286C490.534 517.473 491.328 517.67 492.229 517.852C493.114 518.03 494.014 518.176 494.776 518.275C495.155 518.325 495.482 518.36 495.74 518.383C495.869 518.394 495.971 518.401 496.048 518.406C496.119 518.409 496.151 518.41 496.151 518.41H496.15C498.779 518.41 501.196 519.052 502.957 519.52C503.027 519.539 503.096 519.557 503.164 519.575C505.141 520.099 506.411 520.407 507.658 520.407H531.119C538.812 520.407 546.673 520.656 554.477 520.904L554.627 520.909C562.509 521.159 570.335 521.406 578.039 521.406C581.151 521.406 584.187 520.61 587.904 519.587C588.019 519.556 588.134 519.524 588.251 519.492C591.659 518.553 595.747 517.426 600.084 517.411C600.191 517.358 600.475 517.185 600.993 516.682C601.427 516.263 601.853 515.789 602.425 515.152C602.476 515.096 602.528 515.038 602.58 514.98C603.133 514.365 603.833 513.592 604.615 512.867C604.624 512.856 604.634 512.843 604.645 512.829C604.763 512.678 604.933 512.45 605.147 512.146C605.572 511.543 606.092 510.76 606.599 509.949C607.111 509.132 607.571 508.351 607.893 507.744C607.997 507.549 608.074 507.396 608.127 507.283C608.38 505.916 608.942 504.65 609.407 503.723C609.994 502.554 610.717 501.371 611.412 500.31C612.423 498.766 613.586 497.175 614.339 496.146C614.588 495.805 614.792 495.526 614.931 495.331C614.927 495.336 614.925 495.339 614.924 495.339C614.923 495.338 615.043 495.135 615.197 494.594C615.359 494.027 615.498 493.299 615.611 492.433C615.809 490.915 615.882 489.345 615.949 487.908C615.96 487.673 615.971 487.442 615.982 487.215C616.099 484.841 616.548 482.584 616.921 480.71C616.96 480.512 616.999 480.318 617.036 480.128C617.448 478.031 617.747 476.294 617.747 474.479C617.747 471.912 617.999 469.615 618.218 467.618L618.219 467.604C618.445 465.546 618.632 463.826 618.632 461.997C618.632 452.681 618.855 443.314 619.076 434.054L619.078 433.97C619.107 432.765 619.136 431.561 619.164 430.36ZM608.228 507.051C608.23 507.05 608.223 507.071 608.203 507.117C608.217 507.075 608.227 507.053 608.228 507.051ZM604.546 512.952C604.546 512.951 604.551 512.946 604.558 512.937C604.549 512.948 604.545 512.952 604.546 512.952ZM600.034 517.432C600.035 517.431 600.043 517.427 600.058 517.424C600.042 517.431 600.034 517.433 600.034 517.432ZM490.605 438.547C490.604 438.548 490.583 438.548 490.544 438.546C490.587 438.545 490.606 438.546 490.605 438.547ZM612.624 422.769C612.624 422.769 612.632 422.764 612.647 422.756C612.632 422.766 612.624 422.77 612.624 422.769Z" fill="#FF671F"/>
</svg>
