<svg width="678" height="716" viewBox="0 0 678 716" fill="none" xmlns="http://www.w3.org/2000/svg">
<path d="M658.858 680.976C658.858 678.16 658.559 675.472 657.962 672.912C657.364 670.352 656.426 668.091 655.146 666.128C653.866 664.165 652.244 662.629 650.282 661.52C648.404 660.325 646.1 659.728 643.37 659.728C640.724 659.728 638.42 660.325 636.458 661.52C634.495 662.629 632.874 664.165 631.594 666.128C630.314 668.091 629.375 670.352 628.778 672.912C628.18 675.472 627.882 678.16 627.882 680.976C627.882 683.707 628.18 686.352 628.778 688.912C629.375 691.472 630.314 693.733 631.594 695.696C632.874 697.659 634.495 699.237 636.458 700.432C638.42 701.541 640.724 702.096 643.37 702.096C646.1 702.096 648.404 701.541 650.282 700.432C652.244 699.237 653.866 697.659 655.146 695.696C656.426 693.733 657.364 691.472 657.962 688.912C658.559 686.352 658.858 683.707 658.858 680.976ZM610.346 622.608H628.522V655.888H628.778C630.996 652.475 633.983 650 637.738 648.464C641.578 646.843 645.546 646.032 649.642 646.032C652.97 646.032 656.255 646.715 659.498 648.08C662.74 649.445 665.642 651.536 668.202 654.352C670.847 657.168 672.98 660.795 674.602 665.232C676.223 669.584 677.034 674.789 677.034 680.848C677.034 686.907 676.223 692.155 674.602 696.592C672.98 700.944 670.847 704.528 668.202 707.344C665.642 710.16 662.74 712.251 659.498 713.616C656.255 714.981 652.97 715.664 649.642 715.664C644.778 715.664 640.426 714.896 636.586 713.36C632.746 711.824 629.844 709.221 627.882 705.552H627.626V714H610.346V622.608Z" fill="#003B5C"/>
<path d="M539.917 668.176C540.173 663.909 541.24 660.368 543.117 657.552C544.994 654.736 547.384 652.475 550.285 650.768C553.186 649.061 556.429 647.867 560.013 647.184C563.682 646.416 567.352 646.032 571.021 646.032C574.349 646.032 577.72 646.288 581.133 646.8C584.546 647.227 587.661 648.123 590.477 649.488C593.293 650.853 595.597 652.773 597.389 655.248C599.181 657.637 600.077 660.837 600.077 664.848V699.28C600.077 702.267 600.248 705.125 600.589 707.856C600.93 710.587 601.528 712.635 602.381 714H583.949C583.608 712.976 583.309 711.952 583.053 710.928C582.882 709.819 582.754 708.709 582.669 707.6C579.768 710.587 576.354 712.677 572.429 713.872C568.504 715.067 564.493 715.664 560.397 715.664C557.24 715.664 554.296 715.28 551.565 714.512C548.834 713.744 546.445 712.549 544.397 710.928C542.349 709.307 540.728 707.259 539.533 704.784C538.424 702.309 537.869 699.365 537.869 695.952C537.869 692.197 538.509 689.125 539.789 686.736C541.154 684.261 542.861 682.299 544.909 680.848C547.042 679.397 549.432 678.331 552.077 677.648C554.808 676.88 557.538 676.283 560.269 675.856C563 675.429 565.688 675.088 568.333 674.832C570.978 674.576 573.325 674.192 575.373 673.68C577.421 673.168 579.042 672.443 580.237 671.504C581.432 670.48 581.986 669.029 581.901 667.152C581.901 665.189 581.56 663.653 580.877 662.544C580.28 661.349 579.426 660.453 578.317 659.856C577.293 659.173 576.056 658.747 574.605 658.576C573.24 658.32 571.746 658.192 570.125 658.192C566.541 658.192 563.725 658.96 561.677 660.496C559.629 662.032 558.434 664.592 558.093 668.176H539.917ZM581.901 681.616C581.133 682.299 580.152 682.853 578.957 683.28C577.848 683.621 576.61 683.92 575.245 684.176C573.965 684.432 572.6 684.645 571.149 684.816C569.698 684.987 568.248 685.2 566.797 685.456C565.432 685.712 564.066 686.053 562.701 686.48C561.421 686.907 560.269 687.504 559.245 688.272C558.306 688.955 557.538 689.851 556.941 690.96C556.344 692.069 556.045 693.477 556.045 695.184C556.045 696.805 556.344 698.171 556.941 699.28C557.538 700.389 558.349 701.285 559.373 701.968C560.397 702.565 561.592 702.992 562.957 703.248C564.322 703.504 565.73 703.632 567.181 703.632C570.765 703.632 573.538 703.035 575.501 701.84C577.464 700.645 578.914 699.237 579.853 697.616C580.792 695.909 581.346 694.203 581.517 692.496C581.773 690.789 581.901 689.424 581.901 688.4V681.616Z" fill="#003B5C"/>
<path d="M0 0H157V582H505V714H0V0Z" fill="#003B5C"/>
</svg>
