<svg width="161" height="372" viewBox="0 0 161 372" fill="none" xmlns="http://www.w3.org/2000/svg">
<path fill-rule="evenodd" clip-rule="evenodd" d="M78.6388 180.01C69.8718 180.01 62.7018 186.847 62.1704 195.48C59.3134 192.169 55.1534 189.993 50.4395 189.774C41.3366 189.352 33.615 196.389 33.1929 205.492L30.6897 259.472C27.2934 255.434 22.0238 253.092 16.3791 253.668L14.8272 253.826C5.76151 254.75 -0.838664 262.848 0.0853356 271.914L5.05899 320.713C5.08429 320.961 5.11496 321.207 5.15089 321.451C5.86768 349.46 38.4949 372.01 78.6388 372.01C119.232 372.01 152.139 348.952 152.139 320.51C152.139 318.736 152.011 316.983 151.761 315.255C152.008 314.213 152.139 313.127 152.139 312.01V236.01C152.139 228.278 145.871 222.01 138.139 222.01C133.046 222.01 128.589 224.729 126.139 228.795V208.51C126.139 199.397 118.752 192.01 109.639 192.01C104.642 192.01 100.165 194.231 97.1388 197.739V196.51C97.1388 187.397 89.7515 180.01 80.6388 180.01H78.6388Z" fill="#79BF7F"/>
<path d="M63 209.01C63 221.216 64.7518 232.717 64.7518 244.702C64.7518 257.183 64.7518 269.664 64.7518 282.145" stroke="#47874C" stroke-width="6" stroke-linecap="round"/>
<path d="M96.2454 209.01C96.2454 221.75 96.6834 234.315 96.6834 247.11C96.6834 253.191 96.2454 259.446 96.2454 265.723C96.2454 268.861 96.2454 272 96.2454 275.138C96.2454 276.689 95.4668 283.727 96.6834 284.335" stroke="#47874C" stroke-width="6" stroke-linecap="round"/>
<path d="M126 236.01C126 252.169 126 268.162 126 284.183" stroke="#47874C" stroke-width="6" stroke-linecap="round"/>
<path d="M31.0881 272.01C31.0881 280.477 31.0881 288.943 31.0881 297.41C31.0881 299.742 30.3655 301.352 33.0588 301.352C35.0369 301.352 37.0123 301.261 38.7764 301.765C42.0669 302.705 44.9518 304.781 48.3624 305.755C51.866 306.756 55.0424 309.634 58.2403 311.327C60.805 312.685 63.8565 315.05 65.6853 317.336C67.8947 320.098 69.8252 323.383 72.157 325.974C73.3123 327.257 73.7818 329.537 74.7846 330.791C75.5792 331.784 75.1876 335.007 76.1958 335.511" stroke="#47874C" stroke-width="6" stroke-linecap="round"/>
<path d="M89 318.177C89.1451 316.872 91.4616 317.084 92.2845 316.425C93.0515 315.812 94.5817 315.141 95.1311 314.455C96.5087 312.733 100.046 313.194 101.603 311.949C103.433 310.484 107.49 311.17 109.802 311.17C110.967 311.17 112.309 311.249 113.184 311.949C113.524 312.22 116.852 312.353 115.714 312.922" stroke="#47874C" stroke-width="6" stroke-linecap="round"/>
<path d="M36.3896 24.5675C35.3694 24.2704 33.9986 23.7184 33.1769 22.974C32.0185 22.974 30.0442 24.7632 29.1498 25.5737L29.1148 25.6055C28.1572 26.4731 26.7422 27.6203 25.9484 28.6317C25.2235 29.5553 23.9862 30.6172 23.166 31.4532C22.2771 32.3593 21.8166 33.5304 20.9286 34.4355C18.9149 36.4881 17.5322 39.3473 16.1957 41.9206C15.8689 42.5497 15.3524 43.1081 15.0483 43.7626C14.852 44.185 14.532 45.3356 14.2021 45.6047C13.5744 46.1165 12.6076 48.7427 12.524 49.5519C12.3596 51.1442 11.3139 52.7182 10.9177 54.2885C10.5451 55.7654 10.4529 57.1501 10.1863 58.6451C9.87323 60.4 9.88432 61.4302 10.7743 62.9724C11.3305 63.9362 12.6221 65.2753 13.7001 65.5893C14.9878 65.9643 16.066 65.7911 17.0275 67.0512C17.9497 68.2598 19.1097 69.2899 19.5518 70.8668C20.0163 72.5241 20.3278 74.1854 21.1724 75.735C21.6045 76.5277 22.1647 77.7454 22.3198 78.6151C22.4315 79.2411 22.5218 80.0247 23.1087 80.3986C23.7441 80.8034 23.8612 81.7178 24.6576 82.1237C25.3164 82.4595 26.2662 83.1964 26.9811 83.2348C28.3539 83.3084 29.751 83.2348 31.126 83.2348C33.383 83.2348 37.1518 81.9838 38.8565 84.1558C39.244 84.6495 40.0167 84.7635 40.4055 85.4569C40.7044 85.9902 41.606 86.6572 42.0835 87.0358C43.0898 87.8336 43.5891 89.2284 44.4787 90.1351C45.4335 91.1084 46.0123 91.3905 47.2467 91.6701C48.2778 91.9036 49.7091 92.1488 50.2729 93.2344C51.7216 96.0235 50.7319 98.2196 50.7319 101.26C50.7319 103.567 51.8048 106.538 53.1988 108.365C54.9387 110.646 57.255 113.987 60.1404 114.827C61.1817 115.13 62.1006 116.044 63.1236 116.596C64.1645 117.158 65.2688 118.643 65.8343 119.681C67.4975 122.732 65.9791 126.691 66.9387 129.87C67.3459 131.219 66.9734 133.191 67.6415 134.417C68.0977 135.254 67.9155 136.27 68.043 137.18C68.1529 137.964 68.4606 138.774 68.545 139.548C68.7051 141.016 69.7537 142.514 69.8358 144.022C69.9121 145.421 70.3002 147.06 70.8685 148.364C72.0716 151.123 76.0134 151.522 76.8205 154.402C77.2661 155.991 79.4196 154.073 79.6316 153.1C79.8792 151.965 79.8946 149.53 79.3304 148.495C78.6682 147.28 77.9834 146.136 77.3225 144.957C77.0126 144.405 76.8209 143.727 76.548 143.101C76.2644 142.45 75.7536 142.092 75.3146 141.595C73.3222 139.338 77.8496 135.624 79.3878 134.753C80.9225 133.884 82.6745 133.04 83.9056 131.785C85.3557 130.307 86.4702 128.463 87.9071 126.917C90.0059 124.659 88.1827 121.172 89.9724 118.891C90.8302 117.798 92.4462 118.606 93.3285 117.707C94.2954 116.722 94.8207 114.416 95.2504 113.102C95.4741 112.418 95.1894 109.964 94.7484 109.155C93.965 107.717 94.3815 106.354 95.0783 105.076C95.737 103.867 97.6683 102.866 97.9611 101.524C98.2211 100.331 97.138 98.6446 95.9101 98.4973C94.3788 98.3137 92.9204 97.7079 91.2632 97.7079C89.9673 97.7079 87.8644 97.9468 86.7454 97.3131C85.9399 96.857 83.9315 96.4479 83.0021 96.3921C81.9046 96.3263 80.5256 95.1293 79.5312 94.5501C78.5221 93.9623 77.6475 92.618 77.5807 91.3923C77.5212 90.3014 75.7308 90.0766 74.87 90.0766C73.5063 90.0766 72.6976 88.7452 71.643 88.1761C70.1166 87.3524 69.106 87.182 67.3833 87.182C64.281 87.182 61.6203 85.6266 58.4194 86.7141C55.4946 87.7079 52.6383 87.7083 49.4985 87.7083C48.1914 87.7083 46.3335 87.3183 45.3679 86.334C44.7992 85.7544 44.874 84.8612 44.2779 84.2873C43.8829 83.9071 43.0051 83.7182 42.7289 83.3663C42.1385 82.6141 40.4055 82.7243 40.4055 81.3927C40.4055 80.623 40.3446 79.9781 40.721 79.2875C40.8809 78.9941 42.0541 77.1259 40.7927 77.8402C37.9165 79.469 34.0321 80.6691 30.8535 79.2291C28.3415 78.0911 29.4831 74.2338 29.5627 72.1241C29.6831 68.933 32.1085 66.5849 34.855 65.3407C36.6303 64.5365 38.6811 64.8144 40.6062 64.8144C41.1201 64.8144 44.3918 65.2866 44.5217 65.7501C44.8284 66.8441 48.6666 66.9441 48.6666 65.4723C48.6666 64.482 49.5816 63.1223 50.1582 62.3876C50.5072 61.9429 50.5153 61.1165 50.9901 60.6041C51.7215 59.8146 52.3932 58.6178 53.1844 57.9726C53.9177 57.3747 55.0088 55.6388 55.1206 54.7271C55.1319 54.6354 55.3735 54.9071 55.3788 54.8148C55.3986 54.471 55.6204 54.3127 55.637 54.0254C55.6795 53.2887 55.8569 53.158 56.3541 52.6512C57.2118 51.7769 58.3663 51.2034 59.3946 50.6045C61.8336 49.1839 62.9589 47.3935 64.6726 45.2099C65.3932 44.2918 66.3102 43.6431 67.1108 42.827C68.1751 41.7422 69.0613 42.1595 69.0613 40.3417C69.0613 38.8446 69.1128 37.9734 70.7394 37.9734C72.3621 37.9734 74.0241 38.1471 75.5154 38.2365C75.881 38.2585 76.9501 38.6526 77.3225 38.8213C77.9187 39.0914 78.6105 39.1191 79.2444 39.3037C79.5418 39.3904 80.0024 39.6858 80.374 39.9947C80.3406 39.7774 80.3046 39.5804 80.2196 39.4938C79.6522 38.9154 79.5232 39.1261 80.2196 38.5582C80.6372 38.2176 81.3363 37.8641 81.8403 37.5787C83.8649 36.4322 81.2249 36.7173 80.3631 35.9267C79.0209 34.6954 78.2091 34.3895 78.097 32.4473C78.0822 32.1901 74.9278 32.4473 74.3537 32.4473C73.6518 32.4473 72.5237 32.0293 72.0302 31.5263C71.6675 31.1565 71.0651 30.9607 70.596 30.7515C70.3632 30.6476 69.6849 30.6694 69.7785 30.5468C70.3765 29.763 67.4542 29.4965 66.867 29.962L66.8538 29.9724C66.3066 30.4063 65.7394 30.8559 65.4471 31.5263C65.2786 31.9127 64.8268 33.3265 64.5292 33.4999C63.4052 34.1546 63.3351 36.6514 62.55 37.6518C61.9494 38.417 60.454 38.7697 59.6241 39.0114C58.3206 39.391 57.4546 39.8154 55.9525 39.8154C55.1774 39.8154 54.5018 39.8435 54.1454 39.026C53.9247 38.5199 54.0609 37.3467 53.7725 36.9793C52.8135 35.7574 52.2226 35.6051 50.6028 35.6051C45.5801 35.6051 51.6626 30.3499 53.1844 29.1433C54.3124 28.2491 55.6848 26.9699 56.9278 26.3364C58.406 25.583 59.7637 25.5126 61.2018 25.0938C62.1181 24.8269 64.4994 23.8209 64.9881 22.974C66.1023 21.0433 62.7494 22.4477 61.7181 22.4477H59.5094C58.4414 22.4477 58.4767 22.3088 58.4767 21.2635C58.4767 19.8094 59.9646 19.5247 60.4847 18.2373C60.6145 17.9158 59.0449 17.8132 58.9931 18.7636C58.9429 19.6836 59.0304 20.0413 58.3477 20.7372C57.3534 21.7507 55.9871 22.5001 55.0633 23.4418C54.3531 24.1657 51.9545 23.8433 51.0474 23.5588C50.693 23.4476 47.5416 22.523 48.2794 21.9214C48.481 21.757 50.0944 20.4822 51.0139 19.7898C50.0488 19.923 48.297 19.5531 48.0212 19.5531C45.0869 19.5531 42.2096 19.2129 39.3728 19.5531C38.8861 19.6114 39.0628 20.9329 39.3154 21.1904C39.8577 21.7432 40.5361 21.3963 41.0509 21.8044C41.503 22.1629 42.0998 22.6911 42.5855 22.974C43.0221 23.2283 43.1206 24.0165 43.446 24.3482C44.5841 25.5083 44.8049 26.1318 42.858 26.1318H40.7927C40.2009 26.1318 39.8798 25.6359 39.3728 25.6055C38.1225 25.5305 37.4834 24.886 36.3896 24.5675Z" fill="#79BF7F"/>
<path d="M40.7927 26.1318C40.2009 26.1318 39.8798 25.6359 39.3728 25.6055C38.1225 25.5305 37.4834 24.886 36.3896 24.5675C35.3694 24.2704 33.9986 23.7184 33.1769 22.974C32.0185 22.974 30.0442 24.7632 29.1498 25.5737M40.7927 26.1318C41.4811 26.1318 42.1696 26.1318 42.858 26.1318M40.7927 26.1318H42.858M42.858 26.1318C44.8049 26.1318 44.5841 25.5083 43.446 24.3482C43.1206 24.0165 43.0221 23.2283 42.5855 22.974C42.0998 22.6911 41.503 22.1629 41.0509 21.8044C40.5361 21.3963 39.8577 21.7432 39.3154 21.1904C39.0628 20.9329 38.8861 19.6114 39.3728 19.5531C42.2096 19.2129 45.0869 19.5531 48.0212 19.5531C48.297 19.5531 50.0488 19.923 51.0139 19.7898M59.5094 22.4477C58.4414 22.4477 58.4767 22.3088 58.4767 21.2635C58.4767 19.8094 59.9646 19.5247 60.4847 18.2373C60.6145 17.9158 59.0449 17.8132 58.9931 18.7636C58.9429 19.6836 59.0304 20.0413 58.3477 20.7372C57.3534 21.7507 55.9871 22.5001 55.0633 23.4418C54.3531 24.1657 51.9545 23.8433 51.0474 23.5588C50.693 23.4476 47.5416 22.523 48.2794 21.9214C48.481 21.757 50.0944 20.4822 51.0139 19.7898M59.5094 22.4477C60.2456 22.4477 60.9819 22.4477 61.7181 22.4477M59.5094 22.4477H61.7181M61.7181 22.4477C62.7494 22.4477 66.1023 21.0433 64.9881 22.974C64.4994 23.8209 62.1181 24.8269 61.2018 25.0938C59.7637 25.5126 58.406 25.583 56.9278 26.3364C55.6848 26.9699 54.3124 28.2491 53.1844 29.1433C51.6626 30.3499 45.5801 35.6051 50.6028 35.6051C52.2226 35.6051 52.8135 35.7574 53.7725 36.9793C54.0609 37.3467 53.9247 38.5199 54.1454 39.026C54.5018 39.8435 55.1774 39.8154 55.9525 39.8154C57.4546 39.8154 58.3206 39.391 59.6241 39.0114C60.454 38.7697 61.9494 38.417 62.55 37.6518C63.3351 36.6514 63.4052 34.1546 64.5292 33.4999C64.8268 33.3265 65.2786 31.9127 65.4471 31.5263C65.7394 30.8559 66.3066 30.4063 66.8538 29.9724M66.867 29.962C67.4542 29.4965 70.3765 29.763 69.7785 30.5468C69.6849 30.6694 70.3632 30.6476 70.596 30.7515C71.0651 30.9607 71.6675 31.1565 72.0302 31.5263C72.5237 32.0293 73.6518 32.4473 74.3537 32.4473C74.9278 32.4473 78.0822 32.1901 78.097 32.4473C78.2091 34.3895 79.0209 34.6954 80.3631 35.9267C81.2249 36.7173 83.8649 36.4322 81.8403 37.5787C81.3363 37.8641 80.6372 38.2176 80.2196 38.5582C79.5232 39.1261 79.6522 38.9154 80.2196 39.4938C80.3046 39.5804 80.3406 39.7774 80.374 39.9947M66.867 29.962L66.8538 29.9724M66.867 29.962C66.8626 29.9655 66.8582 29.969 66.8538 29.9724M29.1148 25.6055C28.1572 26.4731 26.7422 27.6203 25.9484 28.6317C25.2235 29.5553 23.9862 30.6172 23.166 31.4532C22.2771 32.3593 21.8166 33.5304 20.9286 34.4355C18.9149 36.4881 17.5322 39.3473 16.1957 41.9206C15.8689 42.5497 15.3524 43.1081 15.0483 43.7626C14.852 44.185 14.532 45.3356 14.2021 45.6047C13.5744 46.1165 12.6076 48.7427 12.524 49.5519C12.3596 51.1442 11.3139 52.7182 10.9177 54.2885C10.5451 55.7654 10.4529 57.1501 10.1863 58.6451C9.87323 60.4 9.88432 61.4302 10.7743 62.9724C11.3305 63.9362 12.6221 65.2753 13.7001 65.5893C14.9878 65.9643 16.066 65.7911 17.0275 67.0512C17.9497 68.2598 19.1097 69.2899 19.5518 70.8668C20.0163 72.5241 20.3278 74.1854 21.1724 75.735C21.6045 76.5277 22.1647 77.7454 22.3198 78.6151C22.4315 79.2411 22.5218 80.0247 23.1087 80.3986C23.7441 80.8034 23.8612 81.7178 24.6576 82.1237C25.3164 82.4595 26.2662 83.1964 26.9811 83.2348C28.3539 83.3084 29.751 83.2348 31.126 83.2348C33.383 83.2348 37.1518 81.9838 38.8565 84.1558C39.244 84.6495 40.0167 84.7635 40.4055 85.4569C40.7044 85.9902 41.606 86.6572 42.0835 87.0358C43.0898 87.8336 43.5891 89.2284 44.4787 90.1351C45.4335 91.1084 46.0123 91.3905 47.2467 91.6701C48.2778 91.9036 49.7091 92.1488 50.2729 93.2344C51.7216 96.0235 50.7319 98.2196 50.7319 101.26C50.7319 103.567 51.8048 106.538 53.1988 108.365C54.9387 110.646 57.255 113.987 60.1404 114.827C61.1817 115.13 62.1006 116.044 63.1236 116.596C64.1645 117.158 65.2688 118.643 65.8343 119.681C67.4975 122.732 65.9791 126.691 66.9387 129.87C67.3459 131.219 66.9734 133.191 67.6415 134.417C68.0977 135.254 67.9155 136.27 68.043 137.18C68.1529 137.964 68.4606 138.774 68.545 139.548C68.7051 141.016 69.7537 142.514 69.8358 144.022C69.9121 145.421 70.3002 147.06 70.8685 148.364C72.0716 151.123 76.0134 151.522 76.8205 154.402C77.2661 155.991 79.4196 154.073 79.6316 153.1C79.8792 151.965 79.8946 149.53 79.3304 148.495C78.6682 147.28 77.9834 146.136 77.3225 144.957C77.0126 144.405 76.8209 143.727 76.548 143.101C76.2644 142.45 75.7536 142.092 75.3146 141.595C73.3222 139.338 77.8496 135.624 79.3878 134.753C80.9225 133.884 82.6745 133.04 83.9056 131.785C85.3557 130.307 86.4702 128.463 87.9071 126.917C90.0059 124.659 88.1827 121.172 89.9724 118.891C90.8302 117.798 92.4462 118.606 93.3285 117.707C94.2954 116.722 94.8207 114.416 95.2504 113.102C95.4741 112.418 95.1894 109.964 94.7484 109.155C93.965 107.717 94.3815 106.354 95.0783 105.076C95.737 103.867 97.6683 102.866 97.9611 101.524C98.2211 100.331 97.138 98.6446 95.9101 98.4973C94.3788 98.3137 92.9204 97.7079 91.2632 97.7079C89.9673 97.7079 87.8644 97.9468 86.7454 97.3131C85.9399 96.857 83.9315 96.4479 83.0021 96.3921C81.9046 96.3263 80.5256 95.1293 79.5312 94.5501C78.5221 93.9623 77.6475 92.618 77.5807 91.3923C77.5212 90.3014 75.7308 90.0766 74.87 90.0766C73.5063 90.0766 72.6976 88.7452 71.643 88.1761C70.1166 87.3524 69.106 87.182 67.3833 87.182C64.281 87.182 61.6203 85.6266 58.4194 86.7141C55.4946 87.7079 52.6383 87.7083 49.4985 87.7083C48.1914 87.7083 46.3335 87.3183 45.3679 86.334C44.7992 85.7544 44.874 84.8612 44.2779 84.2873C43.8829 83.9071 43.0051 83.7182 42.7289 83.3663C42.1385 82.6141 40.4055 82.7243 40.4055 81.3927C40.4055 80.623 40.3446 79.9781 40.721 79.2875C40.8809 78.9941 42.0541 77.1259 40.7927 77.8402C37.9165 79.469 34.0321 80.6691 30.8535 79.2291C28.3415 78.0911 29.4831 74.2338 29.5627 72.1241C29.6831 68.933 32.1085 66.5849 34.855 65.3407C36.6303 64.5365 38.6811 64.8144 40.6062 64.8144C41.1201 64.8144 44.3918 65.2866 44.5217 65.7501C44.8284 66.8441 48.6666 66.9441 48.6666 65.4723C48.6666 64.482 49.5816 63.1223 50.1582 62.3876C50.5072 61.9429 50.5153 61.1165 50.9901 60.6041C51.7215 59.8146 52.3932 58.6178 53.1844 57.9726C53.9177 57.3747 55.0088 55.6388 55.1206 54.7271C55.1319 54.6354 55.3735 54.9071 55.3788 54.8148C55.3986 54.471 55.6204 54.3127 55.637 54.0254C55.6795 53.2887 55.8569 53.158 56.3541 52.6512C57.2118 51.7769 58.3663 51.2034 59.3946 50.6045C61.8336 49.1839 62.9589 47.3935 64.6726 45.2099C65.3932 44.2918 66.3102 43.6431 67.1108 42.827C68.1751 41.7422 69.0613 42.1595 69.0613 40.3417C69.0613 38.8446 69.1128 37.9734 70.7394 37.9734C72.3621 37.9734 74.0241 38.1471 75.5154 38.2365C75.881 38.2585 76.9501 38.6526 77.3225 38.8213C77.9187 39.0914 78.6105 39.1191 79.2444 39.3037C79.5418 39.3904 80.0024 39.6858 80.374 39.9947M29.1148 25.6055L29.1498 25.5737M29.1148 25.6055C29.1263 25.5951 29.138 25.5845 29.1498 25.5737M80.374 39.9947C80.8675 40.4049 81.2041 40.8388 80.7933 40.8388C80.4849 40.8388 80.4338 40.3842 80.374 39.9947ZM51.0139 19.7898C51.3899 19.5067 51.6498 19.321 51.6498 19.3484C51.6498 19.608 51.3924 19.7376 51.0139 19.7898Z" stroke="#79BF7F" stroke-width="4" stroke-linecap="round"/>
<path d="M129.896 22.0661C129.896 23.0708 131.067 23.814 131.597 24.5657C132.172 25.3817 133.16 25.7101 134.05 25.9753C135.62 26.443 136.334 28.4069 135.611 29.9136C135.343 30.4717 134.54 31.4058 133.91 31.4831C133.476 31.5364 132.219 31.726 131.903 32.137C130.962 33.3642 131.652 35.1334 130.259 36.3223C129.035 37.3659 127.441 38.053 126.077 36.7729C125.014 35.7755 124.723 34.1949 123.568 33.1107C122.525 32.1321 121.868 30.4621 121.868 28.998C121.868 28.5649 121.406 26.724 121.366 27.7628C121.326 28.8103 121.357 29.7997 121.617 30.8146C121.899 31.919 122.471 33.6818 123.247 34.4913C123.765 35.0304 124.418 35.3341 124.934 35.8718C125.962 36.9439 125.631 39.3463 125.631 40.7547C125.631 41.9795 126.183 45.6931 124.126 44.6203C122.747 43.9016 120.804 42.552 119.916 44.3006C119.548 45.0263 118.654 45.7495 118.606 46.6549C118.561 47.5052 119.89 47.178 120.488 47.178C121.212 47.178 122.317 46.9769 122.369 47.9628C122.428 49.0573 122.871 50.0866 122.871 51.2326C122.871 52.5318 121.025 53.7549 120.167 54.5605C119.078 55.582 117.432 56.1821 116.654 57.6413C115.718 59.3988 114.246 60.7253 113.449 62.6259C112.592 64.6669 111.563 66.5798 110.633 68.6278C109.703 70.6753 110.075 71.8625 110.075 73.9757C110.075 75.6868 109.588 78.3064 111.093 79.4835C112.656 80.7059 113.471 82.6311 114.842 84.0612C116.746 86.0453 118.278 84.4821 120.418 84.3227C123.338 84.1053 126.028 81.9685 129.032 81.9685C130.844 81.9685 133.165 81.682 134.789 82.6225C137.538 84.2151 139.43 88.7026 139.43 91.8069C139.43 93.4256 139.394 96.7441 140.74 97.8669C141.524 98.5202 142.478 98.487 143.305 99.3492C143.959 100.031 144.662 101.089 144.699 102.052C144.774 104.015 144.197 105.779 144.197 107.734C144.197 109.756 144.444 111.661 144.713 113.62C144.971 115.502 145.373 117.2 146.706 118.59C147.262 119.17 148.952 121.858 150.024 120.741C150.456 120.29 150.559 119.781 150.916 119.317C151.233 118.903 151.249 117.836 151.599 117.544C152.061 117.158 152.225 116.106 152.616 115.582C153.178 114.829 153.64 113.929 154.233 113.242C154.859 112.517 154.999 111.333 155.432 110.481L155.435 110.474C155.824 109.709 156.24 108.889 156.24 107.981C156.24 106.891 156.683 105.829 156.742 104.726C156.799 103.663 157.084 102.425 157.258 101.34C157.791 98.0046 158.749 94.5429 158.749 91.1239C158.749 87.6927 159 84.0494 159 80.5298C159 73.1431 157.309 66.0991 155.041 59.269C154.607 57.9609 153.559 56.9472 153.215 55.694C152.737 53.9465 148.849 54.7639 147.431 54.7639C143.236 54.7639 139.198 55.2181 136.865 50.8402C135.836 48.9078 134.409 49.7939 132.781 49.7939C130.971 49.7939 129.214 50.317 127.331 50.317C125.309 50.317 124.627 48.8281 124.627 46.7857C124.627 45.5923 125.484 45.7164 125.938 44.8238C126.403 43.9073 127.123 43.1065 127.401 42.0917C127.869 40.3856 131.534 40.1153 132.656 39.069C133.979 37.8351 135.494 37.8261 137.172 38.6039C137.455 38.7348 137.762 38.9336 138.071 39.174C137.994 38.5899 138.066 38.0559 138.371 37.7029C138.834 37.1658 139.124 36.4531 139.932 36.4531C141.077 36.4531 141.039 36.9091 141.563 37.8918C142.437 39.533 144.006 40.5849 145.257 41.8882C145.668 42.3174 147.329 42.625 146.567 41.8301C146.185 41.4324 145.752 41.2946 145.257 41.1035C144.725 40.8982 144.66 40.2242 144.197 39.9118C143.63 39.5289 143.429 38.3684 143.138 37.7611C142.83 37.1188 142.277 36.5733 141.8 36.0753C140.811 35.0446 139.796 33.5362 139.416 32.1516C139.27 31.6173 138.451 31.0548 138.176 30.553C137.84 29.9403 137.571 29.1906 137.116 28.6638C136.663 28.1385 136.313 27.4706 135.792 27.0362C135.375 26.6882 130.012 21.4102 129.896 22.0661Z" fill="#79BF7F"/>
<path d="M155.432 110.481C154.999 111.333 154.859 112.517 154.233 113.242C153.64 113.929 153.178 114.829 152.616 115.582C152.225 116.106 152.061 117.158 151.599 117.544C151.249 117.836 151.233 118.903 150.916 119.317C150.559 119.781 150.456 120.29 150.024 120.741C148.952 121.858 147.262 119.17 146.706 118.59C145.373 117.2 144.971 115.502 144.713 113.62C144.444 111.661 144.197 109.756 144.197 107.734C144.197 105.779 144.774 104.015 144.699 102.052C144.662 101.089 143.959 100.031 143.305 99.3492C142.478 98.487 141.524 98.5202 140.74 97.8669C139.394 96.7441 139.43 93.4256 139.43 91.8069C139.43 88.7026 137.538 84.2151 134.789 82.6225C133.165 81.682 130.844 81.9685 129.032 81.9685C126.028 81.9685 123.338 84.1053 120.418 84.3227C118.278 84.4821 116.746 86.0453 114.842 84.0612C113.471 82.6311 112.656 80.7059 111.093 79.4835C109.588 78.3064 110.075 75.6868 110.075 73.9757C110.075 71.8625 109.703 70.6753 110.633 68.6278C111.563 66.5798 112.592 64.6669 113.449 62.6259C114.246 60.7253 115.718 59.3988 116.654 57.6413C117.432 56.1821 119.078 55.582 120.167 54.5605C121.025 53.7549 122.871 52.5318 122.871 51.2326C122.871 50.0866 122.428 49.0573 122.369 47.9628C122.317 46.9769 121.212 47.178 120.488 47.178C119.89 47.178 118.561 47.5052 118.606 46.6549C118.654 45.7495 119.548 45.0263 119.916 44.3006C120.804 42.552 122.747 43.9016 124.126 44.6203C126.183 45.6931 125.631 41.9795 125.631 40.7547C125.631 39.3463 125.962 36.9439 124.934 35.8718C124.418 35.3341 123.765 35.0304 123.247 34.4913C122.471 33.6818 121.899 31.919 121.617 30.8146C121.357 29.7997 121.326 28.8103 121.366 27.7628C121.406 26.724 121.868 28.5649 121.868 28.998C121.868 30.4621 122.525 32.1321 123.568 33.1107C124.723 34.1949 125.014 35.7755 126.077 36.7729C127.441 38.053 129.035 37.3659 130.259 36.3223C131.652 35.1334 130.962 33.3642 131.903 32.137C132.219 31.726 133.476 31.5364 133.91 31.4831C134.54 31.4058 135.343 30.4717 135.611 29.9136C136.334 28.4069 135.62 26.443 134.05 25.9753C133.16 25.7101 132.172 25.3817 131.597 24.5657C131.067 23.814 129.896 23.0708 129.896 22.0661C130.012 21.4102 135.375 26.6882 135.792 27.0362C136.313 27.4706 136.663 28.1385 137.116 28.6638C137.571 29.1906 137.84 29.9403 138.176 30.553C138.451 31.0548 139.27 31.6173 139.416 32.1516C139.796 33.5362 140.811 35.0446 141.8 36.0753C142.277 36.5733 142.83 37.1188 143.138 37.7611C143.429 38.3684 143.63 39.5289 144.197 39.9118C144.66 40.2242 144.725 40.8982 145.257 41.1035C145.752 41.2946 146.185 41.4324 146.567 41.8301C147.329 42.625 145.668 42.3174 145.257 41.8882C144.006 40.5849 142.437 39.533 141.563 37.8918C141.039 36.9091 141.077 36.4531 139.932 36.4531C139.124 36.4531 138.834 37.1658 138.371 37.7029C138.066 38.0559 137.994 38.5899 138.071 39.174M155.432 110.481L155.435 110.474M155.432 110.481C155.433 110.479 155.434 110.476 155.435 110.474M155.435 110.474C155.824 109.709 156.24 108.889 156.24 107.981C156.24 106.891 156.683 105.829 156.742 104.726C156.799 103.663 157.084 102.425 157.258 101.34C157.791 98.0046 158.749 94.5429 158.749 91.1239C158.749 87.6927 159 84.0494 159 80.5298C159 73.1431 157.309 66.0991 155.041 59.269C154.607 57.9609 153.559 56.9472 153.215 55.694C152.737 53.9465 148.849 54.7639 147.431 54.7639C143.236 54.7639 139.198 55.2181 136.865 50.8402C135.836 48.9078 134.409 49.7939 132.781 49.7939C130.971 49.7939 129.214 50.317 127.331 50.317C125.309 50.317 124.627 48.8281 124.627 46.7857C124.627 45.5923 125.484 45.7164 125.938 44.8238C126.403 43.9073 127.123 43.1065 127.401 42.0917C127.869 40.3856 131.534 40.1153 132.656 39.069C133.979 37.8351 135.494 37.8261 137.172 38.6039C137.455 38.7348 137.762 38.9336 138.071 39.174M138.071 39.174C138.917 39.8317 139.778 40.8006 140.183 41.5395C140.602 42.3037 140.936 42.2378 140.936 43.2543C140.936 43.9054 140.998 43.4822 140.922 43.1235C140.829 42.6911 140.137 42.5302 139.807 42.3387C139.096 41.9274 138.237 40.4341 138.071 39.174Z" stroke="#79BF7F" stroke-width="4" stroke-linecap="round"/>
<path d="M7.57778 63.0098C7.57778 65.6821 7 68.2063 7 70.851C7 72.6182 7 74.3854 7 76.1526C7 77.9688 7.28889 79.6706 7.28889 81.4383C7.28889 83.0358 7.86667 84.5663 7.86667 86.1526C7.86667 87.754 8.44444 89.5193 8.44444 91.1526C8.44444 92.8309 8.71106 94.9602 9.37531 96.4383C10.0523 97.9447 9.50482 99.9832 10.3222 101.438C10.6742 102.065 10.959 103.435 11.0444 104.153C11.0853 104.496 11.5167 106.241 11.7667 106.438C11.8709 106.521 12.4889 108.381 12.4889 108.581C12.4889 109.1 12.9802 110.364 13.2914 110.788C13.7764 111.447 13.908 112.547 14.2864 113.295C14.5532 113.823 14.8289 115.261 15.2333 115.581C15.7593 115.997 15.8128 117.125 16.3889 117.581C17.2599 118.27 17.8036 119.321 18.5556 120.153C19.5246 121.224 20.6024 122.785 21.1556 124.153C22.3327 127.063 25.4087 128.53 26.9333 131.168C27.6331 132.38 29.107 132.919 29.8864 134.153C30.6541 135.367 32.3368 135.698 33 137.01" stroke="#79BF7F" stroke-width="4" stroke-linecap="round"/>
<path d="M79 6.00977C81.287 6.00977 83.6052 6.30706 85.8344 6.30706C87.8089 6.30706 89.6458 6.90166 91.688 6.90166C92.8282 6.90166 93.8605 7.19895 94.947 7.19895C95.9828 7.19895 96.7816 7.73479 97.7947 7.79355C98.7326 7.84795 99.6571 8.09085 100.5 8.09085C101.478 8.09085 102.333 8.98274 103.348 8.98274C105.069 8.98274 106.853 10.4692 108.474 10.4692C110.277 10.4692 111.877 12.0239 113.742 12.253C115.212 12.4336 116.696 13.6227 118.14 14.0533C119.624 14.4961 120.645 16.3026 122 17.0098" stroke="#79BF7F" stroke-width="4" stroke-linecap="round"/>
<path d="M91 159.01C92.351 159.01 93.3927 158.446 94.6768 158.365C95.6917 158.3 97.4399 158.111 98.3535 157.648C99.4195 157.107 100.912 156.823 102.03 156.752C102.558 156.718 103.26 156.271 103.727 156.035C104.501 155.643 105.071 155.692 105.833 155.443C107.948 154.754 110.234 153.955 112.354 152.881C113.529 152.285 114.654 151.799 115.747 151.107C116.772 150.457 117.802 149.01 119 149.01" stroke="#79BF7F" stroke-width="4" stroke-linecap="round"/>
<path d="M40 144.01C40.0956 145.102 41.891 145.782 42.4889 146.026C43.0644 146.261 44.7397 147.266 45 148.01" stroke="#79BF7F" stroke-width="4" stroke-linecap="round"/>
<path d="M68 7.00977C69.9289 7.00977 66.4448 7.00977 69 7.00977" stroke="#79BF7F" stroke-width="4" stroke-linecap="round"/>
<path d="M115.301 143.729C115.74 143.729 116.142 143.99 116.602 143.99C117.057 143.99 117.512 143.99 117.968 143.99C118.878 143.99 119.789 143.99 120.7 143.99C121.502 143.99 122.304 143.99 123.106 143.99C123.37 143.99 125.719 143.553 125.289 144.091C124.951 144.513 124.407 145.204 124.407 145.746C124.407 146.57 124.407 147.394 124.407 148.218C124.407 149.792 123.887 151.219 123.887 152.836" stroke="#79BF7F" stroke-width="4" stroke-linecap="round"/>
<path d="M67.585 6.69381C67.8228 6.45601 68.1818 6.41856 68.4061 6.21667C68.6712 5.97806 68.9763 5.84317 69.2827 5.67294C69.9263 5.31542 70.4836 4.80603 71.1303 4.44678C71.5064 4.2378 72.3884 3.57879 72.4841 3.14849C72.5641 2.7885 73.0766 2.70045 73.2775 2.44941C73.4334 2.25445 74.1263 2 73.8767 2" stroke="#79BF7F" stroke-width="4" stroke-linecap="round"/>
<path d="M67.7842 6.99365C69.0972 6.99365 70.344 8.20144 71.4793 8.76909C71.9692 9.01403 72.8351 9.51235 73.1771 9.93977C73.3338 10.1357 73.7212 10.374 73.9261 10.5334C74.1781 10.7294 74.5088 11.0551 74.775 11.1881" stroke="#79BF7F" stroke-width="4" stroke-linecap="round"/>
</svg>
