<svg width="300" height="332" viewBox="0 0 300 332" fill="none" xmlns="http://www.w3.org/2000/svg">
<rect x="149" y="25" width="86" height="112" rx="17" fill="#DEDEDE"/>
<rect x="159" y="3" width="66" height="22" rx="9" fill="#C6C6C6"/>
<path d="M216 122.072C216 120.651 216.7 118.509 217.276 117.214C217.816 115.998 218.071 114.651 218.601 113.46C218.915 112.753 219.043 111.87 219.312 111.129C219.521 110.556 219.905 109.858 219.975 109.264C220.007 108.989 220.304 107.897 220.527 107.718C220.813 107.489 220.676 106.25 220.858 105.841C221.991 103.291 222.707 100.545 223.778 98.0019C224.446 96.4163 224.808 94.6979 225.545 93.1437C225.963 92.2611 226.82 91.1625 226.82 90.1625C226.82 89.1946 227.489 87.652 227.716 86.6293C228.047 85.1412 228.845 83.398 229.47 81.992C230.065 80.6535 230.416 79.0754 231.127 77.7962C231.477 77.1664 231.633 76.3641 231.949 75.6984C232.198 75.1723 232.715 74.4712 232.783 73.9318C232.949 72.6035 234.62 71.534 234.77 70.1777C234.804 69.8709 235.544 68.8204 235.776 68.5215C236.243 67.9209 236.418 67.128 236.88 66.5341C238.386 64.598 238.834 61.9736 239.8 59.7989C241.209 56.6291 243.087 53.5065 244.094 50.0825C244.412 49.003 245.309 48.1072 245.591 46.9787C245.77 46.2611 246.108 45.6373 246.425 45.0035C247.097 43.6596 247.896 42.1943 248.228 40.6974C248.352 40.1415 248.846 39.5569 248.903 39.0412C248.964 38.4963 249.535 37.0588 249.897 36.6244C250.508 35.8914 251.553 33.6135 251.553 32.6372C251.553 31.6678 252.534 30.9184 252.976 30.0977C253.54 29.0511 254.021 27.9406 254.596 26.8958C255.253 25.6996 255.853 24.5072 256.411 23.2521C257.016 21.8919 257.824 20.8052 258.509 19.5103C259.214 18.179 260.461 16.4423 261.539 15.3637C262.328 14.5746 262.985 13.4739 263.919 12.8733C264.518 12.4883 264.987 12.2371 265.293 11.6587C265.819 10.6659 267.468 9.56068 268.434 9.00881C269.184 8.58019 270.568 7.21304 270.986 6.48158C271.446 5.67631 273.092 4.94814 273.857 4.54321C276.303 3.24785 278.938 3.0465 281.684 3.0465C282.4 3.0465 284.67 2.81699 285.119 3.37774C285.375 3.69802 286.287 3.79987 286.664 3.97888C287.192 4.22894 287.797 4.86849 288.333 5.02167C289.349 5.31202 290.534 6.65726 291.412 7.34035C291.981 7.78261 292.328 8.09353 292.799 8.61623C293.254 9.12251 293.281 9.82797 293.731 10.3338C295.676 12.5218 296.602 16.3284 296.602 19.1668C296.602 22.638 296.822 26.1846 296.822 29.7174C296.822 38.6207 294.328 46.9363 293.522 55.7995C293.306 58.1771 292.852 60.5022 292.615 62.8782C292.474 64.2786 292.031 65.6824 291.964 67.0862C291.913 68.1695 291.562 69.1682 291.523 70.2268C291.46 71.9118 290.731 73.5978 290.639 75.2567C290.555 76.7831 290.283 78.1298 289.965 79.5629C289.588 81.2576 288.837 82.9977 288.64 84.7768C288.542 85.6511 288.073 86.436 287.891 87.2918C287.587 88.7256 287.235 90.108 286.836 91.5243C286.291 93.4622 285.614 95.4899 284.787 97.3271C283.59 99.9876 283.295 102.97 282.027 105.633C281.078 107.626 280.894 109.964 280.211 112.086L280.115 112.387C278.877 116.237 277.654 120.042 276.187 123.814C275.459 125.687 274.978 127.611 274.298 129.482C273.793 130.872 273.518 132.952 272.532 133.997C272.11 134.443 271.996 134.88 271.317 134.88C270.559 134.88 269.838 134.68 269.121 134.659C266.391 134.579 263.677 133.742 261.049 133.003C252.905 130.712 245.293 127.038 237.248 124.452C233.473 123.238 229.43 122.119 225.594 121.422C224.686 121.257 223.79 121.292 222.895 121.017C222.258 120.821 221.414 120.526 220.748 120.526C220.032 120.526 216 122.891 216 122.072Z" fill="#CCCCCC"/>
<path d="M280.211 112.086C280.894 109.964 281.078 107.626 282.027 105.633C283.295 102.97 283.59 99.9876 284.787 97.3271C285.614 95.4899 286.291 93.4622 286.836 91.5243C287.235 90.108 287.587 88.7256 287.891 87.2918C288.073 86.436 288.542 85.6511 288.64 84.7768C288.837 82.9977 289.588 81.2576 289.965 79.5629C290.283 78.1298 290.555 76.7831 290.639 75.2567C290.731 73.5978 291.46 71.9118 291.523 70.2268C291.562 69.1682 291.913 68.1695 291.964 67.0862C292.031 65.6824 292.474 64.2786 292.615 62.8782C292.852 60.5022 293.306 58.1771 293.522 55.7995C294.328 46.9363 296.822 38.6207 296.822 29.7174C296.822 26.1846 296.602 22.638 296.602 19.1668C296.602 16.3284 295.676 12.5218 293.731 10.3338C293.281 9.82797 293.254 9.12251 292.799 8.61623C292.328 8.09353 291.981 7.78261 291.412 7.34035C290.534 6.65726 289.349 5.31202 288.333 5.02167C287.797 4.86849 287.192 4.22894 286.664 3.97888C286.287 3.79987 285.375 3.69802 285.119 3.37774C284.67 2.81699 282.4 3.0465 281.684 3.0465C278.938 3.0465 276.303 3.24785 273.857 4.54321C273.092 4.94814 271.446 5.67631 270.986 6.48158C270.568 7.21304 269.184 8.58019 268.434 9.00881C267.468 9.56068 265.819 10.6659 265.293 11.6587C264.987 12.2371 264.518 12.4883 263.919 12.8733C262.985 13.4739 262.328 14.5746 261.539 15.3637C260.461 16.4423 259.214 18.179 258.509 19.5103C257.824 20.8052 257.016 21.8919 256.411 23.2521C255.853 24.5072 255.253 25.6996 254.596 26.8958C254.021 27.9406 253.54 29.0511 252.976 30.0977C252.534 30.9184 251.553 31.6678 251.553 32.6372C251.553 33.6135 250.508 35.8914 249.897 36.6244C249.535 37.0588 248.964 38.4963 248.903 39.0412C248.846 39.5569 248.352 40.1415 248.228 40.6974C247.896 42.1943 247.097 43.6596 246.425 45.0035C246.108 45.6373 245.77 46.2611 245.591 46.9787C245.309 48.1072 244.412 49.003 244.094 50.0825C243.087 53.5065 241.209 56.6291 239.8 59.7989C238.834 61.9736 238.386 64.598 236.88 66.5341C236.418 67.128 236.243 67.9209 235.776 68.5215C235.544 68.8204 234.804 69.8709 234.77 70.1777C234.62 71.534 232.949 72.6035 232.783 73.9318C232.715 74.4712 232.198 75.1723 231.949 75.6984C231.633 76.3641 231.477 77.1664 231.127 77.7962C230.416 79.0754 230.065 80.6535 229.47 81.992C228.845 83.398 228.047 85.1412 227.716 86.6293C227.489 87.652 226.82 89.1946 226.82 90.1625C226.82 91.1625 225.963 92.2611 225.545 93.1437C224.808 94.6979 224.446 96.4163 223.778 98.0019C222.707 100.545 221.991 103.291 220.858 105.841C220.676 106.25 220.813 107.489 220.527 107.718C220.304 107.897 220.007 108.989 219.975 109.264C219.905 109.858 219.521 110.556 219.312 111.129C219.043 111.87 218.915 112.753 218.601 113.46C218.071 114.651 217.816 115.998 217.276 117.214C216.7 118.509 216 120.651 216 122.072C216 122.891 220.032 120.526 220.748 120.526C221.414 120.526 222.258 120.821 222.895 121.017C223.79 121.292 224.686 121.257 225.594 121.422C229.43 122.119 233.473 123.238 237.248 124.452C245.293 127.038 252.905 130.712 261.049 133.003C263.677 133.742 266.391 134.579 269.121 134.659C269.838 134.68 270.559 134.88 271.317 134.88C271.996 134.88 272.11 134.443 272.532 133.997C273.518 132.952 273.793 130.872 274.298 129.482C274.978 127.611 275.459 125.687 276.187 123.814C277.654 120.042 278.877 116.237 280.115 112.387M280.211 112.086L280.115 112.387M280.211 112.086C280.179 112.186 280.147 112.287 280.115 112.387" stroke="#CCCCCC" stroke-width="6" stroke-linecap="round"/>
<path d="M235 113.397C235.167 111.723 236.378 109.706 237.163 108.294C238.071 106.658 239.898 105.436 241.67 104.93C243.22 104.487 244.802 104.92 246.332 104.92C247.891 104.92 249.357 105.439 251.003 105.439C251.711 105.439 252.454 105.785 253.165 105.785C254.146 105.785 255.126 105.785 256.106 105.785C256.914 105.785 257.721 105.785 258.528 105.785C259.324 105.785 260.05 105.179 260.777 105.093C262.432 104.898 263.966 102.75 264.891 101.595C265.304 101.079 265.16 100.221 265.583 99.6916C265.891 99.3066 266.082 98.202 266.486 98" stroke="#E5E2E2" stroke-width="6" stroke-linecap="round"/>
<path d="M246 84.3972C246.167 82.723 247.378 80.7061 248.163 79.2936C249.071 77.6577 250.898 76.436 252.67 75.9297C254.22 75.487 255.802 75.9201 257.332 75.9201C258.891 75.9201 260.357 76.4391 262.003 76.4391C262.711 76.4391 263.454 76.7851 264.165 76.7851C265.146 76.7851 266.126 76.7851 267.106 76.7851C267.914 76.7851 268.721 76.7851 269.528 76.7851C270.324 76.7851 271.05 76.1787 271.777 76.0931C273.432 75.8984 274.966 73.7501 275.891 72.5946C276.304 72.0786 276.16 71.2206 276.583 70.6916C276.891 70.3066 277.082 69.202 277.486 69" stroke="#E5E2E2" stroke-width="6" stroke-linecap="round"/>
<path d="M254 57.3972C254.167 55.723 255.378 53.7061 256.163 52.2936C257.071 50.6577 258.898 49.436 260.67 48.9297C262.22 48.487 263.802 48.9201 265.332 48.9201C266.891 48.9201 268.357 49.4391 270.003 49.4391C270.711 49.4391 271.454 49.7851 272.165 49.7851C273.146 49.7851 274.126 49.7851 275.106 49.7851C275.914 49.7851 276.721 49.7851 277.528 49.7851C278.324 49.7851 279.05 49.1787 279.777 49.0931C281.432 48.8984 282.966 46.7501 283.891 45.5946C284.304 45.0786 284.16 44.2206 284.583 43.6916C284.891 43.3066 285.082 42.202 285.486 42" stroke="#E5E2E2" stroke-width="6" stroke-linecap="round"/>
<circle cx="145" cy="101" r="53" fill="#C6C6C6"/>
<path d="M97.4043 97C88.5915 97 81.6776 104.561 82.4641 113.339L88.4076 179.665L81.7701 315.267C81.351 323.829 88.1799 331 96.7522 331H275.325C282.634 331 288.879 325.732 290.111 318.528L297.785 273.646C297.928 272.81 298 271.965 298 271.117V215.511C298 211.86 296.668 208.333 294.253 205.594L293.568 204.816C290.098 200.878 288.938 195.414 290.51 190.406L297.312 168.737C297.768 167.284 298 165.769 298 164.245V103.19C298 99.7714 295.229 97 291.81 97H289.59C288.602 97 287.699 97.5589 287.259 98.4432V98.4432C286.3 100.368 283.555 100.368 282.596 98.4432V98.4432C282.156 97.5589 281.253 97 280.265 97H261.394C260.311 97 259.303 97.5544 258.723 98.4692V98.4692C257.637 100.182 255.243 100.445 253.812 99.0079L253.006 98.199C252.241 97.4315 251.202 97 250.119 97H192.607C191.468 97 190.39 97.5121 189.67 98.3947V98.3947C188.205 100.192 185.483 100.263 183.927 98.5442L183.731 98.3277C182.965 97.4823 181.877 97 180.737 97H97.4043Z" fill="#D9D9D9" stroke="#D9D9D9"/>
<path d="M110 112C108.262 112 107.123 111 105.5 111C104 111 102.5 111 101 111" stroke="#A7A7A7" stroke-width="6" stroke-linecap="round"/>
<path d="M121 112.849C120.14 112.849 118.386 113.53 118 112" stroke="#A7A7A7" stroke-width="6" stroke-linecap="round"/>
<path d="M128 113C132.97 113 137.718 113 142.742 113C147.405 113 151.793 114.25 156.677 114.25C159.1 114.25 161.524 114.25 163.947 114.25C165.169 114.25 166.385 115.015 167.582 115.083C168.852 115.156 170.147 115.083 171.419 115.083C173.546 115.083 175.859 115.489 176.491 117.769C176.665 118.398 177.429 120.29 176.67 120.917C176.022 121.452 175.206 122.272 174.852 123" stroke="#A7A7A7" stroke-width="6" stroke-linecap="round"/>
<path d="M257 185C257.226 183.008 262.145 180.923 263.534 179.561C265.351 177.781 267.316 176.162 269.665 175.504C272.51 174.708 274.805 172.635 277.743 171.996C280.561 171.382 282.982 170 286 170" stroke="#A7A7A7" stroke-width="6" stroke-linecap="round"/>
<path d="M264 187C264.678 187 266.532 188 265.853 188" stroke="#A7A7A7" stroke-width="6" stroke-linecap="round"/>
<path d="M273 191C274.14 191 275.075 191.803 276.111 191.909C277.047 192.005 278.195 192.561 279 193" stroke="#A7A7A7" stroke-width="6" stroke-linecap="round"/>
<path d="M102 264C102 271.122 102 277.888 102 285" stroke="#A7A7A7" stroke-width="6" stroke-linecap="round"/>
<path d="M102 293C102 294.399 101 295.601 101 297" stroke="#A7A7A7" stroke-width="6" stroke-linecap="round"/>
<path d="M101.192 305C101.192 306.507 100.669 309.003 101.349 310.357C101.599 310.853 101.596 312.322 101.596 312.857C101.596 313.338 101.544 314.799 102 315" stroke="#A7A7A7" stroke-width="6" stroke-linecap="round"/>
<rect width="32.4556" height="91.5711" rx="14" transform="matrix(0.0779224 -0.996959 -0.996959 -0.0779224 185.779 278.104)" fill="#A097C9"/>
<rect width="32.4556" height="112.086" rx="14" transform="matrix(0.115598 -0.993296 -0.993296 -0.115598 209.969 262.894)" fill="#A097C9"/>
<rect width="32.4556" height="112.086" rx="14" transform="matrix(0.115598 -0.993296 -0.993296 -0.115598 218.33 239.916)" fill="#A097C9"/>
<rect width="32.4556" height="112.086" rx="14" transform="matrix(0.115598 -0.993296 -0.993296 -0.115598 213.504 216.057)" fill="#A097C9"/>
<rect width="32.4556" height="89.6437" rx="14" transform="matrix(-0.214762 -0.976666 -0.976666 0.214762 158.396 169.157)" fill="#A097C9"/>
<path d="M105.786 267.757C105.988 267.78 99.9674 268.073 99.5181 268.139C98.812 268.241 93.4477 268.147 91.0103 267.79C89.1822 267.522 82.528 267.625 81.4524 267.31C73.7923 265.067 71.6933 265.581 63.8636 264.357C55.7923 263.094 47.7157 260.778 39.7564 258.723C36.0377 257.764 32.2506 257.228 28.6772 255.766C25.6538 254.529 23.3934 252.105 20.8888 250.222C20.161 249.675 19.5776 248.722 18.9291 248.076C18.0264 247.177 16.7701 246.22 16.1043 245.144C15.2 243.684 13.9837 242.414 13.1029 240.921C12.3386 239.625 11.7311 238.216 10.895 236.988C9.9246 235.564 9.72761 233.481 8.7719 232.078C7.9577 230.883 8.11284 229.321 7.45444 228.079C6.60015 226.468 6.29606 224.587 5.93326 222.793L4.24246 214.434C3.9391 212.934 4.14607 211.443 3.84168 209.938C3.53475 208.421 3.40594 206.516 3.54304 204.97C3.61622 204.145 3.24913 203.176 3.39082 202.402C3.55701 201.493 3.60812 200.251 3.47645 199.333C3.11846 196.838 3.50303 193.265 4.04441 190.828C4.55376 188.536 4.07948 186.186 4.61026 183.849C4.92358 182.469 4.91028 181.031 5.28534 179.644C6.27492 175.984 7.64481 172.408 8.46818 168.703C8.60175 168.102 9.01723 167.632 9.14879 167.04C9.26603 166.512 10.0547 166.22 10.1068 165.561C10.2226 164.092 11.2688 162.69 11.9495 161.402C12.5619 160.244 14.087 158.814 14.3577 157.596C14.5132 156.896 15.8665 155.384 16.552 155.245C19.3878 154.671 21.8108 151.893 24.6565 151.317C26.7313 150.898 28.9982 150.185 31.2022 149.739C32.3327 149.511 34.186 149.455 35.2833 149.804C36.094 150.061 37.9891 149.91 38.5836 150.407C39.0427 150.791 41.5483 151.206 42.1529 151.084C43.3067 150.85 44.7258 152.137 45.9347 152.113C47.1565 152.089 48.8766 152.6 50.0229 152.91C51.0808 153.196 52.3829 153.249 53.437 153.378C55.7069 153.657 57.8754 154.367 60.157 154.547C66.0705 155.014 71.5553 153.921 77.5135 156.136C81.1705 157.495 85.0693 158.255 88.5783 160C89.9064 160.66 91.2568 161.151 92.6169 161.74C94.0875 162.376 95.2935 163.523 96.6817 164.308C98.5917 165.387 100.753 166.559 102.305 168.156C104.11 170.014 105.156 172.298 106.387 174.577C110.65 182.475 113.353 190.719 115.13 199.506C115.818 202.909 116.089 206.309 116.064 209.783C116.04 213.149 115.247 216.624 115.473 219.989C115.563 221.33 114.805 223.125 114.451 224.433C114.047 225.928 113.677 227.458 113.334 228.967C112.008 234.805 110.387 240.456 108.459 246.141C106.875 250.815 105.37 255.552 102.923 259.832C102.209 261.082 101.504 262.58 100.963 263.901C100.725 264.484 101.098 264.758 100.88 265.443C100.681 266.07 106.273 267.207 105.786 267.757Z" fill="#A097C9"/>
<path d="M99.5165 268.13C98.8917 267.991 105.499 267.724 105.786 267.757M5.93326 222.793C6.29606 224.587 6.60015 226.468 7.45444 228.079C8.11284 229.321 7.9577 230.883 8.7719 232.078C9.72761 233.481 9.9246 235.564 10.895 236.988C11.7311 238.216 12.3386 239.625 13.1029 240.921C13.9837 242.414 15.2 243.684 16.1043 245.144C16.7701 246.22 18.0264 247.177 18.9291 248.076C19.5776 248.722 20.161 249.675 20.8888 250.222C23.3934 252.105 25.6538 254.529 28.6772 255.766C32.2506 257.228 36.0377 257.764 39.7564 258.723C47.7157 260.778 55.7923 263.094 63.8636 264.357C71.6933 265.581 73.7923 265.067 81.4524 267.31C82.528 267.625 89.1822 267.522 91.0103 267.79C93.4477 268.147 98.812 268.241 99.5181 268.139C99.9674 268.073 105.988 267.78 105.786 267.757M5.93326 222.793C5.36966 220.007 4.80606 217.22 4.24246 214.434M5.93326 222.793L4.24246 214.434M4.24246 214.434C3.9391 212.934 4.14607 211.443 3.84168 209.938C3.53475 208.421 3.40594 206.516 3.54304 204.97C3.61622 204.145 3.24913 203.176 3.39082 202.402C3.55701 201.493 3.60812 200.251 3.47645 199.333C3.11846 196.838 3.50303 193.265 4.04441 190.828C4.55376 188.536 4.07948 186.186 4.61026 183.849C4.92358 182.469 4.91028 181.031 5.28534 179.644C6.27492 175.984 7.64481 172.408 8.46818 168.703C8.60175 168.102 9.01723 167.632 9.14879 167.04C9.26603 166.512 10.0547 166.22 10.1068 165.561C10.2226 164.092 11.2688 162.69 11.9495 161.402C12.5619 160.244 14.087 158.814 14.3577 157.596C14.5132 156.896 15.8665 155.384 16.552 155.245C19.3878 154.671 21.8108 151.893 24.6565 151.317C26.7313 150.898 28.9982 150.185 31.2022 149.739C32.3327 149.511 34.186 149.455 35.2833 149.804C36.094 150.061 37.9891 149.91 38.5836 150.407C39.0427 150.791 41.5483 151.206 42.1529 151.084C43.3067 150.85 44.7258 152.137 45.9347 152.113C47.1565 152.089 48.8766 152.6 50.0229 152.91C51.0808 153.196 52.3829 153.249 53.437 153.378C55.7069 153.657 57.8754 154.367 60.157 154.547C66.0705 155.014 71.5553 153.921 77.5135 156.136C81.1705 157.495 85.0693 158.255 88.5783 160C89.9064 160.66 91.2568 161.151 92.6169 161.74C94.0875 162.376 95.2935 163.523 96.6817 164.308C98.5917 165.387 100.753 166.559 102.305 168.156C104.11 170.014 105.156 172.298 106.387 174.577C110.65 182.475 113.353 190.719 115.13 199.506C115.818 202.909 116.089 206.309 116.064 209.783C116.04 213.149 115.247 216.624 115.473 219.989C115.563 221.33 114.805 223.125 114.451 224.433C114.047 225.928 113.677 227.458 113.334 228.967C112.008 234.805 110.387 240.456 108.459 246.141C106.875 250.815 105.37 255.552 102.923 259.832C102.209 261.082 101.504 262.58 100.963 263.901C100.725 264.484 101.098 264.758 100.88 265.443C100.681 266.07 106.273 267.207 105.786 267.757M99.5173 268.134C99.5642 268.098 105.738 267.811 105.786 267.757" stroke="#A097C9" stroke-width="6" stroke-linecap="round"/>
<path d="M180.397 255.541C179.633 251.765 179.502 247.375 176.51 244.872C174.179 242.923 170.393 243.642 167.656 242.773C164.758 241.852 161.302 241.691 158.221 241.007C154.804 240.248 151.888 239.369 148.347 239.089C145.14 238.836 141.485 238.081 138.248 237.362C134.318 236.489 130.543 236.192 126.573 235.208C120.237 233.639 113.855 233.427 107.722 231.769" stroke="#7C7696" stroke-width="6" stroke-linecap="round"/>
<path d="M206.512 228.644C205.683 226.059 199.608 224.762 197.38 224.103C194.114 223.138 190.574 220.963 187.005 220.894C185.309 220.862 183.415 219.739 181.657 219.503C179.12 219.162 176.518 218.209 174.017 217.59C170.14 216.629 166.043 216.038 162.07 215.155C160.104 214.719 157.984 214.732 156.062 214.305C153.482 213.732 150.526 213.303 147.852 213.252C145.832 213.214 143.618 211.694 141.654 211.936C140.405 212.09 139.222 211.396 137.965 211.386C136.521 211.374 134.722 211.238 133.334 210.929C126.267 209.359 118.795 210.619 112.159 208.824" stroke="#7C7696" stroke-width="6" stroke-linecap="round"/>
<path d="M206.618 201.39C206.216 200.135 203.235 199.262 202.024 198.861C200.519 198.363 199.164 197.696 197.571 197.265C193.707 196.22 189.662 195.519 185.765 194.465C181.663 193.356 177.675 192.888 173.592 191.981C171.632 191.545 169.558 191.569 167.584 191.13C165.151 190.59 161.981 189.859 159.49 190.174C157.387 190.44 155.118 189.766 153.035 189.727C151.155 189.691 148.916 189.538 147.079 189.13C145.361 188.748 143.299 188.605 141.552 188.639C139.62 188.677 137.621 188.223 135.713 188.499C132.125 189.02 128.446 187.167 124.743 187.692C123.802 187.826 121.062 187.43 120.088 187.121C119.107 186.809 116.134 187.272 115.187 187.464" stroke="#7C7696" stroke-width="6" stroke-linecap="round"/>
<path d="M102.72 50.6128C107.181 54.9536 113.981 61 121 61C121 56.9146 118.851 53.5204 117.746 49.7591C117.002 47.2259 114.259 43.0365 112.591 41.0082C110.399 38.3418 107.91 33.8985 104.182 32.8621C103.101 32.5615 94.1648 27.2076 94.0186 29.625C93.7542 33.9988 96.3764 37.5472 97.2725 41.4707C98.0361 44.8142 100.074 48.0385 102.72 50.6128Z" fill="#B2B0B0" stroke="#B2B0B0" stroke-width="6" stroke-linecap="round"/>
</svg>
