<svg width="695" height="197" viewBox="0 0 695 197" fill="none" xmlns="http://www.w3.org/2000/svg">
<path d="M198.707 127.18C200.138 142.379 193.204 156.958 180.761 168.244C168.319 179.529 150.388 187.495 129.916 189.437C109.444 191.379 90.345 186.925 76.017 178.179C61.6892 169.433 52.1587 156.415 50.7284 141.216C49.298 126.017 56.2314 111.438 68.6742 100.153C81.117 88.8672 99.0473 80.9013 119.519 78.9595C139.991 77.0177 159.091 81.4713 173.419 90.2176C187.746 98.9638 197.277 111.981 198.707 127.18Z" fill="#EC5C8C" stroke="#EC5C8C"/>
<rect x="-0.0514062" y="0.706613" width="89.0729" height="41.3173" rx="19.0984" transform="matrix(0.652464 0.75782 -0.755276 0.655407 32.4768 40.072)" fill="#EC5C8C" stroke="#EC5C8C"/>
<rect x="-0.683116" y="-0.177866" width="115.455" height="28.7821" rx="14.391" transform="matrix(-0.861593 0.507599 -0.504639 -0.86333 216.395 28.727)" fill="#EC5C8C" stroke="#EC5C8C"/>
<rect x="-0.683116" y="-0.177866" width="115.455" height="28.7821" rx="14.391" transform="matrix(-0.861593 0.507599 -0.504639 -0.86333 256.274 28.727)" fill="#EC5C8C" stroke="#EC5C8C"/>
<rect x="-0.683116" y="-0.177866" width="115.455" height="28.7821" rx="14.391" transform="matrix(-0.861593 0.507599 -0.504639 -0.86333 271.363 39.5476)" fill="#EC5C8C" stroke="#EC5C8C"/>
<rect x="-0.705659" y="0.00896689" width="115.573" height="25.4773" rx="12.7386" transform="matrix(-0.696657 0.717405 -0.714661 -0.699471 274.809 56.7937)" fill="#EC5C8C" stroke="#EC5C8C"/>
<path d="M114.785 57.6432C109.935 60.3483 110.474 60.3483 107.199 62.0685C104.546 64.1354 102.117 64.9601 100.694 67.2446C102.774 66.0516 99.4218 69.2889 100.694 67.2446C99.627 67.857 94.8459 70.4004 90.7795 74.0531C87.3886 77.0991 88.5205 76.4678 87.3886 77.0991C86.5426 77.5709 85.3142 78.1345 84.7115 78.8908C83.3012 80.0235 76.0654 84.0868 74.1818 84.0868C69.4666 84.0868 67.8305 86.5272 64.723 89.8203C63.6684 90.9379 61.5317 91.9531 60.7967 93.2445C60.0894 94.4871 58.9246 95.9417 57.9412 96.9872C55.6582 99.414 54.392 102.7 52.0517 105.05C49.9599 107.15 47.7316 109.441 45.8846 111.759C45.2518 112.553 44.6639 113.66 43.9412 114.466C43.1805 115.315 45.3808 116.57 45.9837 117.054C46.6562 117.595 46.8761 120.222 46.8761 120.996C46.8761 122.38 47.621 123.735 47.9271 125.117C48.4837 127.632 48.8645 130.206 49.0177 132.822C49.0684 133.688 49.8068 135.753 50.267 136.584C50.8818 137.695 50.9792 139.046 51.7939 140.068C52.4134 140.846 52.6097 142.279 53.0233 143.214C53.5201 144.336 54.4818 145.634 55.2443 146.618C56.0287 147.63 56.5569 149.816 57.5842 150.46C58.2915 150.904 59.3537 152.69 59.9241 153.426C60.9852 154.796 62.2776 155.809 63.4737 157.01C64.4487 157.989 64.8347 157.868 66.0119 158.125C70.2721 159.055 74.1961 161.603 78.366 162.923C85.5092 165.184 92.4373 165.431 99.8616 165.431C106.622 165.431 112.799 164.183 119.414 163.002C126.393 161.757 133.352 160.228 139.958 157.547C147.578 154.455 155.052 151.082 162.009 146.638C163.651 145.589 165.954 144.815 167.72 144.309C174.102 142.478 180.795 140.621 186.479 136.923C189.042 135.254 186.952 153.909 189.153 151.781C190.888 150.104 200.397 129.515 201.548 127.435L203.164 125.271C203.164 122.445 203.543 119.471 205.714 116.358C206.899 114.657 208.044 113.095 209.124 111.321C209.78 110.243 210.399 109.367 211.583 109.151C213.289 108.84 215.936 105.904 217.215 104.791C220.63 101.82 223.921 98.6231 226.971 95.2751C229.774 92.1987 233.042 89.6189 235.974 86.6748C237.479 85.1642 238.59 83.4959 239.98 81.9367C243.093 78.4431 244.542 73.2622 244.957 68.678C245.268 65.2428 244.14 56.2566 239.821 54.9813C237.477 54.2891 235.172 53.9761 232.801 54.9016C227.834 56.841 221.995 56.3882 216.779 56.9322C210.823 57.5534 205.044 58.0867 199.13 59.0823C193.482 60.0332 187.976 61.1527 182.235 61.1527C178.53 61.1527 174.997 60.1407 171.329 59.799C166.951 59.3913 162.419 59.7194 158.023 59.7194C156.267 59.7194 154.84 59.1774 153.264 58.4851C152.127 57.9861 152.208 57.1974 151.38 56.5739C150.924 56.2306 149.464 56.4784 148.921 56.4146C147.439 56.2408 146.002 55.8691 144.519 55.6979C142.121 55.4213 139.533 55.06 137.181 54.5234C132.599 53.4778 141.494 47.3638 136.88 47.3638C133.973 47.3638 117.296 56.3828 114.785 57.6432Z" fill="#EC5C8C"/>
<path d="M100.694 67.2446C102.117 64.9601 104.546 64.1354 107.199 62.0685C110.474 60.3483 109.935 60.3483 114.785 57.6432C117.296 56.3828 133.973 47.3638 136.88 47.3638C141.494 47.3638 132.599 53.4778 137.181 54.5234C139.533 55.06 142.121 55.4213 144.519 55.6979C146.002 55.8691 147.439 56.2408 148.921 56.4146C149.464 56.4784 150.924 56.2306 151.38 56.5739C152.208 57.1974 152.127 57.9861 153.264 58.4851C154.84 59.1774 156.267 59.7194 158.023 59.7194C162.419 59.7194 166.951 59.3913 171.329 59.799C174.997 60.1407 178.53 61.1527 182.235 61.1527C187.976 61.1527 193.482 60.0332 199.13 59.0823C205.044 58.0867 210.823 57.5534 216.779 56.9322C221.995 56.3882 227.834 56.841 232.801 54.9016C235.172 53.9761 237.477 54.2891 239.821 54.9813C244.14 56.2566 245.268 65.2428 244.957 68.678C244.542 73.2622 243.093 78.4431 239.98 81.9367C238.59 83.4959 237.479 85.1642 235.974 86.6748C233.042 89.6189 229.774 92.1987 226.971 95.2751C223.921 98.6231 220.63 101.82 217.215 104.791C215.936 105.904 213.289 108.84 211.583 109.151C210.399 109.367 209.78 110.243 209.124 111.321C208.044 113.095 206.899 114.657 205.714 116.358C203.543 119.471 203.164 122.445 203.164 125.271M100.694 67.2446C99.4218 69.2889 102.774 66.0516 100.694 67.2446ZM100.694 67.2446C99.627 67.857 94.8459 70.4004 90.7795 74.0531C87.3886 77.0991 88.5205 76.4678 87.3886 77.0991C86.5426 77.5709 85.3142 78.1345 84.7115 78.8908C83.3012 80.0235 76.0654 84.0868 74.1818 84.0868C69.4666 84.0868 67.8305 86.5272 64.723 89.8203C63.6684 90.9379 61.5317 91.9531 60.7967 93.2445C60.0894 94.4871 58.9246 95.9417 57.9412 96.9872C55.6582 99.414 54.392 102.7 52.0517 105.05C49.9599 107.15 47.7316 109.441 45.8846 111.759C45.2518 112.553 44.6639 113.66 43.9412 114.466C43.1805 115.315 45.3808 116.57 45.9837 117.054C46.6562 117.595 46.8761 120.222 46.8761 120.996C46.8761 122.38 47.621 123.735 47.9271 125.117C48.4837 127.632 48.8645 130.206 49.0177 132.822C49.0684 133.688 49.8068 135.753 50.267 136.584C50.8818 137.695 50.9792 139.046 51.7939 140.068C52.4134 140.846 52.6097 142.279 53.0233 143.214C53.5201 144.336 54.4818 145.634 55.2443 146.618C56.0287 147.63 56.5569 149.816 57.5842 150.46C58.2915 150.904 59.3537 152.69 59.9241 153.426C60.9852 154.796 62.2776 155.809 63.4737 157.01C64.4487 157.989 64.8347 157.868 66.0119 158.125C70.2721 159.055 74.1961 161.603 78.366 162.923C85.5092 165.184 92.4373 165.431 99.8616 165.431C106.622 165.431 112.799 164.183 119.414 163.002C126.393 161.757 133.352 160.228 139.958 157.547C147.578 154.455 155.052 151.082 162.009 146.638C163.651 145.589 165.954 144.815 167.72 144.309C174.102 142.478 180.795 140.621 186.479 136.923C189.042 135.254 186.952 153.909 189.153 151.781C190.888 150.104 200.397 129.515 201.548 127.435M201.548 127.435L203.164 125.271M201.548 127.435C201.548 127.435 203.117 125.357 203.164 125.271" stroke="#EC5C8C" stroke-width="8" stroke-linecap="round"/>
<path d="M110.441 83.071C114.979 92.7165 117.097 101.653 117.335 112.011C117.435 116.393 116.578 120.465 115.278 124.813C114.332 127.976 112.533 134.227 109.516 135.657" stroke="#AF4468" stroke-width="8" stroke-linecap="round"/>
<path d="M149.813 57.1021C156.229 57.1021 161.652 57.9249 167.771 59.2902C170.311 59.8567 172.852 59.668 175.231 60.8619C177.518 62.0098 181.523 63.4745 184.072 63.7588C188.947 64.3026 193.446 69.1023 198.131 70.4464C200.031 70.9914 203.047 72.1825 204.639 73.6207C205.304 74.2215 209.968 77.6271 209.489 77.6271" stroke="#AF4468" stroke-width="8" stroke-linecap="round"/>
<path d="M167.195 55.5747C168.546 54.08 170.246 53.2215 171.618 51.5344C172.841 50.0302 173.453 48.2512 174.777 46.8724C177.797 43.7269 180.645 40.9787 184.535 38.7916C187.911 36.8937 190.276 32.4369 194.082 31.3669C197.348 30.4489 200.969 28.2428 203.84 26.3596" stroke="#AF4468" stroke-width="6" stroke-linecap="round"/>
<path d="M185.451 61.4303C187.621 59.4304 188.371 57.0986 191.32 55.4791C193.825 54.1041 195.896 51.6941 198.363 50.3394C203.855 47.3243 207.931 42.09 213.297 38.9103C218.032 36.1045 222.412 32.0868 227.416 29.7806C232.726 27.3332 238.852 22.4768 244.73 22.4768" stroke="#AF4468" stroke-width="6" stroke-linecap="round"/>
<path d="M206.258 71.4815C208.873 71.4815 210.573 67.7937 212.652 66.7531C215.704 65.2255 218.463 63.7883 221.048 61.4063C225.032 57.7356 228.959 54.6618 233.578 52.3496C237.374 50.4496 239.714 46.639 243.783 45.3297C245.031 44.9279 246.064 44.3869 247.077 43.4747C247.846 42.7814 249.722 43.3517 250.435 42.3472C251.705 40.5601 256.158 41.3652 257.992 41.3652" stroke="#AF4468" stroke-width="6" stroke-linecap="round"/>
<path d="M118.558 165.118C120.815 164.051 129.429 161.559 130.944 164.6" stroke="#AF4468" stroke-width="8" stroke-linecap="round"/>
<path d="M496.293 127.18C494.862 142.379 501.796 156.958 514.239 168.244C526.681 179.529 544.612 187.495 565.084 189.437C585.556 191.379 604.655 186.925 618.983 178.179C633.311 169.433 642.841 156.415 644.272 141.216C645.702 126.017 638.769 111.438 626.326 100.153C613.883 88.8672 595.953 80.9013 575.481 78.9595C555.009 77.0177 535.909 81.4713 521.581 90.2176C507.254 98.9638 497.723 111.981 496.293 127.18Z" fill="#EC5C8C" stroke="#EC5C8C"/>
<rect x="0.0514062" y="0.706613" width="89.0729" height="41.3173" rx="19.0984" transform="matrix(-0.652464 0.75782 0.755276 0.655407 662.59 39.9941)" fill="#EC5C8C" stroke="#EC5C8C"/>
<rect x="0.683116" y="-0.177866" width="115.455" height="28.7821" rx="14.391" transform="matrix(0.861593 0.507599 0.504639 -0.86333 477.427 28.0335)" fill="#EC5C8C" stroke="#EC5C8C"/>
<rect x="0.683116" y="-0.177866" width="115.455" height="28.7821" rx="14.391" transform="matrix(0.861593 0.507599 0.504639 -0.86333 437.549 28.0335)" fill="#EC5C8C" stroke="#EC5C8C"/>
<rect x="0.683116" y="-0.177866" width="115.455" height="28.7821" rx="14.391" transform="matrix(0.861593 0.507599 0.504639 -0.86333 422.46 38.8541)" fill="#EC5C8C" stroke="#EC5C8C"/>
<rect x="0.705659" y="0.00896689" width="115.573" height="25.4773" rx="12.7386" transform="matrix(0.696657 0.717405 0.714661 -0.699471 419.208 55.7812)" fill="#EC5C8C" stroke="#EC5C8C"/>
<path d="M580.215 57.6432C585.065 60.3483 584.526 60.3483 587.801 62.0685C590.454 64.1354 592.883 64.9601 594.306 67.2446C592.226 66.0516 595.578 69.2889 594.306 67.2446C595.373 67.857 600.154 70.4004 604.221 74.0531C607.611 77.0991 606.48 76.4678 607.611 77.0991C608.457 77.5709 609.686 78.1345 610.288 78.8908C611.699 80.0235 618.935 84.0868 620.818 84.0868C625.533 84.0868 627.169 86.5272 630.277 89.8203C631.332 90.9379 633.468 91.9531 634.203 93.2445C634.911 94.4871 636.075 95.9417 637.059 96.9872C639.342 99.414 640.608 102.7 642.948 105.05C645.04 107.15 647.268 109.441 649.115 111.759C649.748 112.553 650.336 113.66 651.059 114.466C651.819 115.315 649.619 116.57 649.016 117.054C648.344 117.595 648.124 120.222 648.124 120.996C648.124 122.38 647.379 123.735 647.073 125.117C646.516 127.632 646.136 130.206 645.982 132.822C645.932 133.688 645.193 135.753 644.733 136.584C644.118 137.695 644.021 139.046 643.206 140.068C642.587 140.846 642.39 142.279 641.977 143.214C641.48 144.336 640.518 145.634 639.756 146.618C638.971 147.63 638.443 149.816 637.416 150.46C636.709 150.904 635.646 152.69 635.076 153.426C634.015 154.796 632.722 155.809 631.526 157.01C630.551 157.989 630.165 157.868 628.988 158.125C624.728 159.055 620.804 161.603 616.634 162.923C609.491 165.184 602.563 165.431 595.138 165.431C588.378 165.431 582.201 164.183 575.586 163.002C568.607 161.757 561.648 160.228 555.042 157.547C547.422 154.455 539.948 151.082 532.991 146.638C531.349 145.589 529.046 144.815 527.28 144.309C520.898 142.478 514.205 140.621 508.521 136.923C505.958 135.254 508.048 153.909 505.847 151.781C504.112 150.104 494.603 129.515 493.452 127.435L491.836 125.271C491.836 122.445 491.457 119.471 489.286 116.358C488.101 114.657 486.956 113.095 485.876 111.321C485.22 110.243 484.601 109.367 483.417 109.151C481.711 108.84 479.064 105.904 477.785 104.791C474.37 101.82 471.079 98.6231 468.029 95.2751C465.226 92.1987 461.958 89.6189 459.026 86.6748C457.521 85.1642 456.41 83.4959 455.02 81.9367C451.907 78.4431 450.458 73.2622 450.043 68.678C449.732 65.2428 450.86 56.2566 455.179 54.9813C457.523 54.2891 459.828 53.9761 462.199 54.9016C467.166 56.841 473.005 56.3882 478.221 56.9322C484.177 57.5534 489.956 58.0867 495.87 59.0823C501.518 60.0332 507.024 61.1527 512.765 61.1527C516.47 61.1527 520.003 60.1407 523.671 59.799C528.049 59.3913 532.581 59.7194 536.977 59.7194C538.733 59.7194 540.16 59.1774 541.736 58.4851C542.873 57.9861 542.792 57.1974 543.62 56.5739C544.076 56.2306 545.536 56.4784 546.079 56.4146C547.561 56.2408 548.998 55.8691 550.481 55.6979C552.879 55.4213 555.467 55.06 557.819 54.5234C562.401 53.4778 553.506 47.3638 558.12 47.3638C561.027 47.3638 577.704 56.3828 580.215 57.6432Z" fill="#EC5C8C"/>
<path d="M594.306 67.2446C592.883 64.9601 590.454 64.1354 587.801 62.0685C584.526 60.3483 585.065 60.3483 580.215 57.6432C577.704 56.3828 561.027 47.3638 558.12 47.3638C553.506 47.3638 562.401 53.4778 557.819 54.5234C555.467 55.06 552.879 55.4213 550.481 55.6979C548.998 55.8691 547.561 56.2408 546.079 56.4146C545.536 56.4784 544.076 56.2306 543.62 56.5739C542.792 57.1974 542.873 57.9861 541.736 58.4851C540.16 59.1774 538.733 59.7194 536.977 59.7194C532.581 59.7194 528.049 59.3913 523.671 59.799C520.003 60.1407 516.47 61.1527 512.765 61.1527C507.024 61.1527 501.518 60.0332 495.87 59.0823C489.956 58.0867 484.177 57.5534 478.221 56.9322C473.005 56.3882 467.166 56.841 462.199 54.9016C459.828 53.9761 457.523 54.2891 455.179 54.9813C450.86 56.2566 449.732 65.2428 450.043 68.678C450.458 73.2622 451.907 78.4431 455.02 81.9367C456.41 83.4959 457.521 85.1642 459.026 86.6748C461.958 89.6189 465.226 92.1987 468.029 95.2751C471.079 98.6231 474.37 101.82 477.785 104.791C479.064 105.904 481.711 108.84 483.417 109.151C484.601 109.367 485.22 110.243 485.876 111.321C486.956 113.095 488.101 114.657 489.286 116.358C491.457 119.471 491.836 122.445 491.836 125.271M594.306 67.2446C595.578 69.2889 592.226 66.0516 594.306 67.2446ZM594.306 67.2446C595.373 67.857 600.154 70.4004 604.221 74.0531C607.611 77.0991 606.48 76.4678 607.611 77.0991C608.457 77.5709 609.686 78.1345 610.288 78.8908C611.699 80.0235 618.935 84.0868 620.818 84.0868C625.533 84.0868 627.169 86.5272 630.277 89.8203C631.332 90.9379 633.468 91.9531 634.203 93.2445C634.911 94.4871 636.075 95.9417 637.059 96.9872C639.342 99.414 640.608 102.7 642.948 105.05C645.04 107.15 647.268 109.441 649.115 111.759C649.748 112.553 650.336 113.66 651.059 114.466C651.819 115.315 649.619 116.57 649.016 117.054C648.344 117.595 648.124 120.222 648.124 120.996C648.124 122.38 647.379 123.735 647.073 125.117C646.516 127.632 646.136 130.206 645.982 132.822C645.932 133.688 645.193 135.753 644.733 136.584C644.118 137.695 644.021 139.046 643.206 140.068C642.587 140.846 642.39 142.279 641.977 143.214C641.48 144.336 640.518 145.634 639.756 146.618C638.971 147.63 638.443 149.816 637.416 150.46C636.709 150.904 635.646 152.69 635.076 153.426C634.015 154.796 632.722 155.809 631.526 157.01C630.551 157.989 630.165 157.868 628.988 158.125C624.728 159.055 620.804 161.603 616.634 162.923C609.491 165.184 602.563 165.431 595.138 165.431C588.378 165.431 582.201 164.183 575.586 163.002C568.607 161.757 561.648 160.228 555.042 157.547C547.422 154.455 539.948 151.082 532.991 146.638C531.349 145.589 529.046 144.815 527.28 144.309C520.898 142.478 514.205 140.621 508.521 136.923C505.958 135.254 508.048 153.909 505.847 151.781C504.112 150.104 494.603 129.515 493.452 127.435M493.452 127.435L491.836 125.271M493.452 127.435C493.452 127.435 491.883 125.357 491.836 125.271" stroke="#EC5C8C" stroke-width="8" stroke-linecap="round"/>
<path d="M584.559 83.071C580.021 92.7165 577.903 101.653 577.665 112.011C577.565 116.393 578.422 120.465 579.722 124.813C580.668 127.976 582.467 134.227 585.484 135.657" stroke="#AF4468" stroke-width="8" stroke-linecap="round"/>
<path d="M545.187 57.1021C538.771 57.1021 533.348 57.9249 527.229 59.2902C524.689 59.8567 522.148 59.668 519.769 60.8619C517.482 62.0098 513.477 63.4745 510.928 63.7588C506.053 64.3026 501.554 69.1023 496.869 70.4464C494.969 70.9914 491.953 72.1825 490.361 73.6207C489.696 74.2215 485.032 77.6271 485.511 77.6271" stroke="#AF4468" stroke-width="8" stroke-linecap="round"/>
<path d="M527.805 55.5747C526.454 54.08 524.754 53.2215 523.382 51.5344C522.159 50.0302 521.547 48.2512 520.223 46.8724C517.203 43.7269 514.355 40.9787 510.465 38.7916C507.089 36.8937 504.724 32.4369 500.918 31.3669C497.652 30.4489 494.031 28.2428 491.16 26.3596" stroke="#AF4468" stroke-width="6" stroke-linecap="round"/>
<path d="M509.549 61.4303C507.379 59.4304 506.629 57.0986 503.68 55.4791C501.175 54.1041 499.104 51.6941 496.637 50.3394C491.145 47.3243 487.069 42.09 481.703 38.9103C476.968 36.1045 472.588 32.0868 467.584 29.7806C462.274 27.3332 456.148 22.4768 450.27 22.4768" stroke="#AF4468" stroke-width="6" stroke-linecap="round"/>
<path d="M488.742 71.4815C486.127 71.4815 484.427 67.7937 482.348 66.7531C479.296 65.2255 476.537 63.7883 473.952 61.4063C469.968 57.7356 466.041 54.6618 461.422 52.3496C457.626 50.4496 455.286 46.639 451.217 45.3297C449.969 44.9279 448.936 44.3869 447.923 43.4747C447.154 42.7814 445.278 43.3517 444.565 42.3472C443.295 40.5601 438.842 41.3652 437.008 41.3652" stroke="#AF4468" stroke-width="6" stroke-linecap="round"/>
<path d="M576.442 165.118C574.185 164.051 565.571 161.559 564.056 164.6" stroke="#AF4468" stroke-width="8" stroke-linecap="round"/>
<path fill-rule="evenodd" clip-rule="evenodd" d="M311.474 35.7616C311.474 35.7617 311.473 35.7638 311.473 35.7675C311.474 35.7634 311.474 35.7615 311.474 35.7616ZM310.05 44.0426C310.512 44.5308 311.016 44.797 311.313 44.9354C311.578 45.059 311.858 45.1577 312.014 45.2112C312.125 45.3115 312.217 45.3821 312.268 45.4213C312.441 45.5535 312.612 45.6643 312.748 45.7478C313.024 45.917 313.325 46.0764 313.585 46.2069C313.841 46.335 314.123 46.468 314.385 46.5842C314.19 46.7914 313.989 47.0139 313.793 47.2441C313.309 47.8125 312.504 48.8237 312.164 49.9852C312.03 50.445 311.79 50.9063 311.352 51.7479L311.341 51.7686C311.166 52.1047 310.955 52.5108 310.75 52.9716C310.428 52.777 310.136 52.6246 309.918 52.5107L309.915 52.5089C309.684 52.388 309.491 52.2888 309.328 52.2051C308.872 51.9701 308.654 51.8579 308.49 51.7334C308.069 51.4127 307.584 51.1418 307.239 50.9548C307.067 50.8614 306.889 50.7671 306.726 50.6812L306.68 50.6571C306.498 50.5613 306.333 50.474 306.176 50.3878C306.048 50.3177 305.938 50.2557 305.845 50.2008C305.861 50.1656 305.876 50.1335 305.888 50.105L305.897 50.0852C305.924 50.0272 305.944 49.9822 305.96 49.9476C305.996 49.9138 306.043 49.8698 306.107 49.8128C306.165 49.7614 306.225 49.7086 306.298 49.6454L306.303 49.6404C306.371 49.5817 306.45 49.5124 306.529 49.4424C306.681 49.3063 306.897 49.1096 307.103 48.8852C307.854 48.0692 308.291 47.1351 308.54 46.6029C308.547 46.5878 308.554 46.5731 308.561 46.5587C308.871 45.8977 308.97 45.71 309.075 45.5818C309.462 45.1077 309.786 44.5873 310.05 44.0426ZM305.88 50.0285C305.88 50.0285 305.882 50.026 305.887 50.0208C305.882 50.0259 305.88 50.0284 305.88 50.0285ZM300.23 52.5402C299.573 52.0598 299.113 51.3152 299.018 50.4422C298.887 49.2385 299.487 48.1239 300.463 47.541C300.497 47.4654 300.539 47.3733 300.582 47.2828C300.642 47.158 300.724 46.9936 300.826 46.8192C301.061 46.4172 301.334 46.102 301.534 45.8912C301.742 45.6714 301.953 45.4777 302.116 45.333C302.198 45.2599 302.279 45.189 302.347 45.1294L302.351 45.1265C302.424 45.0627 302.482 45.0118 302.536 44.9634C302.645 44.8664 302.683 44.8276 302.687 44.8236C302.687 44.8232 302.688 44.8231 302.687 44.8232C302.749 44.7563 302.848 44.6105 303.128 44.0126C303.145 43.9755 303.164 43.9351 303.184 43.8919C303.412 43.4005 303.811 42.5409 304.43 41.7839C304.704 41.4487 304.948 40.7728 304.948 40.142C304.948 40.1078 304.948 40.0702 304.948 40.0293C304.947 39.5614 304.946 38.6681 304.999 37.7772C305.027 37.2938 305.074 36.7503 305.158 36.2364C305.212 35.909 305.312 35.3744 305.539 34.8287C305.542 34.8121 305.546 34.7943 305.55 34.7752C305.553 34.7607 305.556 34.7446 305.56 34.7274C305.576 34.6491 305.597 34.5468 305.615 34.4662C305.625 34.423 305.646 34.3306 305.673 34.2319L305.673 34.2309C305.683 34.1945 305.719 34.0664 305.779 33.9137C305.802 33.8548 305.882 33.6497 306.031 33.4124C306.101 33.3006 306.267 33.0469 306.55 32.7881C306.795 32.5634 307.494 32 308.577 32C309.084 32 309.772 32.1173 310.429 32.5742C311.1 33.0409 311.462 33.6697 311.636 34.2013C311.928 35.092 311.755 35.8775 311.704 36.1023C311.637 36.3997 311.535 36.6877 311.451 36.8979C311.456 37.0035 311.464 37.1117 311.476 37.2713C311.478 37.2945 311.479 37.3188 311.481 37.3443L311.481 37.3463C311.487 37.4182 311.494 37.5094 311.5 37.6117C311.603 37.7082 311.743 37.8195 311.916 37.9359C312.095 38.0563 312.279 38.1629 312.443 38.2479C313.14 38.6086 313.732 39.1659 314.127 39.5925C314.309 39.6556 314.635 39.7732 314.964 39.9438C315.245 40.0896 315.634 40.3266 316.007 40.7033C316.078 40.7425 316.169 40.7901 316.276 40.8441C316.454 40.9333 316.641 41.0207 316.8 41.0916C316.879 41.1268 316.945 41.1552 316.994 41.1758C317.03 41.1905 317.048 41.1974 317.051 41.1986C317.719 41.4378 318.315 41.7992 318.626 41.988C318.656 42.0059 318.683 42.0223 318.707 42.0369C319.001 42.2138 319.099 42.2595 319.105 42.2641C319.961 42.5091 321.536 43.2229 321.926 45.0881C322.249 46.6342 321.447 47.8243 321.18 48.199C320.809 48.7207 320.364 49.1525 320.082 49.4142C319.936 49.549 319.798 49.6717 319.698 49.7598L319.683 49.7732C319.574 49.8705 319.54 49.9009 319.535 49.906C319.534 49.9067 319.534 49.907 319.534 49.9069C319.173 50.2595 318.736 50.6938 318.362 51.133C318.177 51.3508 318.041 51.5311 317.952 51.6675C317.926 51.7073 317.908 51.7365 317.897 51.7556C317.588 52.7744 317.101 53.7036 316.76 54.3551C316.726 54.419 316.694 54.4803 316.663 54.5387C316.256 55.3213 316.049 55.775 315.956 56.1861C315.645 57.5521 315.479 58.5688 315.479 59.8169C315.479 59.8256 315.479 59.8342 315.479 59.8429C315.479 59.8547 315.479 59.8666 315.479 59.8785C315.479 60.4428 315.38 61.2887 315.308 61.7963C315.274 62.0318 315.219 62.395 315.145 62.6815L315.143 62.6867C315.129 62.7441 315.068 62.9786 314.947 63.2417C314.946 63.2436 314.945 63.2461 314.944 63.2494C314.908 63.3298 314.68 63.8357 314.169 64.2746C313.866 64.535 313.187 65.0059 312.194 64.9999C311.126 64.9936 310.388 64.4474 310.008 64.0373C309.443 63.4278 309.299 62.747 309.283 62.6748C309.283 62.6722 309.282 62.6704 309.282 62.6694C309.237 62.4749 309.22 62.3153 309.213 62.2412C309.197 62.0805 309.196 61.9403 309.196 61.8644C309.196 61.1717 309.326 60.5648 309.394 60.246C309.397 60.2306 309.4 60.2159 309.403 60.2019C309.463 59.9218 309.476 59.8338 309.479 59.8149C309.479 59.8089 309.479 59.8031 309.478 59.7974C309.446 59.7702 309.411 59.7408 309.369 59.7056L309.355 59.694C309.291 59.6404 309.213 59.5755 309.131 59.5055C308.798 59.2211 308.373 58.8345 307.927 58.2956C307.91 58.2814 307.873 58.253 307.81 58.2112C307.657 58.1085 307.445 57.9879 307.136 57.8264C307.054 57.7836 306.944 57.7276 306.823 57.6655C306.593 57.5476 306.32 57.4076 306.108 57.2933C305.747 57.0987 305.289 56.8367 304.857 56.508C304.858 56.5087 304.857 56.5087 304.856 56.5079C304.851 56.5039 304.815 56.4786 304.735 56.4303C304.644 56.3757 304.528 56.31 304.378 56.2286C304.334 56.2049 304.203 56.1353 304.045 56.0511C303.781 55.9112 303.441 55.7307 303.296 55.6515C302.907 55.4387 302.422 55.1609 301.977 54.8356C301.596 54.5575 300.901 54.0057 300.462 53.1458C300.361 52.9487 300.284 52.7458 300.23 52.5402ZM315.863 40.6189C315.863 40.6189 315.863 40.6194 315.865 40.6204C315.863 40.6194 315.863 40.6189 315.863 40.6189ZM300.286 47.916C300.282 47.9234 300.283 47.9216 300.288 47.9124C300.288 47.9137 300.287 47.9148 300.286 47.916ZM317.46 48.0339C317.46 48.0342 317.461 48.0343 317.462 48.0345L317.462 48.0346C317.461 48.0344 317.46 48.0341 317.46 48.0339Z" fill="#AF4468"/>
<path fill-rule="evenodd" clip-rule="evenodd" d="M345.152 13.3093C344.931 13.5336 344.711 13.7478 344.495 13.952C344.304 14.1328 344.131 14.3222 343.888 14.5884C343.75 14.7407 343.588 14.9181 343.387 15.1335C342.957 15.5934 342.28 16.2969 341.478 16.7982C340.978 17.1104 340.313 17.6801 339.515 18.4582C339.023 18.9374 338.615 19.3589 338.202 19.7846C337.901 20.0946 337.599 20.4069 337.26 20.7451C336.967 21.0382 336.65 21.2752 336.333 21.4677C336.611 21.7628 336.878 22.1146 337.099 22.5315C337.596 23.4699 338.155 24.3881 338.762 25.3686C338.822 25.4655 338.883 25.5632 338.944 25.6617C339.484 26.5341 340.064 27.4686 340.592 28.4194C340.64 28.5056 340.693 28.5994 340.749 28.6997C341.045 29.226 341.442 29.9312 341.764 30.6508C342.157 31.5271 342.556 32.6622 342.603 33.9466C342.615 34.2547 342.615 34.6078 342.615 34.9137C342.615 34.9434 342.615 34.9726 342.615 35.0013C342.615 35.3537 342.616 35.6823 342.627 35.9972C342.637 36.2595 342.652 36.4759 342.673 36.6491C342.856 36.4957 343.036 36.351 343.211 36.2152C344.398 35.2923 345.673 34.5182 346.64 33.9812C346.995 33.7843 347.365 33.5044 347.938 33.0523C347.97 33.0271 348.003 33.0012 348.036 32.9747C348.537 32.5791 349.216 32.0422 349.973 31.5973C350.69 31.1755 351.606 30.5733 352.048 30.1804C352.379 29.8864 352.722 29.6391 353.042 29.4335C351.82 27.8627 350.958 26.2319 350.175 24.7518C350.129 24.6644 350.083 24.5775 350.037 24.4912C349.752 23.9528 349.414 23.2491 349.1 22.5934C348.908 22.1951 348.726 21.8145 348.568 21.4996C348.072 20.5052 347.638 19.7463 347.233 19.2405C346.884 18.8045 346.652 18.3162 346.521 18.0205C346.367 17.6693 346.229 17.2943 346.116 16.9416C345.939 16.3924 345.685 15.4863 345.664 14.6992C345.663 14.6938 345.661 14.6878 345.659 14.6811C345.627 14.573 345.576 14.4341 345.468 14.1597C345.461 14.1421 345.454 14.1238 345.446 14.1047C345.367 13.9021 345.254 13.6154 345.152 13.3093ZM345.673 14.7348C345.673 14.7348 345.673 14.7339 345.673 14.7322ZM354.153 30.7783C354.154 30.7807 354.155 30.7819 354.155 30.7819C354.155 30.7818 354.154 30.7811 354.153 30.7795C354.153 30.7791 354.153 30.7787 354.153 30.7783ZM337.982 43.7352C337.982 43.7344 337.991 43.7237 338.007 43.7055C337.991 43.7268 337.982 43.736 337.982 43.7352ZM327.065 19.3872C325.727 19.8246 324.842 21.1612 325.023 22.6102C325.229 24.2542 326.728 25.4205 328.372 25.2151C329.099 25.1243 329.747 24.8452 330.175 24.6336C330.187 24.6389 330.199 24.644 330.21 24.649C330.268 24.6748 330.321 24.6985 330.368 24.7195C330.488 24.7736 330.579 24.8154 330.65 24.8498C330.706 24.877 330.73 24.8901 330.732 24.8909C330.944 25.0154 331.176 25.1386 331.343 25.2275C331.372 25.243 331.399 25.2574 331.424 25.2706C331.625 25.378 331.758 25.4518 331.866 25.5191C331.881 25.5286 331.894 25.5372 331.906 25.5451C332.477 26.6038 333.09 27.6045 333.66 28.526C333.72 28.6227 333.779 28.7184 333.838 28.8131C334.39 29.705 334.893 30.5158 335.348 31.3344C335.421 31.4668 335.492 31.5924 335.559 31.7126C335.852 32.2345 336.088 32.6564 336.289 33.1044C336.527 33.6361 336.6 33.9687 336.607 34.1688C336.614 34.3607 336.615 34.6043 336.615 34.9552L336.615 35.0037C336.615 35.3531 336.616 35.7787 336.631 36.2122C336.657 36.9394 336.728 38.2035 337.201 39.2804C337.201 39.2791 337.2 39.2785 337.2 39.2786C337.197 39.2795 337.241 39.4385 337.244 39.8719C337.246 40.1033 337.236 40.3572 337.221 40.6519C337.217 40.728 337.212 40.8138 337.207 40.9047C337.198 41.0798 337.187 41.2738 337.179 41.4543C337.17 41.4927 337.144 41.6047 337.086 41.8217C337.066 41.8969 337.041 41.9855 337.014 42.0836C336.93 42.3905 336.819 42.7902 336.73 43.1626C336.614 43.6493 336.474 44.3198 336.451 44.9975C336.435 45.4926 336.427 46.9418 337.547 48.0619C338.128 48.6426 338.945 49.0137 339.856 48.9996C340.649 48.9873 341.241 48.6882 341.559 48.4918C342.163 48.1185 342.573 47.6117 342.772 47.3525C343.238 46.746 343.674 45.9677 344.009 45.3282C344.365 44.6488 344.695 43.9514 344.94 43.4187C345.064 43.15 345.168 42.9173 345.245 42.7468C345.275 42.6811 345.296 42.6329 345.312 42.5984C345.339 42.5378 345.347 42.5197 345.345 42.5238C345.5 42.2232 345.977 41.6647 346.893 40.9527C347.752 40.2848 348.741 39.6779 349.553 39.2267C350.384 38.7651 351.109 38.1931 351.636 37.7773L351.655 37.7626C352.248 37.2943 352.63 36.9954 353.014 36.7696C353.784 36.3167 355.128 35.4702 356.033 34.6658C356.165 34.5485 356.374 34.4143 356.812 34.1794C356.846 34.1615 356.887 34.1402 356.934 34.1155C357.28 33.9342 357.961 33.5776 358.486 33.1425C359.252 32.507 360.193 31.298 359.968 29.5394C359.796 28.2 358.983 27.1347 358.314 26.392C357.147 25.0958 356.394 23.6736 355.352 21.7055L355.339 21.6828C355.085 21.2029 354.864 20.7398 354.611 20.2095C354.416 19.7995 354.201 19.3493 353.937 18.8201C353.434 17.8131 352.801 16.6312 352.023 15.6261C352.02 15.6183 352.016 15.6096 352.012 15.6C351.959 15.4798 351.892 15.3058 351.827 15.1029C351.762 14.9015 351.711 14.7127 351.68 14.5697C351.671 14.5304 351.665 14.5 351.661 14.4783C351.647 13.8936 351.531 13.3837 351.418 12.9968C351.301 12.5983 351.154 12.2246 351.057 11.9773L351.052 11.965C350.843 11.432 350.811 11.3044 350.808 11.3051C350.808 11.3052 350.809 11.3115 350.809 11.3211C350.768 10.5837 350.715 9.98022 350.666 9.42578C350.593 8.60923 350.531 7.899 350.531 7.02384C350.531 6.81676 350.531 6.68444 350.534 6.56469C350.538 6.45298 350.543 6.39443 350.547 6.36346C350.548 6.35316 350.55 6.34649 350.55 6.34269C350.551 6.34157 350.551 6.34021 350.552 6.33858C350.56 6.32595 350.586 6.28463 350.641 6.20283C350.654 6.18502 350.678 6.14974 350.71 6.10433C350.793 5.98464 350.925 5.7946 351.008 5.66895C351.152 5.45106 351.352 5.13518 351.524 4.76557C351.692 4.40339 351.898 3.85629 351.94 3.18741L351.94 3.18733C351.951 3.01456 352 2.23182 351.495 1.41829C351.235 1.06152 350.542 0.460064 350.118 0.238242C349.709 0.0986531 348.949 -6.62899e-05 348.614 0.0183158C347.953 0.0918448 347.499 0.368244 347.378 0.442015C347.196 0.553623 347.065 0.661164 347 0.716286C346.867 0.829657 346.774 0.92989 346.74 0.965925C346.696 1.01388 346.662 1.05404 346.642 1.07798C346.578 1.15457 346.529 1.22118 346.518 1.23544L346.517 1.23693C346.485 1.28116 346.454 1.32469 346.438 1.34803C346.4 1.40336 346.349 1.47671 346.299 1.55081C346.281 1.57732 346.262 1.60508 346.242 1.63394C346.145 1.77579 346.031 1.9443 345.907 2.12275C345.759 2.33842 345.608 2.55329 345.478 2.73245C345.375 2.87458 345.316 2.95053 345.295 2.97831C345.284 2.99167 345.283 2.99388 345.289 2.98695C344.237 4.16931 343.261 5.6943 342.581 6.91807C342.081 7.81773 341.312 8.70587 340.376 9.58895C340.015 9.92982 339.594 10.3909 339.277 10.7389C339.172 10.8531 339.079 10.9552 339.003 11.0368C338.809 11.2443 338.651 11.4054 338.514 11.5309C338.448 11.5918 338.395 11.6362 338.355 11.6677C338.317 11.6977 338.299 11.7096 338.299 11.7096L338.299 11.7095C337.223 12.3814 336.177 13.3328 335.327 14.1615C334.825 14.6513 334.249 15.2432 333.76 15.7455C333.536 15.9752 333.331 16.1862 333.159 16.3601C333.088 16.3848 332.977 16.4194 332.795 16.4696C332.754 16.4811 332.704 16.4946 332.647 16.5098C332.417 16.5719 332.08 16.663 331.777 16.7622C331.371 16.895 330.838 17.0985 330.302 17.4359C330.122 17.5493 329.919 17.6861 329.721 17.823C329.399 17.8206 329.072 17.8703 328.75 17.9778C328 18.2276 327.415 18.7445 327.065 19.3872ZM333.249 16.325C333.249 16.325 333.248 16.3255 333.246 16.3264C333.248 16.3254 333.249 16.325 333.249 16.325Z" fill="#AF4468"/>
<path fill-rule="evenodd" clip-rule="evenodd" d="M374.419 72.3569C375.879 73.1408 376.427 74.9596 375.643 76.4192C374.694 78.1861 374 79.8255 374 80.9999C374 82.6567 372.657 83.9999 371 83.9999C369.343 83.9999 368 82.6567 368 80.9999C368 78.1259 369.464 75.244 370.357 73.5805C371.141 72.1208 372.96 71.573 374.419 72.3569Z" fill="#AF4468"/>
<path fill-rule="evenodd" clip-rule="evenodd" d="M372 90C372 88.3431 373.343 87 375 87C376.072 87 376.974 87.2992 377.451 87.4574C377.479 87.4666 377.505 87.4753 377.53 87.4835C378.074 87.6626 378.154 87.6667 378.207 87.6667C378.273 87.6667 378.352 87.6635 378.494 87.6579C378.57 87.6549 378.664 87.6512 378.783 87.6469C379.066 87.6367 379.445 87.6259 379.836 87.638C380.2 87.6494 380.723 87.6836 381.254 87.8166C381.639 87.9132 382.819 88.2422 383.549 89.4179C384.423 90.8256 383.99 92.6752 382.582 93.5489C381.631 94.1392 380.479 94.1332 379.561 93.6332C379.4 93.631 379.214 93.6352 379 93.643C378.938 93.6452 378.877 93.6476 378.813 93.6501L378.803 93.6506C378.744 93.6529 378.682 93.6553 378.622 93.6575C378.502 93.6619 378.352 93.6667 378.207 93.6667C377.117 93.6667 376.211 93.3669 375.723 93.2054C375.699 93.1977 375.677 93.1902 375.655 93.1832C375.098 93 375.032 93 375.001 93L375 93C373.343 93 372 91.6569 372 90Z" fill="#AF4468"/>
<path fill-rule="evenodd" clip-rule="evenodd" d="M370.294 94.9328C370.8 94.3323 371.071 93.5354 370.984 92.6928C370.815 91.0446 369.341 89.8461 367.693 90.0158C366.69 90.119 366.061 90.6699 365.842 90.8785C365.573 91.1358 365.394 91.3939 365.296 91.5452C365.095 91.8577 364.944 92.1834 364.845 92.4126C364.634 92.8989 364.431 93.4843 364.262 93.9913C364.148 94.3327 364.03 94.702 363.926 95.0258C363.876 95.1841 363.829 95.3315 363.787 95.4595C363.702 95.7222 363.648 95.8794 363.62 95.9612C363.592 96.0412 363.589 96.049 363.607 96.0128C363.182 96.8882 363.087 97.9118 363.049 98.4108C363.001 99.0451 363 99.6632 363 100C363 101.657 364.343 103 366 103C367.657 103 369 101.657 369 100C369 99.662 369.002 99.2504 369.032 98.8695C369.045 98.6907 369.062 98.5597 369.077 98.4753C369.164 98.2774 369.234 98.0826 369.279 97.953C369.349 97.7547 369.423 97.5302 369.495 97.3086C369.55 97.1388 369.604 96.9704 369.658 96.8018C369.754 96.5001 369.851 96.1977 369.955 95.8852C370.088 95.4846 370.203 95.1619 370.294 94.9328ZM369.09 98.4123C369.091 98.4124 369.089 98.4171 369.087 98.426C369.089 98.4165 369.09 98.4121 369.09 98.4123Z" fill="#AF4468"/>
<path fill-rule="evenodd" clip-rule="evenodd" d="M354.325 83.6413C355.075 82.1641 356.881 81.5748 358.358 82.3252C360.338 83.331 362.078 83.9999 364 83.9999C365.657 83.9999 367 85.3431 367 86.9999C367 88.6568 365.657 89.9999 364 89.9999C360.631 89.9999 357.856 88.7998 355.641 87.6746C354.164 86.9243 353.575 85.1185 354.325 83.6413Z" fill="#AF4468"/>
</svg>
